<?xml version="1.0" encoding="utf-8"?>
<!-- Generator: Adobe Illustrator 26.1.0, SVG Export Plug-In . SVG Version: 6.00 Build 0)  -->
<svg version="1.1" id="Layer_1" xmlns="http://www.w3.org/2000/svg" xmlns:xlink="http://www.w3.org/1999/xlink" x="0px" y="0px"
	 viewBox="0 0 300 300" style="enable-background:new 0 0 300 300;" xml:space="preserve">
<style type="text/css">
	.st0{fill:#898989;}
</style>
<path class="st0" d="M232.6,93c1-1.1,2-2.3,3-3.5C242.1,81,246,70.1,246,60.2c0-20.9-17-37.9-37.8-37.9c-20.9,0-37.9,17-37.9,37.9
	c0,9.9,3.9,20.9,10.5,29.3c0.1,0.2,0.3,0.4,0.4,0.5c0.8,1,1.6,2,2.5,2.9c-5.2,1.8-10.2,4.1-14.9,6.9c-0.9-26.9-23.1-48.5-50.3-48.5
	c-27.8,0-50.3,22.6-50.3,50.3c0,13.2,5.3,27.9,14.1,39.4c2.4,3.1,5,5.9,7.7,8.3c-20.7,5.9-39.4,18.2-53,35.1
	C22.1,203,13.9,226.3,13.9,250c0,4.3,3.5,7.8,7.8,7.8h193.5c4.3,0,7.8-3.5,7.8-7.8c0-29.5-12.3-57.1-33.9-77h87.5
	c4.3,0,7.8-3.5,7.8-7.8C284.4,132.5,263.3,103.4,232.6,93z M208.1,38c5.9,0,11.5,2.3,15.7,6.5c4.2,4.2,6.5,9.8,6.5,15.8
	c0,15.2-12.1,28.5-22,28.7l-0.2,0l-0.2,0c-2.7,0-5.5-1-8.2-2.7l0,0c-2.4-1.5-4.6-3.6-6.5-6c-0.2-0.2-0.3-0.4-0.5-0.6
	c-4.3-5.7-6.9-12.9-6.9-19.4C185.8,48,195.8,38,208.1,38z M83.7,101.7c0-19.1,15.6-34.7,34.7-34.7c19.1,0,34.7,15.6,34.7,34.7
	c0,9.7-3.9,20.7-10.5,29.4c-0.2,0.2-0.3,0.4-0.5,0.6c-3.1,4-6.6,7.2-10,9.3l-0.2,0.1c-4.3,2.8-8.7,4.2-13,4.3l-0.5,0l-0.4,0
	C99.5,145.1,83.7,121.1,83.7,101.7z M207,242.2H29.8c4-45.5,42.2-80.9,88.1-81.1l0.1,0c0.2,0,0.4,0,0.7,0
	C164.8,161.3,203,196.7,207,242.2z M167,157.4c-6.4-3.4-13.1-6.1-20.1-8c2.5-2.2,4.9-4.8,7.2-7.6c0.2-0.2,0.4-0.4,0.6-0.7
	c4.2-5.4,7.6-11.7,10.1-18.2c11.3-11.6,27-18.2,43.1-18.3c0.2,0,0.3,0,0.5,0c15.2,0.1,29.8,5.8,41,16.2
	c10.5,9.7,17.1,22.6,18.9,36.6H167z"/>
</svg>
