<svg height='300px' width='300px'  fill="#000000" xmlns="http://www.w3.org/2000/svg" xmlns:xlink="http://www.w3.org/1999/xlink" version="1.1" x="0px" y="0px" viewBox="0 0 100 100" style="enable-background:new 0 0 100 100;" xml:space="preserve"><g><path d="M47,10.3c-8.6,0-15.6,7-15.6,15.6c0,8.6,7,15.6,15.6,15.6c8.6,0,15.6-7,15.6-15.6C62.6,17.3,55.6,10.3,47,10.3z M47,36.5   c-5.9,0-10.6-4.8-10.6-10.6c0-5.9,4.8-10.6,10.6-10.6c5.8,0,10.6,4.7,10.6,10.6C57.6,31.8,52.9,36.5,47,36.5z"></path><path d="M76.4,56.4C72.3,50.7,65.6,47,58.1,47H35.8c-12.4,0-22.5,10.1-22.5,22.5v14.7c0,3,2.5,5.5,5.5,5.5h43.4   c1.4,0,2.4-1.1,2.4-2.4v0c0-1.4-1.1-2.6-2.6-2.6H18.8c-0.3,0-0.5-0.2-0.5-0.5V69.5c0-9.6,7.9-17.5,17.5-17.5h22.3   c5.8,0,11,2.9,14.2,7.3c0.5,0.7,1.3,1.1,2.1,1.1c1.5,0,2.5-1.2,2.5-2.5C76.8,57.3,76.7,56.8,76.4,56.4z"></path></g><g><path d="M87.4,76.7c0,1.4-1.1,2.5-2.5,2.5h-7.2v7.2c0,1.4-1.1,2.5-2.5,2.5s-2.5-1.1-2.5-2.5v-7.2h-7.2c-1.4,0-2.5-1.1-2.5-2.5   s1.1-2.5,2.5-2.5h7.2V67c0-1.4,1.1-2.5,2.5-2.5s2.5,1.1,2.5,2.5v7.2h7.2C86.3,74.2,87.4,75.3,87.4,76.7z"></path></g></svg>