<svg height='300px' width='300px'  fill="#474b52" xmlns="http://www.w3.org/2000/svg" xmlns:xlink="http://www.w3.org/1999/xlink" version="1.1" x="0px" y="0px" viewBox="0 0 512 512" style="enable-background:new 0 0 512 512;" xml:space="preserve"><g><path d="M43.551,61v335.792c0,24.262,19.738,44,44,44h155.382C265.151,473.483,302.637,495,345.056,495   c68.04,0,123.394-55.354,123.394-123.394c0-56.329-37.94-103.964-89.608-118.692v-127.59c0-2.78-1.157-5.435-3.194-7.326   L269.808,19.674c-1.85-1.719-4.281-2.674-6.806-2.674H87.551C63.289,17,43.551,36.738,43.551,61z M448.449,371.606   c0,57.011-46.382,103.394-103.394,103.394c-57.012,0-103.394-46.382-103.394-103.394c0-57.012,46.382-103.394,103.394-103.394   C402.067,268.212,448.449,314.595,448.449,371.606z M273.744,50.629l70.976,65.936h-46.976c-13.234,0-24-10.767-24-24V50.629z    M63.551,61c0-13.234,10.766-24,24-24h166.193v55.565c0,24.262,19.738,44,44,44h61.097v112.421   c-4.527-0.506-9.125-0.774-13.785-0.774c-68.04,0-123.394,55.354-123.394,123.394c0,17.474,3.659,34.108,10.239,49.186H87.551   c-13.234,0-24-10.767-24-24V61z"></path><path d="M336.715,319.102v40.845H295.87c-5.523,0-10,4.477-10,10s4.477,10,10,10h40.845v46.377c0,5.523,4.477,10,10,10   s10-4.477,10-10v-46.377h40.846c5.523,0,10-4.477,10-10s-4.477-10-10-10h-40.846v-40.845c0-5.523-4.477-10-10-10   S336.715,313.579,336.715,319.102z"></path></g></svg>