<svg height='300px' width='300px'  fill="#6e7479" xmlns="http://www.w3.org/2000/svg" xmlns:xlink="http://www.w3.org/1999/xlink" version="1.1" x="0px" y="0px" viewBox="0 0 24 24" style="enable-background:new 0 0 24 24;" xml:space="preserve"><g><path d="M3,6C1.346,6,0,4.654,0,3s1.346-3,3-3s3,1.346,3,3S4.654,6,3,6z M3,1C1.897,1,1,1.897,1,3s0.897,2,2,2s2-0.897,2-2   S4.103,1,3,1z"></path><path d="M3,15c-1.654,0-3-1.346-3-3s1.346-3,3-3s3,1.346,3,3S4.654,15,3,15z M3,10c-1.103,0-2,0.897-2,2c0,1.103,0.897,2,2,2   s2-0.897,2-2C5,10.897,4.103,10,3,10z"></path><path d="M3,24c-1.654,0-3-1.346-3-3s1.346-3,3-3s3,1.346,3,3S4.654,24,3,24z M3,19c-1.103,0-2,0.897-2,2s0.897,2,2,2s2-0.897,2-2   S4.103,19,3,19z"></path><rect x="9" y="1" width="15" height="1"></rect><rect x="9" y="4" width="8" height="1"></rect><rect x="9" y="10" width="15" height="1"></rect><rect x="9" y="13" width="9" height="1"></rect><rect x="9" y="19" width="15" height="1"></rect><rect x="9" y="22" width="5" height="1"></rect></g></svg>