<svg height='300px' width='300px'  fill="#000000" xmlns:x="http://ns.adobe.com/Extensibility/1.0/" xmlns:i="http://ns.adobe.com/AdobeIllustrator/10.0/" xmlns:graph="http://ns.adobe.com/Graphs/1.0/" xmlns="http://www.w3.org/2000/svg" xmlns:xlink="http://www.w3.org/1999/xlink" xmlns:a="http://ns.adobe.com/AdobeSVGViewerExtensions/3.0/" version="1.1" x="0px" y="0px" viewBox="0 0 96 96" enable-background="new 0 0 96 96" xml:space="preserve"><metadata><?xpacket begin="&#65279;" id="W5M0MpCehiHzreSzNTczkc9d"?><x:xmpmeta xmlns:x="adobe:ns:meta/" x:xmptk="Adobe XMP Core 5.5-c014 79.151739, 2013/04/03-12:12:15        "></x:xmpmeta><?xpacket end="w"?></metadata><path d="M18.1796875,81.7998047h23.0400391c3.4072266,0,6.1796875-2.7724609,6.1796875-6.1801758V52.5800781  c0-3.4077148-2.7724609-6.1801758-6.1796875-6.1801758H18.1796875C14.7724609,46.3999023,12,49.1723633,12,52.5800781v23.0395508  C12,79.0273438,14.7724609,81.7998047,18.1796875,81.7998047z M14,52.5800781c0-2.3051758,1.875-4.1801758,4.1796875-4.1801758  h23.0400391c2.3046875,0,4.1796875,1.875,4.1796875,4.1801758v23.0395508c0,2.3051758-1.875,4.1801758-4.1796875,4.1801758  H18.1796875C15.875,79.7998047,14,77.9248047,14,75.6196289V52.5800781z"></path><path d="M77.8203125,46.3999023H54.7802734c-3.4072266,0-6.1796875,2.7724609-6.1796875,6.1801758v23.0395508  c0,3.4077148,2.7724609,6.1801758,6.1796875,6.1801758h23.0400391C81.2275391,81.7998047,84,79.0273438,84,75.6196289V52.5800781  C84,49.1723633,81.2275391,46.3999023,77.8203125,46.3999023z M82,75.6196289c0,2.3051758-1.875,4.1801758-4.1796875,4.1801758  H54.7802734c-2.3046875,0-4.1796875-1.875-4.1796875-4.1801758V52.5800781c0-2.3051758,1.875-4.1801758,4.1796875-4.1801758  h23.0400391C80.125,48.3999023,82,50.2749023,82,52.5800781V75.6196289z"></path><path d="M48.7050781,20.3803711v18.4262695c0,3.4077148,2.7724609,6.1801758,6.1796875,6.1801758h18.4267578  c3.4082031,0,6.1806641-2.7724609,6.1806641-6.1801758V20.3803711c0-3.4077148-2.7724609-6.1801758-6.1806641-6.1801758H54.8847656  C51.4775391,14.2001953,48.7050781,16.9726563,48.7050781,20.3803711z M50.7050781,20.3803711  c0-2.3051758,1.875-4.1801758,4.1796875-4.1801758h18.4267578c2.3056641,0,4.1806641,1.875,4.1806641,4.1801758v18.4262695  c0,2.3051758-1.875,4.1801758-4.1806641,4.1801758H54.8847656c-2.3046875,0-4.1796875-1.875-4.1796875-4.1801758V20.3803711z"></path><path d="M41.1152344,14.2001953H22.6884766c-3.4082031,0-6.1806641,2.7724609-6.1806641,6.1801758v18.4262695  c0,3.4077148,2.7724609,6.1801758,6.1806641,6.1801758h18.4267578c3.4072266,0,6.1796875-2.7724609,6.1796875-6.1801758V20.3803711  C47.2949219,16.9726563,44.5224609,14.2001953,41.1152344,14.2001953z M45.2949219,38.8066406  c0,2.3051758-1.875,4.1801758-4.1796875,4.1801758H22.6884766c-2.3056641,0-4.1806641-1.875-4.1806641-4.1801758V20.3803711  c0-2.3051758,1.875-4.1801758,4.1806641-4.1801758h18.4267578c2.3046875,0,4.1796875,1.875,4.1796875,4.1801758V38.8066406z"></path></svg>