<?xml version="1.0" encoding="utf-8"?>
<!-- Generator: Adobe Illustrator 26.1.0, SVG Export Plug-In . SVG Version: 6.00 Build 0)  -->
<svg version="1.1" id="Layer_1" xmlns="http://www.w3.org/2000/svg" xmlns:xlink="http://www.w3.org/1999/xlink" x="0px" y="0px"
	 viewBox="0 0 752 752" style="enable-background:new 0 0 752 752;" xml:space="preserve">
<style type="text/css">
	.st0{fill:#666666;}
</style>
<path class="st0" d="M601,538V232c0-4.8-1.9-9.4-5.3-12.7l-126-126c-3.4-3.4-8-5.3-12.7-5.3H241c-49.6,0-90,40.4-90,90v414
	c0,39.7,32.3,72,72,72h360c9.9,0,18-8.1,18-18c0-7.8-4.9-14.4-11.8-16.9c-2.6-5-6.2-18.4-6.2-37.1c0-18.7,3.6-32.1,6.2-37.1
	C596.1,552.4,601,545.8,601,538L601,538z M475,149.4l64.6,64.6H511c-19.9,0-36-16.2-36-36V149.4z M223,628c-19.9,0-36-16.2-36-36
	s16.1-36,36-36h327.9c-2.7,11.1-3.9,23.7-3.9,36s1.3,24.8,4,36H223z M565,520H223c-13.2,0-25.4,3.8-36,10V178c0-29.8,24.2-54,54-54
	h198v54c0,39.7,32.3,72,72,72h54V520z"/>
</svg>
