<?xml version="1.0" encoding="utf-8"?>
<!-- Generator: Adobe Illustrator 26.1.0, SVG Export Plug-In . SVG Version: 6.00 Build 0)  -->
<svg version="1.1" id="Layer_1" xmlns="http://www.w3.org/2000/svg" xmlns:xlink="http://www.w3.org/1999/xlink" x="0px" y="0px"
	 viewBox="0 0 300 300" style="enable-background:new 0 0 300 300;" xml:space="preserve">
<style type="text/css">
	.st0{fill:#9B9B9B;}
</style>
<path class="st0" d="M107.4,121.5c20.2-0.2,38.8-11.1,48.9-28.6c10.1-17.5,10.1-39.1,0-56.6c-10.1-17.5-28.7-28.4-48.9-28.6
	C87.2,7.8,68.6,18.7,58.5,36.2c-10.1,17.5-10.1,39.1,0,56.6C68.6,110.4,87.2,121.3,107.4,121.5L107.4,121.5z M107.4,21.8L107.4,21.8
	c15.1,0.2,29.1,8.3,36.6,21.5c7.5,13.1,7.5,29.3,0,42.4s-21.4,21.3-36.6,21.5c-15.1-0.2-29.1-8.3-36.6-21.5
	c-7.5-13.1-7.5-29.3,0-42.4S92.3,22,107.4,21.8L107.4,21.8z M133.5,278L133.5,278c5.1,5.5,11,10.3,17.4,14.2H57.6
	c-9.4,0-18.5-3.8-25.2-10.4c-6.7-6.7-10.4-15.7-10.4-25.2v-85.4c0-9.4,3.8-18.5,10.4-25.2c6.7-6.7,15.7-10.4,25.2-10.4h93.2
	c-6.4,3.9-12.2,8.7-17.4,14.2H57.6c-5.7,0-11.1,2.2-15.1,6.2c-4,4-6.3,9.4-6.2,15.1v85.4c0,5.7,2.2,11.1,6.2,15.1
	c4,4,9.4,6.3,15.1,6.2L133.5,278z M199.9,135.7c-103.4,3.4-103.4,153.2,0,156.5C303.4,288.9,303.4,139,199.9,135.7z M199.9,278
	c-22.7-0.2-43.7-12.5-55-32.2c-11.3-19.7-11.3-44,0-63.7c11.3-19.7,32.2-32,55-32.2c22.7,0.2,43.7,12.5,55,32.2
	c11.3,19.7,11.3,44,0,63.7C243.6,265.6,222.7,277.8,199.9,278L199.9,278z M240.2,197.8L190,240.9v0c-3,2.6-7.5,2.2-10-0.8
	l-21.1-24.6v0c-2.4-3-2-7.4,0.9-9.9c2.9-2.5,7.3-2.2,9.9,0.6l16.4,19.2L231,187c3-2.4,7.4-2,9.9,0.9
	C243.3,190.9,243.1,195.3,240.2,197.8L240.2,197.8z"/>
</svg>
