<?xml version="1.0" encoding="UTF-8"?>
<svg width="752pt" height="752pt" version="1.1" viewBox="0 0 752 752" xmlns="http://www.w3.org/2000/svg">
 <path d="m336.54 568.39c-24.859 0-48.699-9.875-66.277-27.453-17.574-17.578-27.449-41.418-27.449-66.277v-157.86c0-47.586 25.387-91.559 66.594-115.35 41.211-23.793 91.984-23.793 133.2 0 41.211 23.793 66.598 67.766 66.598 115.35v157.86c0 5.2891-2.8203 10.172-7.3984 12.816s-10.223 2.6445-14.801 0-7.3984-7.5273-7.3984-12.816v-157.86c0-37.012-19.746-71.211-51.797-89.719-32.055-18.504-71.543-18.504-103.6 0-32.051 18.508-51.797 52.707-51.797 89.719v157.86c0 22.91 12.223 44.082 32.066 55.539 19.84 11.457 44.285 11.457 64.129 0s32.066-32.629 32.066-55.539v-157.86c0-8.8125-4.7031-16.957-12.332-21.363-7.6328-4.4062-17.035-4.4062-24.668 0-7.6328 4.4062-12.332 12.551-12.332 21.363v157.86c0 5.2891-2.8203 10.172-7.3984 12.816-4.582 2.6445-10.223 2.6445-14.801 0s-7.3984-7.5273-7.3984-12.816v-157.86c0-19.387 10.34-37.301 27.133-46.996 16.789-9.6914 37.473-9.6914 54.262 0 16.789 9.6953 27.133 27.609 27.133 46.996v157.86c0 24.859-9.875 48.699-27.453 66.277s-41.418 27.453-66.277 27.453z" fill="#fff"/>
</svg>
