<svg height='300px' width='300px'  fill="#1A1A1A" xmlns="http://www.w3.org/2000/svg" xmlns:xlink="http://www.w3.org/1999/xlink" version="1.1" x="0px" y="0px" viewBox="0 0 100 100" enable-background="new 0 0 100 100" xml:space="preserve"><path d="M61.207,50.793c2.877,2.877,2.878,7.536,0,10.414c-2.879,2.879-7.536,2.878-10.414,0l-13.5-13.5  c-2.033-2.034-2.065-5.348,0-7.414c2.045-2.044,5.369-2.044,7.414,0l13.5,13.5c1.217,1.217,1.217,3.197,0,4.414  c-1.178,1.18-3.236,1.18-4.414,0l-13.5-13.5c-0.391-0.391-0.391-1.023,0-1.414s1.023-0.391,1.414,0l13.5,13.5  c0.424,0.424,1.162,0.424,1.586,0c0.438-0.438,0.438-1.148,0-1.586l-13.5-13.5c-1.264-1.264-3.322-1.264-4.586,0  c-1.267,1.269-1.269,3.315,0,4.586l13.5,13.5c2.096,2.096,5.488,2.098,7.586,0c2.091-2.091,2.1-5.482,0-7.586l-9.5-9.5  c-0.391-0.391-0.391-1.023,0-1.414c0.391-0.391,1.023-0.391,1.414,0L61.207,50.793z M72,41.482v17.036  c0,2.506-1.352,4.836-3.527,6.078l-15,8.571c-2.092,1.196-4.755,1.251-6.946,0l-15-8.571C29.352,63.354,28,61.023,28,58.518V41.482  c0-2.506,1.352-4.835,3.527-6.078l15-8.571c2.143-1.224,4.803-1.225,6.946,0l15,8.571C70.648,36.647,72,38.976,72,41.482z   M70,41.482c0-1.79-0.966-3.453-2.52-4.341l-15-8.571c-1.533-0.875-3.433-0.874-4.96,0l-15,8.571C30.966,38.029,30,39.692,30,41.482  v17.036c0,1.791,0.966,3.453,2.52,4.342l15,8.57c1.529,0.875,3.432,0.875,4.96,0l15-8.57c1.555-0.889,2.521-2.551,2.521-4.342  L70,41.482L70,41.482z"></path></svg>