<?xml version="1.0" encoding="utf-8"?>
<!-- Generator: Adobe Illustrator 26.1.0, SVG Export Plug-In . SVG Version: 6.00 Build 0)  -->
<svg version="1.1" id="Layer_1" xmlns="http://www.w3.org/2000/svg" xmlns:xlink="http://www.w3.org/1999/xlink" x="0px" y="0px"
	 viewBox="0 0 752 752" style="enable-background:new 0 0 752 752;" xml:space="preserve">
<g>
<path d="M707.2,376c-0.7-15.4-12.5-28.5-28.5-28.5H141.9l21.7-21.7l111.9-111.9c8.4-8.4,17-16.7,25.3-25.3c0.1-0.1,0.2-0.2,0.4-0.4
	c10.5-10.5,11.3-29.9,0-40.3c-11.4-10.5-29-11.3-40.3,0l-70.3,70.3c-20.1,20.1-40.1,40.1-60.1,60.1c-17.3,17.3-34.6,34.6-51.9,51.9
	c-8.4,8.4-17,16.7-25.3,25.3c-0.1,0.1-0.2,0.2-0.4,0.4c-1.2,1.2-2.4,2.6-3.3,4c-4.1,6-5.6,13.4-4.6,20.4v0.1
	c0.9,5.8,3.5,11.5,7.8,15.8c6.9,6.8,13.7,13.7,20.6,20.6c16.5,16.5,33.1,33.1,49.6,49.6c20.1,20.1,40.1,40.1,60.1,60.1
	c17.4,17.3,34.7,34.6,52,51.9c8.4,8.4,16.7,17,25.3,25.3c0.1,0.1,0.2,0.2,0.4,0.4c10.5,10.5,29.9,11.3,40.3,0
	c10.5-11.4,11.3-29,0-40.3L170.8,433.4c-9.6-9.7-19.3-19.4-28.9-29h512.1c7.9,0,15.7,0.1,23.6,0h1l0,0
	C693.6,404.4,707.9,391.3,707.2,376z"/>
</g>
</svg>
