<?xml version="1.0" encoding="utf-8"?>
<!-- Generator: Adobe Illustrator 26.1.0, SVG Export Plug-In . SVG Version: 6.00 Build 0)  -->
<svg version="1.1" id="Layer_1" xmlns="http://www.w3.org/2000/svg" xmlns:xlink="http://www.w3.org/1999/xlink" x="0px" y="0px"
	 viewBox="0 0 300 300" style="enable-background:new 0 0 300 300;" xml:space="preserve">
<style type="text/css">
	.st0{fill:#909090;}
</style>
<path class="st0" d="M259,242.8H41c-3.9,0-7,3.1-7,7s3.1,7,7,7h218c3.9,0,7-3.1,7-7S262.9,242.8,259,242.8z"/>
<path class="st0" d="M95.1,223c12.7,0,22.9-10.3,22.9-22.9V68.4c0-12.7-10.3-23-22.9-23h-1l0,0C81.9,46,72.2,56,72.2,68.4v131.7
	C72.2,212.7,82.5,223,95.1,223z M85.1,68.4c0-5.5,4.5-10,10-10s10,4.5,10,10v131.7c0,5.5-4.5,10-10,10s-10-4.5-10-10V68.4z"/>
<path class="st0" d="M150,223c12.7,0,22.9-10.3,22.9-22.9v-65.9c0-12.7-10.3-22.9-23-22.9S127,121.6,127,134.2v65.9
	C127,212.7,137.3,223,150,223z M160,134.2v65.9c0,5.5-4.5,10-10,10s-10-4.5-10-10v-65.9c0-5.5,4.5-10,10-10
	C155.5,124.2,160,128.7,160,134.2z"/>
<path class="st0" d="M204.9,223c12.7,0,22.9-10.3,22.9-22.9v-98.8c0-12.7-10.3-22.9-23-22.9s-22.9,10.3-22.9,22.9v98.8
	C181.9,212.7,192.2,223,204.9,223z M194.9,101.3c0-5.5,4.5-10,10-10s10,4.5,10,10v98.8c0,5.5-4.5,10-10,10s-10-4.5-10-10V101.3z"/>
</svg>
