<?xml version="1.0" encoding="utf-8"?>
<!-- Generator: Adobe Illustrator 26.2.1, SVG Export Plug-In . SVG Version: 6.00 Build 0)  -->
<svg version="1.1" id="Layer_1" xmlns="http://www.w3.org/2000/svg" xmlns:xlink="http://www.w3.org/1999/xlink" x="0px" y="0px"
	 viewBox="0 0 300 300" style="enable-background:new 0 0 300 300;" xml:space="preserve">
<g>
	<path d="M220.9,221.2V42.8c0-12.9-10.5-23.4-23.4-23.4l-133.1,0C51.5,19.4,41,29.9,41,42.8v178.7c0,12.9,10.5,23.4,23.4,23.4
		l133.1,0C210.4,244.8,220.9,234.2,220.9,221.2z M197.5,223.3l-133.1,0c-1,0-1.8-0.8-1.8-1.8V43.1c0-1,0.8-1.8,1.8-1.8h3.5V41
		l129.6,0c1,0,1.8,0.8,1.8,1.8v178.7C199.3,222.4,198.5,223.3,197.5,223.3z"/>
	<path d="M235.6,55.2c-6.1,0-10.9,4.8-10.9,10.9c0,6,4.9,10.9,10.9,10.9c1,0,1.8,0.8,1.8,1.8l0,178.4c0,1-0.8,1.8-1.8,1.8H102.5
		c-1,0-1.8-0.8-1.8-1.8c0-6-4.9-10.9-10.9-10.9s-10.9,4.9-10.9,10.9c0,12.9,10.5,23.4,23.4,23.4l133.1,0c12.9,0,23.3-10.3,23.6-23.6
		V78.5C259,65.7,248.5,55.2,235.6,55.2z"/>
</g>
</svg>
