<?xml version="1.0" encoding="utf-8"?>
<!-- Generator: Adobe Illustrator 23.1.1, SVG Export Plug-In . SVG Version: 6.00 Build 0)  -->
<svg version="1.1" id="Layer_1" xmlns="http://www.w3.org/2000/svg" xmlns:xlink="http://www.w3.org/1999/xlink" x="0px" y="0px"
	 viewBox="0 0 300 300" style="enable-background:new 0 0 300 300;" xml:space="preserve">
<style type="text/css">
	.st0{fill:#EDF1F5;}
</style>
<path class="st0" d="M72.6,172.5c-3.3,0-6-2.7-6-6v-53.1c0-3.3,2.7-6,6-6c3.3,0,6,2.7,6,6v53.1C78.6,169.8,75.9,172.5,72.6,172.5z"
	/>
<path class="st0" d="M139.5,194.1H21.9c-3.3,0-6-2.7-6-6v-27.9c0-3.3,2.7-6,6-6c7.8,0,14.1-6.3,14.1-14.1S29.7,126,21.9,126
	c-3.3,0-6-2.7-6-6V92.1c0-3.3,2.7-6,6-6H141c3.3,0,6,2.7,6,6s-2.7,6-6,6H27.9v16.5c11.7,2.7,20.1,13.2,20.1,25.5
	s-8.7,22.8-20.1,25.5v16.5h111.6c3.3,0,6,2.7,6,6S142.8,194.1,139.5,194.1z"/>
<path class="st0" d="M210.9,204.9c-35.7,0-64.8-29.1-64.8-64.8S175.2,75,210.9,75s64.8,29.1,64.8,64.8S246.6,204.9,210.9,204.9z
	 M210.9,87c-29.1,0-52.8,23.7-52.8,52.8s23.7,52.8,52.8,52.8s52.8-23.7,52.8-52.8S240,87,210.9,87z"/>
<path class="st0" d="M219.5,140l14.5-14.5c2.3-2.3,2.3-6.2,0-8.5s-6.2-2.3-8.5,0L211,131.5L196.5,117c-2.3-2.3-6.2-2.3-8.5,0
	s-2.3,6.2,0,8.5l14.5,14.5L188,154.6c-2.3,2.3-2.3,6.2,0,8.5s6.2,2.3,8.5,0l14.5-14.5l14.5,14.5c2.3,2.3,6.2,2.3,8.5,0
	s2.3-6.2,0-8.5L219.5,140z"/>
</svg>
