<?xml version="1.0" encoding="utf-8"?>
<!-- Generator: Adobe Illustrator 23.1.1, SVG Export Plug-In . SVG Version: 6.00 Build 0)  -->
<svg version="1.1" id="Layer_1" xmlns="http://www.w3.org/2000/svg" xmlns:xlink="http://www.w3.org/1999/xlink" x="0px" y="0px"
	 viewBox="0 0 300 300" style="enable-background:new 0 0 300 300;" xml:space="preserve">
<style type="text/css">
	.st0{fill:#EDF1F5;}
</style>
<path class="st0" d="M152.1,193.5H26.7c-3.3,0-6-2.7-6-6v-28.8c0-3.3,2.7-6,6-6c8.4,0,15-6.6,15-15c0-8.4-6.6-15-15-15
	c-3.3,0-6-2.7-6-6V87.9c0-3.3,2.7-6,6-6h199.5c3.3,0,6,2.7,6,6v42.6c0,3.3-2.7,6-6,6c-3.3,0-6-2.7-6-6V93.9H32.7v17.4
	c12,2.7,21,13.5,21,26.4s-9,23.7-21,26.4v17.4h119.4c3.3,0,6,2.7,6,6C158.1,190.8,155.4,193.5,152.1,193.5z"/>
<path class="st0" d="M225.9,218.1c-3,0-5.7-0.3-9.3-0.9c-3-0.6-6-1.2-9.6-2.7c-3-1.2-5.7-2.4-9-4.2c-3.3-1.8-6.3-3.6-9-6
	c-2.4-1.8-5.1-4.2-7.5-6.3l-0.3-0.3c-2.1-2.1-4.5-4.5-6.3-6.6c-0.3-0.3-0.6-0.6-0.6-0.9c-1.8-1.8-2.1-4.8-0.9-7.2l0.9-1.8
	c0.3-0.3,0.6-0.9,0.9-1.2c1.8-2.4,4.2-4.5,6.3-6.6c2.7-2.7,5.4-4.8,8.1-6.6c3-2.1,5.7-4.2,8.7-5.7s6-3.3,9.6-4.5
	c2.7-0.9,5.4-1.8,8.4-2.4c3-0.6,6.3-0.9,9-0.9c4.5,0,8.1,0.6,11.4,1.5c3,0.9,6.3,1.8,9.6,3.3c3,1.2,5.7,2.7,8.7,4.8
	c2.7,1.5,4.8,3.3,6.9,4.8c2.4,1.8,4.8,3.9,7.2,6c2.4,1.8,4.8,4.2,7.2,6.9l1.5,1.8c1.8,2.4,1.8,5.7-0.3,8.1l-0.3,0.3
	c-0.3,0.3-0.3,0.6-0.6,0.9c-2.1,2.4-4.2,4.5-6.9,6.9c-2.7,2.4-4.8,4.2-7.5,6.3c-3,2.4-6,4.2-9,6c-2.7,1.5-5.4,2.7-9,4.2h-0.3
	c-2.7,0.9-5.7,1.8-8.7,2.7C232.2,217.8,228.9,218.1,225.9,218.1z M189.9,189c2.4,2.1,4.5,3.9,6.6,5.7c2.4,2.1,5.1,3.6,7.5,5.1
	c2.7,1.2,5.4,2.4,7.8,3.6c2.4,0.9,4.8,1.5,7.2,2.1c2.7,0.6,4.8,0.9,6.9,0.9c2.1,0,4.5-0.3,6.9-0.9c2.4-0.6,4.8-1.5,7.2-2.1
	c3-1.2,5.4-2.4,7.5-3.6c2.4-1.2,4.8-3,7.2-4.8s4.5-3.6,6.9-5.7c1.2-1.2,2.4-2.1,3.6-3.3c-1.2-1.2-2.4-2.1-3.3-3l-0.3-0.3
	c-2.4-2.1-4.5-3.9-6.9-5.7c0,0-0.3,0-0.3-0.3c-1.5-1.2-3.6-2.7-5.7-3.9c-2.4-1.5-4.8-2.7-7.2-3.9c-2.4-0.9-5.4-1.8-8.4-2.7
	c-2.1-0.6-4.8-0.9-7.8-0.9c-2.1,0-4.2,0.3-6.6,0.9c-2.4,0.6-4.8,1.5-7.5,2.1c-2.7,0.9-4.8,2.1-7.5,3.6c-2.4,1.5-4.8,3-7.2,4.8
	l-0.3,0.3c-2.1,1.5-4.2,3-6.3,5.1c-1.2,1.2-2.7,2.7-3.9,3.9C187.5,186.9,188.7,187.8,189.9,189z"/>
<circle class="st0" cx="226.2" cy="185.7" r="9.6"/>
<path class="st0" d="M119.4,163.8c-1.8,0-3.6-0.9-4.8-2.1l-16.2-20.1c-2.1-2.7-1.8-6.3,0.9-8.4c2.7-2.1,6.3-1.8,8.4,0.9l11.4,14.1
	l25.5-34.2c2.1-2.7,5.7-3.3,8.4-1.2c2.7,2.1,3.3,5.7,1.2,8.4l-30,40.2C123,162.9,121.5,163.8,119.4,163.8L119.4,163.8z"/>
</svg>
