<?xml version="1.0" encoding="utf-8"?>
<!-- Generator: Adobe Illustrator 23.1.1, SVG Export Plug-In . SVG Version: 6.00 Build 0)  -->
<svg version="1.1" id="Layer_1" xmlns="http://www.w3.org/2000/svg" xmlns:xlink="http://www.w3.org/1999/xlink" x="0px" y="0px"
	 viewBox="0 0 300 300" style="enable-background:new 0 0 300 300;" xml:space="preserve">
<style type="text/css">
	.st0{fill:#EDF1F5;}
</style>
<path class="st0" d="M99.6,186c-3.3,0-6-2.7-6-6v-60c0-3.3,2.7-6,6-6c3.3,0,6,2.7,6,6v60C105.6,183.3,103.2,186,99.6,186z"/>
<path class="st0" d="M258.6,210.3H41.4c-3.3,0-6-2.7-6-6v-31.5c0-3.3,2.7-6,6-6c9.3,0,16.8-7.5,16.8-16.8s-7.5-16.8-16.8-16.8
	c-3.3,0-6-2.7-6-6V95.7c0-3.3,2.7-6,6-6h217.5c3.3,0,6,2.7,6,6v108.6C264.6,207.6,262.2,210.3,258.6,210.3z M47.4,198.3h205.5v-96.6
	H47.4v20.1c13.2,2.7,22.8,14.4,22.8,28.2s-9.9,25.5-22.8,28.2C47.4,178.2,47.4,198.3,47.4,198.3z"/>
</svg>
