<svg height='300px' width='300px'  fill="#7fc349" xmlns="http://www.w3.org/2000/svg" xmlns:xlink="http://www.w3.org/1999/xlink" version="1.1" x="0px" y="0px" viewBox="0 0 1024 1024" style="enable-background:new 0 0 1024 1024;" xml:space="preserve"><g><g><g><path d="M385.9,471.2c-8.8,0-17.5,0-26.2-1.1c2.7,0.4,5.3,0.7,8,1.1c-10.3-1.5-20.2-4.2-29.8-8.2     c2.4,1,4.8,2,7.2,3c-7.1-3-13.9-6.6-20.4-10.9c-1.6-1.1-3.2-2.3-4.8-3.4c-3.3-2.3,2.9,2.3,2.9,2.3c-0.5,0-1.7-1.3-2-1.6     c-3-2.5-6-5.2-8.7-7.9c-2.6-2.6-5.1-5.4-7.5-8.2c-0.6-0.7-1.1-1.4-1.7-2c-2.1-2.4,4.9,6.7,1.9,2.4c-1-1.4-2.1-2.8-3-4.3     c-4.4-6.6-8.2-13.6-11.3-20.9c1,2.4,2,4.8,3,7.2c-4-9.6-6.7-19.6-8.2-29.8c0.4,2.7,0.7,5.3,1.1,8c-2.2-16.3-1.1-33.3-1.1-49.7     c0-16.4-1-33.4,1.1-49.7c-0.4,2.7-0.7,5.3-1.1,8c1.5-10.3,4.2-20.2,8.2-29.8c-1,2.4-2,4.8-3,7.2c3-7.1,6.6-13.9,10.9-20.4     c1.1-1.6,2.3-3.2,3.4-4.8c2.3-3.3-2.3,2.9-2.3,2.9c0-0.5,1.3-1.7,1.6-2c2.5-3,5.2-6,7.9-8.7c2.6-2.6,5.4-5.1,8.2-7.5     c0.7-0.6,1.4-1.1,2-1.7c2.4-2.1-6.7,4.9-2.4,1.9c1.4-1,2.8-2.1,4.3-3c6.6-4.4,13.6-8.2,20.9-11.3c-2.4,1-4.8,2-7.2,3     c9.6-4,19.6-6.7,29.8-8.2c-2.7,0.4-5.3,0.7-8,1.1c13.9-1.9,28.9-1.9,42.8,0c-2.7-0.4-5.3-0.7-8-1.1c10.3,1.5,20.2,4.2,29.8,8.2     c-2.4-1-4.8-2-7.2-3c7.1,3,13.9,6.6,20.4,10.9c1.6,1.1,3.2,2.3,4.8,3.4c3.3,2.3-2.9-2.3-2.9-2.3c0.5,0,1.7,1.3,2,1.6     c3,2.5,6,5.2,8.7,7.9c2.6,2.6,5.1,5.4,7.5,8.2c0.6,0.7,1.1,1.4,1.7,2c2.1,2.4-4.9-6.7-1.9-2.4c1,1.4,2.1,2.8,3,4.3     c4.4,6.6,8.2,13.6,11.3,20.9c-1-2.4-2-4.8-3-7.2c4,9.6,6.7,19.6,8.2,29.8c-0.4-2.7-0.7-5.3-1.1-8c2.2,16.3,1.1,33.3,1.1,49.7     c0,16.4,1,33.4-1.1,49.7c0.4-2.7,0.7-5.3,1.1-8c-1.5,10.3-4.2,20.2-8.2,29.8c1-2.4,2-4.8,3-7.2c-3,7.1-6.6,13.9-10.9,20.4     c-1.1,1.6-2.3,3.2-3.4,4.8c-2.3,3.3,2.3-2.9,2.3-2.9c0,0.5-1.3,1.7-1.6,2c-2.5,3-5.2,6-7.9,8.7c-2.6,2.6-5.4,5.1-8.2,7.5     c-0.7,0.6-1.4,1.1-2,1.7c-2.4,2.1,6.7-4.9,2.4-1.9c-1.4,1-2.8,2.1-4.3,3c-6.6,4.4-13.6,8.2-20.9,11.3c2.4-1,4.8-2,7.2-3     c-9.6,4-19.6,6.7-29.8,8.2c2.7-0.4,5.3-0.7,8-1.1C397,470.8,391.5,471.2,385.9,471.2c-15.7,0.1-30.7,13.7-30,30     c0.7,16.2,13.2,30.1,30,30c42.4-0.2,84.7-18.5,112.6-50.6c25.3-29.1,38.6-65,38.6-103.6c0-20.8,0-41.5,0-62.3     c-0.1-39.8-15.6-78.3-43.5-106.8c-29-29.6-69-45.3-110.2-45.3c-18.3,0-36.7,1.6-54.1,7.5c-21.1,7.2-40.2,18.5-56.6,33.7     c-30.3,28.1-47.5,68.9-47.7,110.2c-0.1,20.3,0,40.7,0,61c0,14.5,1.2,29,4.8,43c5.6,21.6,16.2,40.8,30,58.1     c26.4,33.2,67.4,52.6,109.4,55c5.5,0.3,11.1,0.2,16.6,0.2c15.7,0,30.7-13.8,30-30C415.2,484.9,402.7,471.2,385.9,471.2z"></path></g></g><g><g><path d="M611.6,740.2c0,48,0,96,0,143.9c0,6.7,0,13.4,0,20.1c10-10,20-20,30-30c-17.3,0-34.7,0-52,0     c-41.5,0-82.9,0-124.4,0c-50.1,0-100.3,0-150.4,0c-43.3,0-86.7,0-130,0c-21.1,0-42.2-0.6-63.3,0c-0.3,0-0.6,0-0.9,0     c10,10,20,20,30,30c0-19.8,0-39.6,0-59.4c0-29.9,0-59.8,0-89.7c0-10.1-0.3-20.1,1-30.2c-0.4,2.7-0.7,5.3-1.1,8     c1.4-10.3,4.1-20.2,8.1-29.8c-1,2.4-2,4.8-3,7.2c3-6.9,6.5-13.5,10.7-19.7c1.1-1.6,2.3-3.2,3.4-4.8c1.9-2.8-4.5,5.5-2.3,2.9     c0.6-0.7,1.1-1.4,1.7-2c2.5-3,5.2-5.9,8-8.7c2.7-2.6,5.4-5.1,8.3-7.5c0.4-0.3,1.6-1.6,2.1-1.7c-0.1,0-6.2,4.6-2.9,2.3     c1.6-1.1,3.2-2.3,4.9-3.4c6.5-4.3,13.3-8,20.5-11c-2.4,1-4.8,2-7.2,3c10-4.2,20.5-7.1,31.2-8.6c-2.7,0.4-5.3,0.7-8,1.1     c13.2-1.7,26.8-1.1,40.2-1.1c22.9,0,45.7,0,68.6,0c52.4,0,104.8,0,157.2,0c15.4,0,31.3-0.9,46.6,1.1c-2.7-0.4-5.3-0.7-8-1.1     c10.2,1.5,20.1,4.2,29.7,8.1c-2.4-1-4.8-2-7.2-3c6.9,2.9,13.5,6.4,19.7,10.5c1.6,1.1,3.2,2.2,4.8,3.3c4.8,3.4-5.4-4.5-0.9-0.7     c3,2.5,5.9,5.1,8.7,7.8c2.6,2.6,5.1,5.3,7.5,8.1c0.6,0.7,1.1,1.3,1.7,2c2.6,3.1-2.3-3-2.3-3c0.7,0,3,4.1,3.4,4.8     c4.3,6.4,7.9,13.1,10.9,20.1c-1-2.4-2-4.8-3-7.2c4,9.5,6.7,19.4,8.2,29.6c-0.4-2.7-0.7-5.3-1.1-8     C611.2,729.1,611.6,734.7,611.6,740.2c0.1,15.7,13.7,30.7,30,30c16.2-0.7,30.1-13.2,30-30c-0.3-51.2-26.8-98.6-69.8-126.2     c-26.3-16.9-56.6-23-87.5-23c-50,0-100.1,0-150.1,0c-40.6,0-81.1-0.2-121.7,0c-24.2,0.1-47.5,6-69.1,16.6     c-22.6,11-41.2,28.3-56,48.4c-15.1,20.6-23.1,45.1-26,70.3c-0.9,7.8-0.8,15.7-0.8,23.5c0,50.1,0,100.2,0,150.3c0,1.3,0,2.7,0,4     c0,16.2,13.7,30,30,30c17.3,0,34.7,0,52,0c41.5,0,82.9,0,124.4,0c50.1,0,100.3,0,150.4,0c43.3,0,86.7,0,130,0     c21.1,0,42.2,0.4,63.3,0c0.3,0,0.6,0,0.9,0c16.2,0,30-13.7,30-30c0-48,0-96,0-143.9c0-6.7,0-13.4,0-20.1c0-15.7-13.8-30.7-30-30     C625.4,710.9,611.6,723.4,611.6,740.2z"></path></g></g><g><g><path d="M890.8,268.5c-38.6,0-77.2,0-115.8,0c-20,0-40,0-60,0c-10.5,0-19.5,1.1-28.1,9.2     c-5.9,5.5-11.5,11.2-17.3,16.8c-16,15.6-32.1,31.3-48.1,46.9c17.1,7.1,34.1,14.1,51.2,21.2c0-26.1,0-52.2,0-78.3     c0-41.4,0-82.8,0-124.2c0-9.7-0.5-19.5,0.1-29.1c-0.4,2.7-0.7,5.3-1.1,8c0.2-1.4,0.5-2.5,1.1-3.8c-1,2.4-2,4.8-3,7.2     c2.1-4.1-4.6,4.7-2.1,2.4c2.1-2-6.8,4.4-2.4,2.1c-2.4,1-4.8,2-7.2,3c1.3-0.5,2.4-0.8,3.8-1.1c-2.7,0.4-5.3,0.7-8,1.1     c8.1-0.4,16.3-0.1,24.4-0.1c18.8,0,37.6,0,56.4,0c42.5,0,85,0,127.5,0c9.9,0,20-0.5,30,0.1c-2.7-0.4-5.3-0.7-8-1.1     c1.4,0.2,2.5,0.5,3.8,1.1c-2.4-1-4.8-2-7.2-3c4.1,2.1-4.7-4.6-2.4-2.1c2,2.1-4.4-6.8-2.1-2.4c-1-2.4-2-4.8-3-7.2     c0.5,1.3,0.8,2.4,1.1,3.8c-0.4-2.7-0.7-5.3-1.1-8c1,17.6,0.1,35.5,0.1,53.1c0,27.8,0,55.5,0,83.3c0,6.6,0.3,13.2-0.1,19.8     c0.4-2.7,0.7-5.3,1.1-8c-0.2,1.4-0.5,2.5-1.1,3.8c1-2.4,2-4.8,3-7.2c-2.1,4.1,4.6-4.7,2.1-2.4c-2.1,2,6.8-4.4,2.4-2.1     c2.4-1,4.8-2,7.2-3c-1.3,0.5-2.4,0.8-3.8,1.1c2.7-0.4,5.3-0.7,8-1.1C891.7,268.5,891.3,268.5,890.8,268.5     c-15.6,0.8-30.8,13.2-30,30c0.7,15.5,13.2,30.9,30,30c23.7-1.3,42-18.6,42.6-42.8c0.1-2,0-4.1,0-6.1c0-10.9,0-21.8,0-32.7     c0-30.1,0-60.3,0-90.4c0-7.8,0.1-15.7,0-23.5c-0.5-24.8-19.7-43.1-44.4-43.3c-18.9-0.1-37.8,0-56.6,0c-55.5,0-111.1,0-166.6,0     c-7.6,0-15-0.3-22.4,1.7c-18.5,5.1-30.3,22.6-30.7,41.2c0,1.6,0,3.3,0,4.9c0,22,0,44,0,66c0,52,0,103.9,0,155.9     c0,1.1,0,2.1,0,3.2c0,12,7.5,22.8,18.4,27.4c11.1,4.7,24.1,2.3,32.8-6.2c19.2-18.7,38.4-37.4,57.6-56.2c2.7-2.7,5.5-5.3,8.2-8     c-7.1,2.9-14.1,5.9-21.2,8.8c20.6,0,41.1,0,61.7,0c32.6,0,65.2,0,97.9,0c7.6,0,15.2,0,22.7,0c15.7,0,30.7-13.8,30-30     C920.1,282.3,907.6,268.5,890.8,268.5z"></path></g></g></g></svg>