<svg height='300px' width='300px'  fill="#7fc349" xmlns="http://www.w3.org/2000/svg" xmlns:xlink="http://www.w3.org/1999/xlink" version="1.1" x="0px" y="0px" viewBox="0 0 1024 1024" style="enable-background:new 0 0 1024 1024;" xml:space="preserve"><g><g><g><path d="M585.1,267.9c0,21.8,0,43.6,0,65.4c8.2-8.2,16.3-16.3,24.5-24.5c-23.7,0-47.3,0-71,0     c-10.1,0-20.1,0-30.2,0c-21.4,0.1-43.2,5.9-61.1,17.9c-21.8,14.6-38,35.8-45.7,60.9c-3.8,12.4-4.7,25.3-4.7,38.2     c0,26.3,0,52.6,0,78.9c0,23.1,0,46.1,0,69.2c8.2-8.2,16.3-16.3,24.5-24.5c-18.8,0-37.7,0-56.5,0c-11,0-22,0-33,0     c-2.4,0-4.8-0.1-7.2,0c-7.4,0.2-13.1,3.2-18.4,7.9c-31.8,27.7-62.7,56.4-94,84.6c-12,10.8-23.9,21.5-35.9,32.3     c13.9,5.8,27.9,11.5,41.8,17.3c0-34.3,0-68.7,0-103c0-4.9,0-9.7,0-14.6c0-13.2-11.2-24.5-24.5-24.5c-7.1,0-14.2,0-21.3,0     c-3.1,0-6.2,0-9.3,0c-2.2,0-4.4-0.1-6.6-0.2c-2-0.1-7.3-1.2,0.4,0.2c-1.8-0.3-3.6-0.6-5.3-0.9c-3.1-0.6-6.1-1.4-9-2.4     c-1.5-0.5-2.9-1.1-4.4-1.6c-2.9-0.8,4.9,2.3,2.2,1c-1-0.5-2-0.9-3-1.4c-2.7-1.3-5.4-2.8-8-4.4c-1.3-0.8-2.5-1.7-3.8-2.5     c-4.4-3,3.9,3.4-0.2-0.1c-4.8-4.2-8.8-8.8-13.1-13.4c5,5.5,1.2,1.4,0-0.3c-0.7-1.1-1.4-2.2-2.1-3.3c-1.8-3-3.4-6.1-4.9-9.3     c-1.8-3.7,2,5.8,0.2,0.4c-0.5-1.5-1-2.9-1.5-4.4c-1-3.2-1.8-6.5-2.4-9.8c-0.2-0.9-0.3-1.8-0.4-2.7c-0.5-2.7,0.4,3.5,0.4,3.1     c0-1.6-0.3-3.2-0.4-4.8c-0.1-1.7-0.1-3.3-0.1-5c0-2.1,0-4.3,0-6.4c0-12,0-24,0-36c0-37.2,0-74.4,0-111.6c0-21.8-0.2-43.7,0-65.5     c0-2.6,0.1-5.1,0.3-7.6c0.5-5.4-0.9,4.7-0.1,0.4c0.3-1.8,0.6-3.5,1-5.3c0.7-3,1.5-6,2.5-9c0.3-0.9,2.4-6.1,0.6-2     c-1.8,4.1,1-2.1,1.5-3.1c1.4-2.7,2.9-5.4,4.6-7.9c0.8-1.3,1.8-2.5,2.6-3.8c1.3-2.2-2,2.5-1.9,2.4c0.7-0.8,1.4-1.7,2.1-2.5     c2-2.3,4-4.5,6.2-6.6c1.1-1,2.2-2.1,3.4-3.1c0.7-0.6,1.3-1.1,2-1.7c2.5-2.1-1.3,1.2-1.9,1.4c2.8-1.3,5.4-3.8,8.2-5.3     c2.9-1.6,5.9-2.8,8.8-4.4c-0.3,0.1-5.9,2.2-2.2,1c0.6-0.2,1.2-0.5,1.9-0.7c1.5-0.5,2.9-1,4.4-1.4c3.2-0.9,6.5-1.7,9.8-2.2     c5.8-1-4.7,0.4-0.4,0.1c1.8-0.1,3.7-0.3,5.5-0.4c1,0,1.9,0,2.9,0c0.4,0,0.9,0,1.3,0c18.9,0,37.9,0,56.8,0c35.7,0,71.4,0,107.2,0     c37.5,0,74.9,0,112.4,0c24.7,0,49.4,0,74.1,0c2.4,0,4.8,0,7.2,0c0.5,0,1,0,1.4,0c0.3,0,0.6,0,0.9,0c1.6,0,3.2,0.1,4.9,0.2     c0.9,0.1,1.8,0.2,2.7,0.2c4.3,0.3-4.8-0.8-1.8-0.3c3.1,0.5,6.2,1.1,9.2,1.9c3.1,0.8,6.3,2.5,9.5,3.1c-0.3-0.1-5.7-2.6-2.2-0.9     c0.6,0.3,1.2,0.5,1.8,0.8c1.4,0.7,2.7,1.4,4.1,2.1c3.1,1.7,5.9,3.6,8.8,5.5c3.4,2.2-4.6-3.9-0.3-0.3c1.2,1,2.3,2,3.4,3     c2.4,2.2,4.7,4.5,6.8,7c1,1.1,1.9,2.4,2.9,3.5c-0.2-0.2-3.6-5-1.5-1.8c0.4,0.5,0.8,1.1,1.1,1.6c1.8,2.7,3.5,5.5,5,8.4     c0.8,1.6,1.5,3.1,2.3,4.7c1.8,3.8-1.8-5-0.5-1c1.1,3.2,2.2,6.3,3,9.5c0.4,1.5,0.7,3.1,1,4.6c0.2,1,1.1,6.7,0.4,2.1     c-0.6-4.4,0,1,0.1,2.2C585.1,264.2,585.1,266,585.1,267.9c0.1,12.8,11.2,25.1,24.5,24.5c13.2-0.6,24.6-10.8,24.5-24.5     c-0.3-31.9-14.2-64.2-39.2-84.4c-20.7-16.8-45.4-26.3-72.2-26.4c-18.4,0-36.9,0-55.3,0c-36.5,0-72.9,0-109.4,0     c-38.6,0-77.2,0-115.8,0c-24.4,0-48.7,0-73.1,0c-11.9,0-23.7,0.7-35.3,3.8c-30,8-57.2,29.8-70.5,58     c-8.1,17.4-11.5,35.3-11.5,54.4c0,11.9,0,23.9,0,35.8c0,38.4,0,76.7,0,115.1c0,15.4,0,30.8,0,46.1c0,7.5-0.3,15.1,0.2,22.7     c2.2,34.6,19.3,64.7,47.1,85.1c21.6,15.8,47.1,20.1,73.2,20.1c7.1,0,14.2,0,21.3,0c-8.2-8.2-16.3-16.3-24.5-24.5     c0,34.3,0,68.7,0,103c0,4.9,0,9.7,0,14.6c0,9.8,6.2,18.6,15.1,22.4c9.3,3.9,19.3,1.6,26.8-5.1c14.7-13.2,29.4-26.5,44.2-39.7     c23.5-21.1,46.9-42.2,70.4-63.4c5.4-4.8,10.8-9.7,16.2-14.5c-5.8,2.4-11.5,4.8-17.3,7.2c28.3,0,56.5,0,84.8,0c4.1,0,8.2,0,12.3,0     c13.2,0,24.5-11.2,24.5-24.5c0-46.6,0-93.1,0-139.7c0-6.2-0.2-12.5,0.1-18.7c0.1-1.4,0.2-2.8,0.3-4.1c0.3-4.9-0.9,5.1-0.3,1.8     c0.4-2.4,0.8-4.9,1.4-7.3c0.6-2.6,1.4-5.2,2.2-7.7c0.4-1.2,1.2-2.5,1.4-3.7c-0.5,1.1-1,2.3-1.5,3.4c0.3-0.8,0.7-1.6,1.1-2.4     c2.2-4.8,5-9.2,7.9-13.5c0.9-1.4,2.8-2.9-1.5,1.8c0.9-1,1.6-2,2.5-3c2-2.3,4.1-4.5,6.3-6.6c1.6-1.5,3.2-2.9,4.9-4.3     c3.7-3.2-4.9,3.4-0.8,0.7c1.1-0.7,2.1-1.5,3.2-2.2c2.2-1.4,4.5-2.7,6.8-4c0.8-0.4,1.6-0.8,2.3-1.2c0.8-0.4,1.6-0.8,2.4-1.1     c2.3-1,1.6-0.7-2.2,0.9c4.7-1.1,9.2-3.2,14-4.2c1.3-0.3,2.7-0.5,4-0.7c5-0.9-6.2,0.5-1.1,0.2c2.8-0.2,5.5-0.4,8.3-0.4     c7.8-0.1,15.6,0,23.4,0c26.2,0,52.4,0,78.6,0c13.2,0,24.5-11.2,24.5-24.5c0-21.8,0-43.6,0-65.4c0-12.8-11.3-25.1-24.5-24.5     C596.3,244,585.1,254.2,585.1,267.9z"></path></g></g><g><g><path d="M334.1,382.3c-0.1,2.7,0,1.8,0.4-2.6c-0.6,1.8-0.5,1.6,0.3-0.5c1-2.1,1-2.3,0.1-0.7     c2.7-3.2,3.1-3.9,1.4-2.1c1-0.8,2-1.5,3-2.3c-2.2,1.2-1.4,1,2.5-0.8c-4.6,1.2,6.3-0.2,1.4,0c-4.8,0.1,5.6,1.2,1.4,0     c3.8,1.8,4.7,2,2.5,0.8c3,2.5,3.9,3.2,2.5,1.8c-1.3-1.3-0.7-0.5,1.8,2.5c-1.2-2.2-1-1.4,0.8,2.5c-1.2-4.2-0.1,6.2,0,1.4     c0.1-4.9-1.2,6,0,1.4c-1.8,3.8-2,4.7-0.8,2.5c-0.8,1-1.5,2-2.3,3c1.8-1.7,1.1-1.3-2.1,1.4c1.7-0.9,1.4-0.9-0.7,0.1     c-2.2,0.8-2.4,0.9-0.5,0.3c-4.4,0.4-5.3,0.5-2.6,0.4c4.5,0-5.8-1.3-1.4,0c-3.6-1.7-4.6-2.1-3-1.1c1.6,1,0.8,0.3-2.5-2     c3.3,3-2.6-4.7-0.8-1c-1.5-4-1.8-4.7-1.1-2.3C334.1,380.5,334,379.6,334.1,382.3c0.5,12.8,10.9,25.1,24.5,24.5     c12.8-0.6,25.1-10.8,24.5-24.5c-0.9-21.7-17.5-40-40-40c-21.7,0-40,18.3-40,40c0,21.7,18.3,40,40,40c22.4,0,39-18.3,40-40     c0.5-12.8-11.7-25.1-24.5-24.5C344.9,358.4,334.7,368.5,334.1,382.3z"></path></g></g><g><g><path d="M196,382.3c-0.1,2.7,0,1.8,0.4-2.6c-0.6,1.8-0.5,1.6,0.3-0.5c1-2.1,1-2.3,0.1-0.7     c2.7-3.2,3.1-3.9,1.4-2.1c1-0.8,2-1.5,3-2.3c-2.2,1.2-1.4,1,2.5-0.8c-4.6,1.2,6.3-0.2,1.4,0c-4.8,0.1,5.6,1.2,1.4,0     c3.8,1.8,4.7,2,2.5,0.8c3,2.5,3.9,3.2,2.5,1.8c-1.3-1.3-0.7-0.5,1.8,2.5c-1.2-2.2-1-1.4,0.8,2.5c-1.2-4.2-0.1,6.2,0,1.4     c0.1-4.9-1.2,6,0,1.4c-1.8,3.8-2,4.7-0.8,2.5c-0.8,1-1.5,2-2.3,3c1.8-1.7,1.1-1.3-2.1,1.4c1.7-0.9,1.4-0.9-0.7,0.1     c-2.2,0.8-2.4,0.9-0.5,0.3c-4.4,0.4-5.3,0.5-2.6,0.4c4.5,0-5.8-1.3-1.4,0c-3.6-1.7-4.6-2.1-3-1.1c1.6,1,0.8,0.3-2.5-2     c3.3,3-2.6-4.7-0.8-1c-1.5-4-1.8-4.7-1.1-2.3C196,380.5,195.9,379.6,196,382.3c0.5,12.8,10.9,25.1,24.5,24.5     c12.8-0.6,25.1-10.8,24.5-24.5c-0.9-21.7-17.5-40-40-40c-21.7,0-40,18.3-40,40c0,21.7,18.3,40,40,40c22.4,0,39-18.3,40-40     c0.5-12.8-11.7-25.1-24.5-24.5C206.8,358.4,196.6,368.5,196,382.3z"></path></g></g><path d="M919.7,329.4c-17.4-9.9-36.5-13.4-56.3-13.4H522.4c-8.1,0-16.4-0.5-24.4,0.4c-36.4,3.9-69.7,26.2-84.6,60.2   c-7.7,17.5-9.4,35.3-9.4,54.1v185.6c0,10.7-0.7,21.8,0.5,32.5c3.9,36.2,25.9,69.3,59.6,84.4c14,6.3,28.6,9.7,44,9.8   c3.8,0,7.6,0.1,11.5,0.1h180.5c12.8,11.5,25.6,23,38.4,34.5c23.5,21.1,46.9,42.2,70.4,63.3c5.4,4.8,10.8,9.7,16.2,14.5   c11,9.9,29.9,3.4,29.9-12.4V742.9c4.9,0,9.9,0,14.8-0.1c24.5-0.4,47.5-9.5,66.2-25.1c17.2-14.4,29.6-35.6,33.9-57.6   c1.8-9.3,2.1-18.5,2.1-27.9v-210c0.1-0.9,0.2-1.8,0.2-2.7C971.9,382.6,952,347.7,919.7,329.4z M838,567.9c-18.8,0-34-15.2-34-34   c0-18.8,15.2-34,34-34c18.8,0,34,15.2,34,34C872,552.7,856.8,567.9,838,567.9z M688,567.9c-18.8,0-34-15.2-34-34   c0-18.8,15.2-34,34-34c18.8,0,34,15.2,34,34C722,552.7,706.8,567.9,688,567.9z M538.1,567.9c-18.8,0-34-15.2-34-34   c0-18.8,15.2-34,34-34c18.8,0,34,15.2,34,34C572.1,552.7,556.8,567.9,538.1,567.9z"></path></g></svg>