<svg height='300px' width='300px'  fill="#7fc349" xmlns:dc="http://purl.org/dc/elements/1.1/" xmlns:cc="http://creativecommons.org/ns#" xmlns:rdf="http://www.w3.org/1999/02/22-rdf-syntax-ns#" xmlns:svg="http://www.w3.org/2000/svg" xmlns="http://www.w3.org/2000/svg" xmlns:sodipodi="http://sodipodi.sourceforge.net/DTD/sodipodi-0.dtd" xmlns:inkscape="http://www.inkscape.org/namespaces/inkscape" version="1.1" x="0px" y="0px" viewBox="0 0 100 100"><g transform="translate(0,-952.36218)"><path style="font-size:medium;font-style:normal;font-variant:normal;font-weight:normal;font-stretch:normal;text-indent:0;text-align:start;text-decoration:none;line-height:normal;letter-spacing:normal;word-spacing:normal;text-transform:none;direction:ltr;block-progression:tb;writing-mode:lr-tb;text-anchor:start;baseline-shift:baseline;opacity:1;color:#000000;fill:#7fc349;fill-opacity:1;stroke:none;stroke-width:4;marker:none;visibility:visible;display:inline;overflow:visible;enable-background:accumulate;font-family:Sans;-inkscape-font-specification:Sans" d="M 35.03125 11 C 30.060699 11 26 15.0607 26 20.03125 L 26 21 L 15 21 C 10.048595 21 6 25.04859 6 30 L 6 62 C 6 66.9514 10.048595 71 15 71 L 16 71 L 16 87 A 2.0002 2.0002 0 0 0 19.40625 88.40625 L 36.8125 71 L 67 71 C 69.26953 71 71.350258 70.14824 72.9375 68.75 L 80.59375 76.40625 A 2.0002 2.0002 0 0 0 84 75 L 84 59 L 84.96875 59 C 89.939301 59 94 54.93935 94 49.96875 L 94 20.03125 C 94 15.06071 89.939305 11 84.96875 11 L 35.03125 11 z M 35.03125 15 L 84.96875 15 C 87.798395 15 90 17.20161 90 20.03125 L 90 49.96875 C 90 52.79845 87.798399 55 84.96875 55 L 82 55 A 2.0002 2.0002 0 0 0 80 57 L 80 70.1875 L 75.28125 65.5 C 75.28497 65.49124 75.277557 65.477524 75.28125 65.46875 C 75.731155 64.399961 76 63.227771 76 62 L 76 30 C 76 25.04859 71.951405 21 67 21 L 30 21 L 30 20.03125 C 30 17.2016 32.201601 15 35.03125 15 z M 15 25 L 67 25 C 69.804593 25 72 27.19541 72 30 L 72 62 C 72 64.8046 69.804593 67 67 67 L 36 67 A 2.0002 2.0002 0 0 0 34.59375 67.59375 L 20 82.1875 L 20 69 A 2.0002 2.0002 0 0 0 18 67 L 15 67 C 12.195407 67 10 64.8046 10 62 L 10 30 C 10 27.19541 12.195407 25 15 25 z M 41 32 C 36.053126 32 32 36.05313 32 41 C 32 42.47948 32.456197 43.805 33.09375 45.03125 C 29.045699 47.82652 26 52.4635 26 58 A 2.0001999 2.0001999 0 0 0 28 60 L 54 60 A 2.0001999 2.0001999 0 0 0 56 58 C 56 52.4635 52.954302 47.82652 48.90625 45.03125 C 49.543803 43.805 50 42.47948 50 41 C 50 36.05313 45.946874 32 41 32 z M 41 36 C 43.78511 36 46 38.21489 46 41 C 46 42.2662 45.537909 43.38424 44.75 44.28125 A 2.0001999 2.0001999 0 0 0 45.34375 47.375 C 48.450828 48.95452 50.972448 52.1977 51.6875 56 L 30.3125 56 C 31.027552 52.1977 33.549175 48.95452 36.65625 47.375 A 2.0001999 2.0001999 0 0 0 37.25 44.28125 C 36.462091 43.38424 36 42.2662 36 41 C 36 38.21489 38.21489 36 41 36 z " transform="translate(0,952.36218)"></path></g></svg>