<?xml version="1.0" encoding="UTF-8"?>
<svg width="752pt" height="752pt" version="1.1" viewBox="0 0 752 752" xmlns="http://www.w3.org/2000/svg">
 <defs>
  <clipPath id="a">
   <path d="m139.21 218h473.58v316h-473.58z"/>
  </clipPath>
 </defs>
 <g clip-path="url(#a)">
  <path d="m261.2 533.86h-114.81c-3.9648 0-7.1758-3.2148-7.1758-7.1758v-114.81c0-3.9648 3.2109-7.1758 7.1758-7.1758h114.81c3.9609 0 7.1758 3.2109 7.1758 7.1758v114.81c0 3.9609-3.2148 7.1758-7.1758 7.1758zm-7.1758-114.81h-100.46v100.46h100.46zm7.1758-71.754h-114.81c-3.9648 0-7.1758-3.2148-7.1758-7.1758v-114.81c0-3.9609 3.2109-7.1758 7.1758-7.1758h114.81c3.9609 0 7.1758 3.2148 7.1758 7.1758v114.81c0 3.9609-3.2148 7.1758-7.1758 7.1758zm-7.1758-14.352v-100.46h-100.46v100.46zm78.93-43.055c-3.9648 0-7.1758-3.2109-7.1758-7.1758 0-3.9609 3.2109-7.1758 7.1758-7.1758h272.67c3.9609 0 7.1758 3.2148 7.1758 7.1758 0 3.9648-3.2148 7.1758-7.1758 7.1758zm0 186.56c-3.9648 0-7.1758-3.2109-7.1758-7.1758 0-3.9609 3.2109-7.1758 7.1758-7.1758h200.91c3.9609 0 7.1758 3.2148 7.1758 7.1758 0 3.9648-3.2148 7.1758-7.1758 7.1758zm-145.61-198.81 9.2773 9.2734 23.629-23.625c2.8047-2.8047 7.3477-2.8047 10.148 0 2.8008 2.8008 2.8008 7.3438 0 10.145l-28.703 28.703c-2.8008 2.8047-7.3438 2.8047-10.148 0l-14.348-14.352c-2.8047-2.8008-2.8047-7.3438 0-10.145 2.8008-2.8047 7.3438-2.8047 10.145 0z" fill-rule="evenodd"/>
 </g>
</svg>
