<svg height='300px' width='300px'  fill="#000000" xmlns="http://www.w3.org/2000/svg" data-name="Camada 1" viewBox="0 0 100 100" x="0px" y="0px"><title>Client Management</title><path d="M49.67,60.88A19.75,19.75,0,1,1,69.42,41.13,19.77,19.77,0,0,1,49.67,60.88Zm0-33.5A13.75,13.75,0,1,0,63.42,41.13,13.77,13.77,0,0,0,49.67,27.38Z"></path><path d="M78.25,73.64a32.2,32.2,0,0,1-3.52,5,60.43,60.43,0,0,0-50.12,0,33,33,0,0,1-3.53-5A66.43,66.43,0,0,1,78.25,73.64Z"></path><polygon points="25 0 5.67 0 -0.33 0 -0.33 6 -0.33 25.33 5.67 25.33 5.67 6 25 6 25 0"></polygon><polygon points="74.33 0 93.67 0 99.67 0 99.67 6 99.67 25.33 93.67 25.33 93.67 6 74.33 6 74.33 0"></polygon><polygon points="25.67 100 6.33 100 0.33 100 0.33 94 0.33 74.67 6.33 74.67 6.33 94 25.67 94 25.67 100"></polygon><polygon points="75 100 94.33 100 100.33 100 100.33 94 100.33 74.67 94.33 74.67 94.33 94 75 94 75 100"></polygon></svg>