<svg height='300px' width='300px'  fill="#000000" xmlns="http://www.w3.org/2000/svg" xmlns:xlink="http://www.w3.org/1999/xlink" xml:space="preserve" version="1.1" style="shape-rendering:geometricPrecision;text-rendering:geometricPrecision;image-rendering:optimizeQuality;" viewBox="0 0 333 333" x="0px" y="0px" fill-rule="evenodd" clip-rule="evenodd"><defs><style type="text/css">
   
    .str1 {stroke:black;stroke-width:6.94488}
    .str0 {stroke:black;stroke-width:6.94488;stroke-linecap:round;stroke-linejoin:round}
    .fil0 {fill:none}
    .fil1 {fill:#000000}
   
  </style></defs><g><polygon class="fil0 str0" points="164,50 163,288 58,274 56,78 "></polygon><path class="fil0 str0" d="M178 14l60 20c0,0 9,13 18,34l-46 -7c-5,0 -10,3 -10,8l0 0c0,6 5,10 10,11l53 8c1,4 2,9 3,14l-56 -8c-5,-1 -10,3 -10,8l0 0c0,5 5,10 10,10l60 9c1,5 1,10 2,15l-62 -9c-5,-1 -9,3 -9,8l0 0c0,5 4,10 9,10l62 10c0,4 0,8 0,12l-62 -6c-5,-1 -9,3 -10,8l0 0c0,5 4,10 9,10l61 7c-1,4 -2,9 -3,13l-57 -4c-5,0 -10,4 -10,9l0 0c0,5 4,10 9,10l54 3c-2,5 -3,10 -5,14l-49 0c-5,0 -9,4 -9,10l0 0c-1,5 3,9 9,9l41 0c-3,8 -7,16 -12,24l-60 12 0 -272z"></path><rect class="fil1" transform="matrix(1.1299 -0.271175 -0 1.1299 70.9695 109.12)" width="67.2756" height="11.2874"></rect><rect class="fil1" transform="matrix(1.1299 -0.250411 -0 1.1299 70.94 141.829)" width="67.2756" height="11.2874"></rect><rect class="fil1" transform="matrix(1.1299 -0.182093 -0 1.1299 70.9801 172.214)" width="67.2756" height="11.2874"></rect><rect class="fil1" transform="matrix(1.1299 -0.0659216 -0 1.1299 70.9186 203.1)" width="67.2756" height="11.2874"></rect><rect class="fil1" transform="matrix(1.1299 0.000814652 -0 1.1299 70.9596 229.523)" width="67.2756" height="11.2874"></rect><line class="fil0 str1" x1="-248" y1="-227" x2="-249" y2="-202"></line><path class="fil0 str1" d="M-238 -239c0,0 0,0 0,0 0,7 -5,12 -11,12 -6,0 -10,-5 -10,-12 0,0 0,0 0,0 -3,-2 -5,-6 -5,-11 0,-4 1,-8 4,-10 1,-8 5,-14 11,-14 6,0 11,6 12,14 3,2 5,6 5,10 0,5 -3,9 -6,11z"></path></g></svg>