<svg height='300px' width='300px'  fill="#000000" xmlns="http://www.w3.org/2000/svg" xmlns:xlink="http://www.w3.org/1999/xlink" xml:space="preserve" version="1.1" style="shape-rendering:geometricPrecision;text-rendering:geometricPrecision;image-rendering:optimizeQuality;" viewBox="0 0 333 333" x="0px" y="0px" fill-rule="evenodd" clip-rule="evenodd"><defs><style type="text/css">
   
    .str0 {stroke:black;stroke-width:3.33071;stroke-linecap:round;stroke-linejoin:round}
    .fil0 {fill:none}
   
  </style></defs><g><path class="fil0 str0" d="M105 32l143 0c13,0 24,11 24,24l0 217c0,20 -16,37 -36,37l-21 0 0 -72 -30 0 0 72 -13 0 0 -72 -30 0 0 72 -24 0c-20,0 -37,-17 -37,-37l0 -217c0,-13 11,-24 24,-24z"></path><rect class="fil0 str0" x="95" y="61" width="44.8457" height="40.8151"></rect><rect class="fil0 str0" x="154" y="61" width="44.8457" height="40.8151"></rect><rect class="fil0 str0" x="214" y="61" width="44.8457" height="40.8151"></rect><rect class="fil0 str0" x="95" y="118" width="44.8457" height="40.8151"></rect><rect class="fil0 str0" x="154" y="118" width="44.8457" height="40.8151"></rect><rect class="fil0 str0" x="214" y="118" width="44.8457" height="40.8151"></rect><rect class="fil0 str0" x="95" y="178" width="44.8457" height="40.8151"></rect><rect class="fil0 str0" x="154" y="178" width="44.8457" height="40.8151"></rect><rect class="fil0 str0" x="214" y="178" width="44.8457" height="40.8151"></rect><polygon class="fil0 str0" points="246,-402 253,-396 323,-467 443,-395 449,-405 323,-480 294,-451 294,-472 282,-472 282,-439 "></polygon><polygon class="fil0 str0" points="267,-334 268,-397 324,-452 419,-396 419,-334 341,-334 341,-396 303,-397 303,-334 "></polygon><rect class="fil0 str0" x="360" y="-393" width="37.9103" height="29.6895"></rect><rect class="fil0 str0" x="630" y="-359" width="176.043" height="26.0394" rx="7" ry="7"></rect><rect class="fil0 str0" x="631" y="-435" width="115.63" height="67.189" rx="18" ry="18"></rect><rect class="fil0 str0" x="642" y="-422" width="26.0472" height="26.0472"></rect><rect class="fil0 str0" x="675" y="-422" width="26.0472" height="26.0472"></rect><rect class="fil0 str0" x="709" y="-422" width="26.0472" height="26.0472"></rect><polygon class="fil0 str0" points="759,-477 753,-368 795,-368 788,-477 "></polygon><line class="fil0 str0" x1="758" y1="-458" x2="789" y2="-458"></line><line class="fil0 str0" x1="757" y1="-433" x2="791" y2="-433"></line><line class="fil0 str0" x1="756" y1="-411" x2="792" y2="-410"></line><line class="fil0 str0" x1="754" y1="-389" x2="795" y2="-389"></line></g></svg>