<svg height='300px' width='300px'  fill="#000000" xmlns="http://www.w3.org/2000/svg" xmlns:xlink="http://www.w3.org/1999/xlink" version="1.1" x="0px" y="0px" viewBox="0 0 100 100" enable-background="new 0 0 100 100" xml:space="preserve"><g><path fill-rule="evenodd" clip-rule="evenodd" d="M77.274,23.88c-3.491-3.973-6.972-7.957-10.455-11.938   c-0.052-0.059-0.085-0.134-0.126-0.201c-9.87,0-19.74,0-29.61,0c-0.5,0.14-1.004,0.27-1.5,0.421   c-3.734,1.139-6.683,4.518-6.656,8.583c0.001,0.11-0.025,0.22-0.058,0.49c-0.722,0-1.458,0.015-2.195-0.002   c-5.318-0.125-8.874,4.052-9.465,8.023c-0.082,0.545-0.101,1.104-0.101,1.656c-0.005,15.551-0.007,31.104-0.002,46.655   c0,5.423,4.336,9.763,9.761,9.766c11.643,0.006,23.286,0.008,34.929-0.001c4.649-0.004,8.545-2.978,9.457-7.217   c0.15-0.695,0.166-1.421,0.26-2.288c1.074,0,2.157,0.1,3.215-0.019c4.322-0.482,7.958-4.156,8.459-8.461   c0.027-0.241,0.094-0.477,0.142-0.716c0-12.644,0-25.286,0-37.928C81.31,28.43,79.281,26.164,77.274,23.88z M66.718,16.552   c3.98,4.769,7.826,9.377,11.802,14.142c-2.541,0-4.869,0.08-7.186-0.048c-0.688-0.038-1.474-0.523-1.99-1.032   c-1.551-1.522-2.454-3.459-2.59-5.606C66.601,21.613,66.718,19.202,66.718,16.552z M63.34,82.414   c-0.502,0.133-1.038,0.188-1.559,0.188c-11.67,0.01-23.34,0.011-35.01,0.007c-2.783-0.002-4.961-2.162-4.962-4.948   c-0.008-15.606-0.009-31.213,0-46.819c0.001-2.791,1.918-4.735,4.722-4.836c0.746-0.028,1.493-0.004,2.384-0.004   c0,0.334,0,0.66,0,0.985c0,13.638,0.09,27.277-0.047,40.914c-0.05,5.044,4.333,10.122,10.095,10.037   c8.869-0.131,17.741-0.053,26.61-0.063c0.353,0,0.705,0,1.041,0C66.91,79.887,65.48,81.846,63.34,82.414z M73.262,73.192   c-11.477-0.098-22.953-0.091-34.429-0.005c-2.92,0.022-5.254-2.439-5.244-5.23c0.056-15.467,0.024-30.935,0.027-46.403   c0.001-2.903,2.126-5.088,5.007-5.095c7.54-0.018,15.08-0.006,22.62-0.004c0.216,0,0.431,0.032,0.751,0.057   c0,3.167-0.031,6.243,0.007,9.318c0.055,4.398,3.058,8.186,7.329,9.255c0.743,0.186,1.531,0.252,2.301,0.264   c2.266,0.034,4.531,0.012,6.884,0.012c0,0.374,0,0.669,0,0.966c0,10.533-0.056,21.069,0.038,31.601   C78.576,70.679,76.258,73.218,73.262,73.192z"></path><path fill-rule="evenodd" clip-rule="evenodd" d="M66.652,44.859c-7.064-0.016-14.129-0.014-21.194,0   c-1.035,0.002-1.802,0.521-2.202,1.487c-0.668,1.619,0.507,3.209,2.405,3.221c3.463,0.022,6.926,0.005,10.389,0.005   c3.518-0.001,7.037,0.015,10.556-0.009c1.48-0.01,2.452-0.993,2.443-2.364C69.043,45.878,68.052,44.862,66.652,44.859z"></path><path fill-rule="evenodd" clip-rule="evenodd" d="M66.496,56.662c-1.607-0.009-3.214-0.002-4.82-0.002   c-5.319,0-10.639,0.007-15.958-0.006c-1.103-0.002-1.955,0.393-2.426,1.408c-0.738,1.592,0.419,3.283,2.277,3.298   c3.49,0.022,6.981,0.006,10.472,0.006c3.49,0.001,6.98,0.01,10.471-0.003c1.549-0.006,2.541-0.948,2.538-2.352   C69.047,57.621,68.022,56.671,66.496,56.662z"></path></g></svg>