<?xml version="1.0" encoding="utf-8"?>
<!-- Generator: Adobe Illustrator 26.1.0, SVG Export Plug-In . SVG Version: 6.00 Build 0)  -->
<svg version="1.1" id="Layer_1" xmlns="http://www.w3.org/2000/svg" xmlns:xlink="http://www.w3.org/1999/xlink" x="0px" y="0px"
	 viewBox="0 0 300 300" style="enable-background:new 0 0 300 300;" xml:space="preserve">
<style type="text/css">
</style>
<path class="st0" d="M149.3,272.8c6.4,0,11.2-4.9,11.2-11.2V161.5h100.1c6.4,0.4,11.5-4.2,12.1-10.4c0.6-6.2-4.2-11.5-10.4-12.1
	c-0.4,0-1.1-0.2-1.7,0H160.6V38.8c0.2-6.2-4.7-11.5-10.8-11.7c-6.2-0.2-11.5,4.7-11.7,10.8c0,0.4,0,0.4,0,0.8l0,100.1L38,139
	c-6.2,0.2-11,5.5-10.8,11.7c0.2,5.7,5.1,10.6,10.8,10.8h100.1v100.1C138.3,267.7,143.2,272.6,149.3,272.8z"/>
</svg>
