<?xml version="1.0" encoding="utf-8"?>
<!-- Generator: Adobe Illustrator 26.1.0, SVG Export Plug-In . SVG Version: 6.00 Build 0)  -->
<svg version="1.1" id="Layer_1" xmlns="http://www.w3.org/2000/svg" xmlns:xlink="http://www.w3.org/1999/xlink" x="0px" y="0px"
	 viewBox="0 0 752 752" style="enable-background:new 0 0 752 752;" xml:space="preserve">
<path d="M353.9,376V155.1c0-12.2,9.9-22.1,22.1-22.1c12.2,0,22.1,9.9,22.1,22.1v198.8h132.6c12.2,0,22.1,9.9,22.1,22.1
	c0,12.2-9.9,22.1-22.1,22.1l-154.7,0C363.8,398.1,353.9,388.2,353.9,376L353.9,376z M376,22.5c-12.2,0-22.1,9.9-22.1,22.1
	c0,12.2,9.9,22.1,22.1,22.1c170.6,0,309.3,138.7,309.3,309.3c0,170.6-138.7,309.3-309.3,309.3S66.7,546.6,66.7,376
	c0-69.7,23.5-136.7,66.3-191v58.4c0,12.2,9.9,22.1,22.1,22.1c12.2,0,22.1-9.9,22.1-22.1V133c0-12.2-9.9-22.1-22.1-22.1l-110.5,0
	c-12.2,0-22.1,9.9-22.1,22.1c0,12.2,9.9,22.1,22.1,22.1h55.9c-50.3,62.6-78,140.1-78,220.9c0,194.9,158.6,353.5,353.5,353.5
	c194.9,0,353.5-158.6,353.5-353.5C729.5,181.1,570.9,22.5,376,22.5L376,22.5z"/>
</svg>
