<?xml version="1.0" encoding="utf-8"?>
<!-- Generator: Adobe Illustrator 23.0.1, SVG Export Plug-In . SVG Version: 6.00 Build 0)  -->
<svg version="1.2" baseProfile="tiny" id="Layer_1" xmlns="http://www.w3.org/2000/svg" xmlns:xlink="http://www.w3.org/1999/xlink"
	 x="0px" y="0px" viewBox="0 0 300 300" xml:space="preserve">
<g display="none">
	<rect x="-1863" y="-1011" display="inline" width="4164" height="4296"/>
</g>
<g>
	<path fill-rule="evenodd" d="M277,62.3c0-3.9-3.1-7-7-7h-95.3L75.2,231.4h91.2l-39.6-39.6c-0.3-0.3-0.5-0.7-0.5-1.2
		c0-0.4,0.2-0.9,0.5-1.2l29.9-29.9h-17.9c-0.9,0-1.7-0.7-1.7-1.7c0-0.9,0.7-1.7,1.7-1.7h0.8H160l21.1-21.1h-30.7
		c-0.3,0-0.5-0.1-0.7-0.2c-0.6-0.3-1-0.8-1-1.5c0-0.9,0.7-1.7,1.7-1.7h34l4-4c0.7-0.7,1.7-0.7,2.4,0l4,4h48c0.9,0,1.7,0.7,1.7,1.7
		v24.4c0,0.9-0.7,1.7-1.7,1.7h-20.2l19,19l1-1c0.6-0.6,1.5-1,2.4-1c0.9,0,1.7,0.4,2.4,1c10.2,10.2,10.2,26.7,0,36.9
		c-1.6,1.6-2.5,3.8-2.5,6.1c0,2.3,0.9,4.5,2.5,6.1l4.7,4.7H270c3.9,0,7-3.1,7-7V62.3z M242.5,231.5c-2.9-2.9-4.5-6.7-4.5-10.8
		c0-4.1,1.6-7.9,4.5-10.8c6.8-6.8,7.5-17.4,2.2-24.9l-60.6,60.6c3.3,2.3,7.1,3.5,11.2,3.5c5.2,0,10.1-2,13.8-5.7
		c2.9-2.9,6.7-4.5,10.8-4.5c4.1,0,7.9,1.6,10.8,4.5l23.9,23.9c1.6,1.6,3.7,2.4,5.9,2.4c2.2,0,4.3-0.9,5.9-2.4
		c1.6-1.6,2.4-3.7,2.4-5.9c0-2.2-0.9-4.3-2.4-5.9L242.5,231.5z M181.1,241.4l59.3-59.3l-5.8-5.8l-59.3,59.3L181.1,241.4z
		 M219.2,156.2h21.9V135h-43L219.2,156.2z M232.2,173.9l-42.6-42.6l-4.9,4.9l36.5,36.5c0.6,0.7,0.6,1.7,0,2.4
		c-0.3,0.3-0.8,0.5-1.2,0.5c-0.4,0-0.9-0.2-1.2-0.5l-36.5-36.5l-7.1,7.1l22.3,22.3c0.7,0.7,0.7,1.7,0,2.4c-0.3,0.3-0.8,0.5-1.2,0.5
		c-0.4,0-0.9-0.2-1.2-0.5L172.9,148l-7.1,7.1l28.4,28.4c0.7,0.7,0.7,1.7,0,2.4c-0.3,0.3-0.8,0.5-1.2,0.5c-0.4,0-0.9-0.2-1.2-0.5
		l-28.4-28.4l-7.1,7.1l31.9,31.9c0.7,0.7,0.7,1.7,0,2.4c-0.3,0.3-0.8,0.5-1.2,0.5s-0.9-0.2-1.2-0.5l-31.9-31.9l-7.1,7.1l21.7,21.7
		c0.6,0.7,0.6,1.7,0,2.4c-0.3,0.3-0.8,0.5-1.2,0.5c-0.4,0-0.9-0.2-1.2-0.5l-21.7-21.7l-7.1,7.1l24.6,24.6c0.7,0.6,0.7,1.7,0,2.4
		c-0.3,0.3-0.8,0.5-1.2,0.5s-0.9-0.2-1.2-0.5l-24.6-24.6l-4.9,4.9l42.6,42.6L232.2,173.9z M87.8,202.4h-32v-24.4h45.8l12.6-22.4
		H55.8v-24.4H128l12.6-22.4H56.6V84.3h97.9l16.4-29H28.8c-3.9,0-7,3.1-7,7v162.1c0,3.9,3.1,7,7,7h42.6L87.8,202.4z M283.7,62.3
		v162.1c0,7.5-6.1,13.7-13.7,13.7h-11.4l12.5,12.6c2.8,2.8,4.4,6.6,4.4,10.6c0,4-1.6,7.8-4.4,10.6c-2.8,2.8-6.6,4.4-10.6,4.4
		c-4,0-7.8-1.6-10.6-4.4L226,248c-1.6-1.6-3.8-2.5-6.1-2.5c-2.3,0-4.5,0.9-6.1,2.5c-4.9,4.9-11.5,7.6-18.5,7.6
		c-7,0-13.5-2.7-18.5-7.6c-0.6-0.6-1-1.5-1-2.4c0-0.9,0.4-1.7,1-2.4l0.7-0.7l-4.5-4.5H71.5L58,261.8c-0.3,0.5-0.9,0.8-1.5,0.8
		c-0.3,0-0.6-0.1-0.8-0.2c-0.8-0.5-1.1-1.5-0.6-2.3l12.5-22.1H28.8c-7.5,0-13.7-6.1-13.7-13.7V62.3c0-7.5,6.1-13.7,13.7-13.7h145.8
		l13.6-24c0.5-0.8,1.5-1.1,2.3-0.6c0.8,0.5,1.1,1.5,0.6,2.3l-12.6,22.4H270C277.5,48.6,283.7,54.8,283.7,62.3L283.7,62.3z
		 M246.1,84.3v24.4c0,0.9-0.7,1.7-1.7,1.7h-84.8c-0.9,0-1.7-0.7-1.7-1.7c0-0.9,0.7-1.7,1.7-1.7h0.8h82.3V86h-71.4
		c-0.3,0-0.5-0.1-0.7-0.2c-0.6-0.3-1-0.8-1-1.5c0-0.9,0.7-1.7,1.7-1.7h73.1C245.4,82.7,246.1,83.4,246.1,84.3L246.1,84.3z"/>
</g>
</svg>
