<?xml version="1.0" encoding="utf-8"?>
<!-- Generator: Adobe Illustrator 26.1.0, SVG Export Plug-In . SVG Version: 6.00 Build 0)  -->
<svg version="1.1" id="Layer_1" xmlns="http://www.w3.org/2000/svg" xmlns:xlink="http://www.w3.org/1999/xlink" x="0px" y="0px"
	 viewBox="0 0 752 752" style="enable-background:new 0 0 752 752;" xml:space="preserve">
<style type="text/css">
	.st0{clip-path:url(#SVGID_00000032643827456877064270000011709460541791554737_);}
	.st1{fill-rule:evenodd;clip-rule:evenodd;}
</style>
<g>
	<defs>
		<rect id="SVGID_1_" x="139.2" y="275" width="473.6" height="202"/>
	</defs>
	<clipPath id="SVGID_00000110438870518575075170000002981069291842160309_">
		<use xlink:href="#SVGID_1_"  style="overflow:visible;"/>
	</clipPath>
	<g style="clip-path:url(#SVGID_00000110438870518575075170000002981069291842160309_);">
		<path class="st1" d="M139.2,311.5c0-19.8,16.1-35.9,35.9-35.9h401.8c19.8,0,35.9,16.1,35.9,35.9v129.1c0,19.8-16.1,35.9-35.9,35.9
			H175.1c-19.8,0-35.9-16.1-35.9-35.9L139.2,311.5z M153.6,311.5v129.1c0,11.9,9.6,21.6,21.6,21.6h401.8c11.9,0,21.6-9.7,21.6-21.6
			V311.5c0-11.9-9.6-21.6-21.6-21.6H175.1C163.2,289.9,153.6,299.6,153.6,311.5L153.6,311.5z"/>
	</g>
</g>
<path d="M544.4,316.5h-7.6v-5.4c0-3.5-2.8-6.3-6.3-6.3c-3.5,0-6.3,2.8-6.3,6.3v5.4l-46.8,0v-5.4c0-3.5-2.8-6.3-6.3-6.3
	c-3.5,0-6.3,2.8-6.3,6.3v5.4l-7.6,0c-6.2,0-12.1,2.4-16.4,6.8c-4.4,4.4-6.8,10.3-6.8,16.4v77.9c0,6.2,2.4,12.1,6.8,16.4
	c4.4,4.4,10.3,6.8,16.4,6.8h87.4c6.2,0,12.1-2.4,16.4-6.8c4.4-4.4,6.8-10.3,6.8-16.4v-77.9c0-6.2-2.4-12.1-6.8-16.4
	C556.5,319,550.6,316.5,544.4,316.5L544.4,316.5z M457.1,329.2h7.6v9.6c0,3.5,2.8,6.3,6.3,6.3c3.5,0,6.3-2.8,6.3-6.3v-9.6h46.8v9.6
	c0,3.5,2.8,6.3,6.3,6.3c3.5,0,6.3-2.8,6.3-6.3v-9.6h7.6c2.8,0,5.5,1.1,7.5,3.1c2,2,3.1,4.7,3.1,7.5V359l-108.5,0v-19.2v0
	c0-2.8,1.1-5.5,3.1-7.5C451.6,330.3,454.2,329.2,457.1,329.2L457.1,329.2z M544.4,428.2H457c-2.8,0-5.5-1.1-7.5-3.1
	c-2-2-3.1-4.7-3.1-7.5v-46H555v46c0,2.8-1.1,5.5-3.1,7.5C549.9,427.1,547.2,428.2,544.4,428.2L544.4,428.2z"/>
</svg>
