<?xml version="1.0" encoding="UTF-8"?>
<svg width="752pt" height="752pt" version="1.1" viewBox="0 0 752 752" xmlns="http://www.w3.org/2000/svg">
 <path d="m376 167.62c-114.97 0-208.38 93.406-208.38 208.38 0 114.97 93.406 208.38 208.38 208.38 114.97 0 208.38-93.406 208.38-208.38 0-114.97-93.406-208.38-208.38-208.38zm0 18.945c104.73 0 189.43 84.699 189.43 189.43 0 104.73-84.699 189.43-189.43 189.43-104.73 0-189.43-84.699-189.43-189.43 0-104.73 84.699-189.43 189.43-189.43zm-86.277 94.566c-3.6875 0.35938-6.8281 2.8359-8.0391 6.3359-1.207 3.5-0.26562 7.3867 2.4141 9.9453l78.586 78.582-78.586 78.438c-1.8438 1.7539-2.9062 4.1758-2.9453 6.7188-0.039063 2.5469 0.94922 5 2.7383 6.8086s4.2305 2.8203 6.7734 2.8086c2.5469-0.007813 4.9805-1.043 6.7539-2.8672l78.582-78.586 78.586 78.586c1.7734 1.8242 4.207 2.8594 6.75 2.8672 2.5469 0.011718 4.9883-1 6.7773-2.8086 1.7891-1.8086 2.7734-4.2617 2.7344-6.8086-0.039062-2.543-1.0977-4.9648-2.9414-6.7188l-78.586-78.438 78.586-78.582c3.0156-2.832 3.8438-7.293 2.0469-11.02-1.793-3.7227-5.7969-5.8555-9.8906-5.2617-2.0859 0.30078-4.0156 1.293-5.4766 2.8125l-78.586 78.586-78.582-78.586c-2.0078-2.0547-4.8398-3.0898-7.6953-2.8125z" fill="#f44336"/>
</svg>
