<?xml version="1.0" encoding="utf-8"?>
<!-- Generator: Adobe Illustrator 26.2.1, SVG Export Plug-In . SVG Version: 6.00 Build 0)  -->
<svg version="1.1" id="Layer_1" xmlns="http://www.w3.org/2000/svg" xmlns:xlink="http://www.w3.org/1999/xlink" x="0px" y="0px"
	 viewBox="0 0 300 300" style="enable-background:new 0 0 300 300;" xml:space="preserve">
<style type="text/css">
	.st0{fill:#6E7479;}
</style>
<path class="st0" d="M227.4,72.6H72.6c-2.8,0-5.3,1.5-6.7,3.9c-1.4,2.4-1.4,5.3,0,7.7c1.4,2.4,3.9,3.9,6.7,3.9h7.7v162.5
	c0,2.1,0.8,4,2.3,5.5c1.5,1.4,3.4,2.3,5.5,2.3h123.8c2.1,0,4-0.8,5.5-2.3c1.4-1.5,2.3-3.4,2.3-5.5V88.1h7.7c2.8,0,5.3-1.5,6.7-3.9
	s1.4-5.3,0-7.7C232.7,74.1,230.1,72.6,227.4,72.6L227.4,72.6z M204.2,242.8H95.8V88.1h108.3V242.8z M103.6,49.4c0-2.1,0.8-4,2.3-5.5
	c1.5-1.5,3.4-2.3,5.5-2.3h77.4c2.8,0,5.3,1.5,6.7,3.9c1.4,2.4,1.4,5.3,0,7.7c-1.4,2.4-3.9,3.9-6.7,3.9h-77.4c-2.1,0-4-0.8-5.5-2.3
	C104.4,53.4,103.6,51.5,103.6,49.4L103.6,49.4z M142.3,204.2l0-77.4c0-2.8,1.5-5.3,3.9-6.7c2.4-1.4,5.3-1.4,7.7,0
	c2.4,1.4,3.9,3.9,3.9,6.7v77.4c0,2.8-1.5,5.3-3.9,6.7c-2.4,1.4-5.3,1.4-7.7,0C143.7,209.5,142.3,206.9,142.3,204.2L142.3,204.2z"/>
</svg>
