<?xml version="1.0" encoding="utf-8"?>
<!-- Generator: Adobe Illustrator 26.1.0, SVG Export Plug-In . SVG Version: 6.00 Build 0)  -->
<svg version="1.1" id="Layer_1" xmlns="http://www.w3.org/2000/svg" xmlns:xlink="http://www.w3.org/1999/xlink" x="0px" y="0px"
	 viewBox="0 0 920.3 515.1" style="enable-background:new 0 0 920.3 515.1;" xml:space="preserve">
<style type="text/css">
	.st0{fill:#E6E6E6;}
	.st1{fill:#FFFFFF;}
	.st2{fill:#2F2E41;}
	.st3{fill:#3F3D56;}
	.st4{fill:#CCCCCC;}
	.st5{fill:#FEB8B8;}
	.st6{fill:#D2D2D2;}
</style>
<path id="a935b196-91fc-4d65-bd04-49275a33d175-2863" class="st0" d="M193.7,513.1H53.1c0,0-2.9-41.8,14-42.3s15,18.5,36.1-7.6
	s46.8-24.7,50.1-9.3s-6.4,27.8,11.4,24S208.2,484.2,193.7,513.1z"/>
<path id="af9a6d89-7824-4af5-a475-6980c18ad0f3-2864" class="st1" d="M121,513.1l-0.5,0c1.1-27.5,6.9-45.2,11.5-55.2
	c5-10.8,9.9-15.2,9.9-15.3l0.3,0.4c0,0-4.8,4.4-9.8,15.2C127.8,468.1,122.1,485.7,121,513.1z"/>
<path id="ae138407-70d7-43ff-b006-9d3240c337f6-2865" class="st1" d="M171.9,513.2l-0.5-0.1c3.5-11.7,9.9-22.3,18.6-30.9l0.3,0.4
	C181.7,491.1,175.4,501.6,171.9,513.2z"/>
<path id="a7d931fe-d47e-4aa5-ae01-a0d26a3448cc-2866" class="st1" d="M75.2,513.2l-0.5-0.1c1.5-10.3-0.1-20.9-4.7-30.2
	c-1.9-3.9-4.3-7.6-7.3-10.7l0.3-0.3c3,3.2,5.5,6.9,7.4,10.8C75.1,492.1,76.8,502.7,75.2,513.2z"/>
<path id="b274f1e0-b558-44b1-a0b2-dcd77bbddb14-2867" class="st2" d="M212.8,513.8H37.9l0-0.6c-0.1-1.5-2.3-36.2,8.9-48.6
	c2.3-2.6,5.5-4.2,9-4.3c7.3-0.2,12,2.5,15.7,4.7c7,4.2,11.6,6.9,28.5-13.9c18.2-22.6,37.9-27.4,49.3-24.7
	c7.3,1.7,12.4,6.7,13.8,13.5c1.4,6.5,1,12.6,0.6,17.5c-0.4,5.2-0.7,9.4,1.5,11.3c1.8,1.6,5.4,1.7,11.3,0.4
	c12-2.6,28.7-0.4,37.2,10.5c4.5,5.8,8.1,16.5-0.6,33.9L212.8,513.8z M39.1,512.5H212c6.5-13.2,6.7-24.3,0.6-32.2
	c-7.7-10-23.9-12.6-35.9-10c-6.4,1.4-10.2,1.1-12.4-0.7c-2.6-2.3-2.3-6.7-1.9-12.3c0.4-4.8,0.8-10.8-0.6-17.1
	c-1.4-6.4-6.1-10.9-12.9-12.6c-11-2.6-30.1,2.2-48,24.3c-17.5,21.7-22.8,18.5-30.1,14.2c-3.8-2.2-8-4.8-15-4.6
	c-3.1,0.1-6.1,1.5-8.1,3.9C37.6,476.5,38.9,507.8,39.1,512.5L39.1,512.5z"/>
<path id="bca7d782-7e31-494e-97b0-f49b8df7894d-2868" class="st3" d="M784.1,514.5H611.8l0-1l-8.2-235.2h188.7L784.1,514.5z
	 M613.8,512.5h168.4l8.1-232.1H605.7L613.8,512.5z"/>
<g id="e7d5632f-8461-4dcf-9cd9-df8e3f64d5e2">
	<rect id="ad932c98-7027-4b28-8e73-a76d8a4136e0" x="639.8" y="321.9" class="st4" width="13.1" height="162.1"/>
	<rect id="ae1e5d8b-7977-4a56-a24c-fbb057f76b38" x="691.4" y="321.9" class="st4" width="13.1" height="162.1"/>
	<rect id="bffa0855-fc38-45cc-9e39-6daa1d3e4103" x="743" y="321.9" class="st4" width="13.1" height="162.1"/>
</g>
<path class="st3" d="M901.7,347.4l-0.8-0.5L687,211.7l18.6-29.4l0.8,0.5L920.3,318L901.7,347.4z M689.7,211l211.4,133.6l16.4-26
	L706.2,185.1L689.7,211z"/>
<path id="b31113e7-cae2-4653-b248-af5e4acb0a6c-2869" class="st4" d="M850.1,200.8c-17.9-11.4-41.7-6-53.1,11.9
	c-4.9,7.8-6.9,17-5.6,26.1l10.2,6.4c-6.6-15.4,0.5-33.2,15.9-39.9c15.4-6.6,33.2,0.5,39.9,15.9c6.6,15.4-0.5,33.2-15.9,39.9
	c-3.4,1.5-7.1,2.3-10.9,2.5l10.2,6.4c20.3-6.2,31.7-27.7,25.5-48.1C863.6,213.2,857.9,205.7,850.1,200.8L850.1,200.8z"/>
<rect id="bbfb7505-c422-4cd7-b125-b9dee40ff3b1" y="513.1" class="st3" width="909" height="2"/>
<g id="b91459ce-423d-4e92-a857-d0ba85dc07c7">
	<path id="bc369f15-2cd9-428d-9eec-3a8fd8cc1bba-2870" class="st5" d="M397,499.4h-14.6l-6.9-56.2H397L397,499.4z"/>
	<path id="fafca8b8-1a63-4513-a3fa-e64917847011-2871" class="st2" d="M354.4,513h45.8v-17.7h-28.3c-9.6,0-17.4,7.8-17.4,17.4l0,0
		l0,0L354.4,513z"/>
	<path id="a38ea43e-f1b1-406e-84c8-61e7480f01b4-2872" class="st5" d="M391.9,412.4l10,10.5l45.5-33.7l-14.8-15.6L391.9,412.4z"/>
	<path id="b5ba90e2-8a51-4a77-95c4-5b486c8770ec-2873" class="st2" d="M412.3,427.8l-19.5-20.5L380,419.5l31.6,33.1l0.2-0.2
		C418.7,445.8,419,434.7,412.3,427.8L412.3,427.8L412.3,427.8z"/>
	<path id="b1536285-e66e-494f-8c4f-a2304265e4c3-2874" class="st5" d="M290.5,258.5c-3.5-5.6-1.8-13,3.8-16.5
		c0.6-0.4,1.2-0.7,1.9-0.9l57.2-145.7l22.3,13.3l-63.5,139.8c2,6.3-1.4,13.1-7.7,15.1C299.2,265.4,293.4,263.2,290.5,258.5
		L290.5,258.5z"/>
	<path id="acd6249e-4699-4411-813c-091b3a750afe-2875" class="st5" d="M507.6,268.9c-6.6-0.5-11.5-6.2-11.1-12.8
		c0.1-0.7,0.2-1.4,0.3-2.1l-84.4-131.9l23.9-10.2l75.8,133.5c6.3,2,9.8,8.8,7.7,15.1C518.2,266,513.1,269.4,507.6,268.9L507.6,268.9
		z"/>
	<path id="ece4d731-f277-435f-bbc1-e3b70679d22f-2876" class="st2" d="M354,243.9l14.9,221.9l35.7-3.1l7.3-163.7l19.9,70.3l43,3.1
		l-17-139L354,243.9z"/>
	<path id="b91f5bf0-a8c5-41a2-a26e-8e2fd84207c6-2877" class="st2" d="M438.2,358.8l-6.3,10.5l-44.1,30.4l31.5,16.8
		c0,0,60.9-33.6,55.6-44.1L438.2,358.8z"/>
	<path id="b0b7866d-f3ba-460a-97cc-8103175b89de-2878" class="st4" d="M322.8,154.1l12.4-35c5.6-15.7,17.2-28.6,32.3-35.7l0,0
		c16.8-6.2,35.1-7.2,52.5-2.9l4.5,1.1c12.1,2.9,23.3,8.4,33.1,16c7.7,6,14.5,13.7,15.2,21.9c0,0,0,0,0,0.1
		c2.1,9.3,3.2,57.6,3.2,57.6h-18.7l3,65.1l-0.2-0.5c0,0-107.9,20.4-107.9,9.9v-67.2l-2.2-24.3L322.8,154.1z"/>
	<circle id="bd3b9138-8795-4826-98b2-48d72249760b" class="st5" cx="423.4" cy="41.6" r="29.9"/>
	<path id="e83e2647-99b5-4c80-ac3e-9e5d1f9bc81d-2879" class="st2" d="M427.9,28.2l23.2,0.9c2.9,0,6.1-0.1,8.3-2
		c3.3-2.8,2.8-8.2,1-12.2C455.4,3.7,444.3-0.3,432,0S407,4.5,400.4,14.8s-8.4,23.4-5.9,35.3c5.8-12.4,17.8-20.8,31.5-22L427.9,28.2z
		"/>
</g>
<g id="ff061cc6-72bd-494d-9c36-32e4a4020cd7">
	<path id="bc404282-8d4f-43f7-bc12-02f97785eba1-2880" class="st6" d="M565.7,320.5l-84-58.9c-1.6-1.1-2-3.4-0.9-5l65.9-94.1
		c1.1-1.6,3.4-2,5-0.9l84,58.9c1.6,1.1,2,3.4,0.9,5l-65.9,94.1C569.6,321.3,567.4,321.7,565.7,320.5z"/>
	<path id="ae4af9f3-88ec-4cab-9b9e-a4fc234f7062-2881" class="st1" d="M584.6,256.7l-49.3-34.5c-2.4-1.7-3-5-1.3-7.4s5-3,7.4-1.3
		c0,0,0,0,0,0l49.3,34.5c2.4,1.7,3,5,1.3,7.4C590.3,257.8,587,258.3,584.6,256.7L584.6,256.7z"/>
	<path id="fe48f3fd-992f-41c2-af3b-c30882e26a16-2882" class="st1" d="M573.3,272.8L524,238.3c-2.4-1.7-3-5-1.3-7.4s5-3,7.4-1.3
		c0,0,0,0,0,0l49.3,34.5c2.4,1.7,3,5,1.3,7.4C579,273.9,575.7,274.5,573.3,272.8z"/>
	<path id="e216638f-22ba-49ea-a46c-300c78c4e875-2883" class="st1" d="M561.9,289.1l-49.3-34.5c-2.4-1.7-3-5-1.3-7.4
		c1.7-2.4,5-3,7.4-1.3c0,0,0,0,0,0l49.3,34.5c2.4,1.7,3,5,1.3,7.4C567.6,290.2,564.3,290.8,561.9,289.1L561.9,289.1z"/>
	<path id="ee43e3d8-5f22-4b53-a964-043fec166479-2884" class="st1" d="M584.5,224.7l-19.1-13.4c-2.4-1.7-3-5-1.3-7.4s5-3,7.4-1.3
		c0,0,0,0,0,0l19.1,13.4c2.4,1.7,3,5,1.3,7.4C590.2,225.8,586.9,226.4,584.5,224.7z"/>
</g>
</svg>
