<?xml version="1.0" encoding="utf-8"?>
<!-- Generator: Adobe Illustrator 26.1.0, SVG Export Plug-In . SVG Version: 6.00 Build 0)  -->
<svg version="1.1" id="Layer_1" xmlns="http://www.w3.org/2000/svg" xmlns:xlink="http://www.w3.org/1999/xlink" x="0px" y="0px"
	 viewBox="0 0 752 752" style="enable-background:new 0 0 752 752;" xml:space="preserve">
<path d="M645.9,34.5c-6.4-4-14.3-4.3-21-1l-86.2,43.3c-47.9,24-105.2,24-153.1,0c-60-30.2-131.7-30.2-191.7,0L139,104.4V52.8
	c0-12-9.7-21.5-21.5-21.5c-11.9,0-21.5,9.6-21.5,21.5v646.4c0,12,9.7,21.5,21.5,21.5c11.9,0,21.5-9.6,21.5-21.5V475.9l74.3-37.3
	c47.9-24,105.2-24,153.1,0c60,30.2,131.7,30.2,191.7,0l86.2-43.3c7.2-3.7,11.9-11.1,11.9-19.3V52.8
	C656.1,45.4,652.2,38.4,645.9,34.5L645.9,34.5z M613,362.8L538.7,400c-47.9,24-105.2,24-153.1,0c-60-30.1-131.7-30.2-191.7,0
	L139,427.6V152.7l74.3-37.3c47.9-24,105.2-24,153.1,0c60,30.1,131.7,30.2,191.7,0L613,87.8V362.8z"/>
</svg>
