<?xml version="1.0" encoding="utf-8"?>
<!-- Generator: Adobe Illustrator 26.1.0, SVG Export Plug-In . SVG Version: 6.00 Build 0)  -->
<svg version="1.1" id="Layer_1" xmlns="http://www.w3.org/2000/svg" xmlns:xlink="http://www.w3.org/1999/xlink" x="0px" y="0px"
	 viewBox="0 0 752 752" style="enable-background:new 0 0 752 752;" xml:space="preserve">
<style type="text/css">
	.st0{fill:#666666;}
</style>
<path class="st0" d="M615.7,129h-247c-3.6,0-7.1,1.4-9.8,3.8l-167,152.5c-3,2.7-4.7,6.6-4.7,10.7v363.2c0,31.8,33.6,65.4,65.4,65.4
	h363.2c33,0,50.8-33.7,50.8-65.4V179.9C666.5,148.1,647.5,129.1,615.7,129L615.7,129z M347,183.1v69.4c0,14.6-6.9,36.3-21.8,36.3
	h-94L347,183.1z M637.5,659.3c0,14.6-6.9,36.3-21.8,36.3H252.5c-15.9,0-36.3-20.4-36.3-36.3V317.9h109c33,0,50.8-33.7,50.8-65.4
	v-94.4h239.7c15.9,0,21.8,5.9,21.8,21.8V659.3z M147.2,588.5c-16.5,0-32.7-15.3-32.7-30.9V216.2h109c33,0,50.8-33.7,50.8-65.4V56.4
	H514c14,0,29,8,29,25.4c0,8,6.5,14.5,14.5,14.5S572,89.8,572,81.8c0-31.1-25-54.5-58.1-54.5h-247c-3.6,0-7.1,1.4-9.8,3.8l-167,152.5
	c-3,2.8-4.7,6.6-4.7,10.7v363.2c0,31.4,29.4,59.9,61.7,59.9c8,0,14.5-6.5,14.5-14.5C161.7,595,155.2,588.5,147.2,588.5L147.2,588.5z
	 M245.3,81.5v69.4c0,14.6-6.9,36.3-21.8,36.3h-94L245.3,81.5z"/>
</svg>
