<?xml version="1.0" encoding="utf-8"?>
<!-- Generator: Adobe Illustrator 26.1.0, SVG Export Plug-In . SVG Version: 6.00 Build 0)  -->
<svg version="1.1" id="Layer_1" xmlns="http://www.w3.org/2000/svg" xmlns:xlink="http://www.w3.org/1999/xlink" x="0px" y="0px"
	 viewBox="0 0 752 752" style="enable-background:new 0 0 752 752;" xml:space="preserve">
<g>
	<path d="M598,318c-16.1,0-29.2,13.1-29.2,29.2v248.2c0,14-5.7,27.6-15.5,37.5c-10,10-23.3,15.5-37.5,15.5H185.4
		c-14,0-27.6-5.7-37.5-15.5c-10-10-15.5-23.3-15.5-37.5V190.9c0-14.2,5.5-27.5,15.5-37.5c10-10,23.3-15.5,37.5-15.5h198.9
		c16.1,0,29.2-13.1,29.2-29.2c0-16.1-13.1-29.2-29.2-29.2H185.4c-29.7,0-57.7,11.6-78.7,32.6c-21,21-32.6,49-32.6,78.7v404.4
		c0,29.7,11.6,57.7,32.6,78.7c21,21,49,32.6,78.7,32.6h330.4c29.7,0,57.7-11.6,78.7-32.6c21-21,32.6-49,32.6-78.7V347.1
		C627.2,331,614.1,318,598,318z"/>
	<path d="M658,73.9l0.3-0.1l-4.5-4.4c-15.7-15.5-36.5-24.1-58.6-24.1c-22.1,0-42.9,8.6-58.7,24.1L306.3,299.5c-3,3-5.4,6.7-6.8,10.8
		L259.3,427c-3.1,8.8-1.8,18.7,3.6,26.4c5.4,7.7,14.2,12.3,23.6,12.4l0.5,0l9-1.8l116.2-39.5l3-1v-0.3c2.9-1.4,5.5-3.3,7.7-5.5
		L653,187.6c15.7-15.4,24.8-36.9,25-58.9C678.1,108.4,671.1,89.2,658,73.9z M609.7,149L386.8,371.1L334,389.2l18.1-53.6L577.7,110
		l0.2-0.4c4.2-6.2,10.9-10.2,18.4-10.9c7.5-0.7,14.8,1.9,20.1,7.2c5.3,5.3,7.9,12.6,7.2,20.1c-0.7,7.5-4.7,14.2-10.9,18.4l-4.5,3.1
		L609.7,149z"/>
</g>
</svg>
