<svg height='300px' width='300px'  fill="#000000" xmlns="http://www.w3.org/2000/svg" data-name="Layer 1" viewBox="0 0 100 100" x="0px" y="0px"><title>collections_06</title><path d="M32.08,37.89a1,1,0,0,1,1-1h7.08a1,1,0,0,1,0,2H33.08A1,1,0,0,1,32.08,37.89ZM47.65,45a1,1,0,0,0-1-1H33.08a1,1,0,0,0,0,2H46.65A1,1,0,0,0,47.65,45ZM21.72,29.24a1,1,0,0,0-1-1H15.83a1,1,0,0,0,0,2h4.88A1,1,0,0,0,21.72,29.24Zm0.52-4.62a1,1,0,1,0,1.42-1.41L20.2,19.75a1,1,0,1,0-1.42,1.41Zm7.07-1.11a1,1,0,0,0,1-1v-4.9a1,1,0,0,0-2,0v4.9A1,1,0,0,0,29.3,23.51Zm46.63,29A1.55,1.55,0,0,1,74.39,54h-11a1.55,1.55,0,0,1-.73-2.91v-4a6.25,6.25,0,0,1,4.09-5.86,2.3,2.3,0,0,1,4.3,0,6.25,6.25,0,0,1,4.09,5.86v4A1.55,1.55,0,0,1,75.94,52.47ZM73.12,52s0-.06,0-0.09V47.07A4.25,4.25,0,0,0,69.95,43a1,1,0,0,1-.73-0.81c-0.07-.43-0.21-0.43-0.34-0.43s-0.27,0-.34.43a1,1,0,0,1-.73.81,4.25,4.25,0,0,0-3.17,4.11v4.85s0,0.06,0,.09h8.5ZM70.6,54.56a1,1,0,0,0-1,1,0.73,0.73,0,0,1-1.46,0,1,1,0,0,0-2,0,2.73,2.73,0,0,0,5.46,0A1,1,0,0,0,70.6,54.56ZM85.17,49A16.31,16.31,0,0,1,72.81,64.79v13a5.63,5.63,0,0,1-5.62,5.64H26.52a5.5,5.5,0,0,1-2.89-.8h0l-0.08,0a5.61,5.61,0,0,1-2.63-4.78V52.21a5.66,5.66,0,0,1,2-4.31,5.55,5.55,0,0,1,2.93-1.28V30.15a2.55,2.55,0,0,1,2.55-2.55h37a2.55,2.55,0,0,1,2.55,2.55v2.61c0.32,0,.64,0,1,0A16.31,16.31,0,0,1,85.17,49ZM27.81,50.45l19.45,13.7,8.27-5.82A16.26,16.26,0,0,1,65.91,33V30.15a0.55,0.55,0,0,0-.55-0.55h-37a0.55,0.55,0,0,0-.55.55v20.3Zm-2.42-1.71L25.81,49V48.63A3.6,3.6,0,0,0,25.39,48.75ZM24.1,80.46L45.52,65.38,23.66,50a3.67,3.67,0,0,0-.75,2.23V77.75A3.63,3.63,0,0,0,24.1,80.46ZM70.81,65.17a16.05,16.05,0,0,1-14-5.27L26.28,81.37l0.25,0H67.19a3.63,3.63,0,0,0,3.62-3.64V65.17ZM83.17,49A14.29,14.29,0,1,0,68.87,63.3,14.31,14.31,0,0,0,83.17,49Z"></path></svg>