<svg height='300px' width='300px'  fill="#000000" xmlns="http://www.w3.org/2000/svg" xmlns:xlink="http://www.w3.org/1999/xlink" version="1.1" x="0px" y="0px" viewBox="0 0 100 100" style="enable-background:new 0 0 100 100;" xml:space="preserve"><g><path d="M88.8,57.9c-0.1-0.2-0.3-0.4-0.5-0.5c-0.2-0.1-0.5-0.1-0.8,0l-2.1,0.9c-0.4-0.9-1-1.8-1.7-2.6l1.6-1.6c0.4-0.4,0.4-1,0-1.4   c-1.5-1.5-3.3-2.7-5.2-3.5c-0.2-0.1-0.5-0.1-0.8,0c-0.2,0.1-0.4,0.3-0.5,0.5l-0.9,2.1c-1-0.3-2-0.5-3-0.6v-2.3c0-0.6-0.4-1-1-1   c-2.1,0-4.2,0.4-6.2,1.2c-0.5,0.2-0.7,0.8-0.5,1.3l0.9,2.1c-0.9,0.5-1.8,1-2.5,1.7l-1.6-1.6c-0.2-0.2-0.4-0.3-0.7-0.3   c-0.3,0-0.5,0.1-0.7,0.3c-1.5,1.5-2.7,3.3-3.4,5.3c-0.2,0.5,0,1.1,0.5,1.3l2.1,0.9c-0.3,1-0.5,2-0.5,3h-2.2c-0.3,0-0.5,0.1-0.7,0.3   c-0.2,0.2-0.3,0.4-0.3,0.7c0,2.1,0.5,4.2,1.3,6.1c0.2,0.5,0.8,0.7,1.3,0.5l2.1-0.9c0.5,0.9,1,1.7,1.7,2.5l-1.6,1.6   c-0.2,0.2-0.3,0.4-0.3,0.7s0.1,0.5,0.3,0.7c1.5,1.5,3.2,2.6,5.2,3.4c0.5,0.2,1.1,0,1.3-0.5L70,76c0.9,0.3,1.9,0.5,2.9,0.6v2.3   c0,0.3,0.1,0.5,0.3,0.7s0.4,0.3,0.7,0.3c2.1,0,4.1-0.4,6.1-1.2c0.2-0.1,0.4-0.3,0.5-0.5c0.1-0.2,0.1-0.5,0-0.8l-0.9-2.1   c0.9-0.4,1.7-1,2.5-1.6l1.6,1.6c0.4,0.4,1,0.4,1.4,0c1.5-1.5,2.7-3.2,3.5-5.1c0.1-0.2,0.1-0.5,0-0.8c-0.1-0.2-0.3-0.4-0.5-0.5   L86,67.9c0.3-0.9,0.5-1.9,0.6-2.9h2.3c0.6,0,1-0.4,1-1v-0.2C89.9,61.8,89.5,59.8,88.8,57.9z M85.7,63c-0.5,0-1,0.4-1,1   c0,1.4-0.3,2.8-0.9,4.1c-0.1,0.2-0.1,0.5,0,0.8c0.1,0.2,0.3,0.4,0.5,0.5l2,0.8c-0.5,1-1.2,2-2,2.8l-1.5-1.5c-0.4-0.4-1-0.4-1.4,0   c-1,1-2.2,1.8-3.5,2.3c-0.2,0.1-0.4,0.3-0.5,0.5c-0.1,0.2-0.1,0.5,0,0.8l0.8,2c-1.1,0.4-2.2,0.6-3.4,0.7v-2.2c0-0.6-0.4-1-1-1   c-1.4,0-2.8-0.3-4.1-0.8c-0.1-0.1-0.3-0.1-0.4-0.1c-0.4,0-0.8,0.2-0.9,0.6l-0.8,2c-1-0.5-2-1.1-2.9-1.9l1.5-1.5   c0.2-0.2,0.3-0.4,0.3-0.7c0-0.3-0.1-0.5-0.3-0.7c-1-1-1.8-2.1-2.4-3.4c-0.2-0.5-0.8-0.7-1.3-0.5l-2,0.8c-0.4-1.1-0.6-2.2-0.7-3.4   h2.2c0.3,0,0.5-0.1,0.7-0.3c0.2-0.2,0.3-0.5,0.3-0.7l0-0.1c0-1.4,0.3-2.7,0.8-4c0.2-0.5,0-1.1-0.5-1.3l-2-0.8c0.5-1.1,1.2-2,1.9-3   l1.5,1.5c0.2,0.2,0.4,0.3,0.7,0.3c0,0,0,0,0,0c0.3,0,0.5-0.1,0.7-0.3c1-1,2.2-1.8,3.5-2.4c0.5-0.2,0.7-0.8,0.5-1.3l-0.8-2   c1.1-0.4,2.3-0.6,3.5-0.7V52c0,0.6,0.4,1,1,1c1.4,0,2.9,0.3,4.2,0.8c0.2,0.1,0.5,0.1,0.8,0c0.2-0.1,0.4-0.3,0.5-0.5l0.8-2   c1.1,0.5,2,1.2,2.9,2l-1.6,1.6c-0.4,0.4-0.4,1,0,1.4c1,1,1.8,2.2,2.3,3.6c0.1,0.2,0.3,0.4,0.5,0.6c0.2,0.1,0.5,0.1,0.8,0l2-0.8   c0.4,1.1,0.6,2.3,0.6,3.4H85.7z"></path><path d="M73.9,58.5c-2.9,0-5.3,2.4-5.3,5.3c0,2.9,2.4,5.3,5.3,5.3c2.9,0,5.3-2.4,5.3-5.3C79.2,60.9,76.8,58.5,73.9,58.5z    M73.9,67.1c-1.8,0-3.3-1.5-3.3-3.3s1.5-3.3,3.3-3.3s3.3,1.5,3.3,3.3S75.7,67.1,73.9,67.1z"></path><path d="M41.1,50.9l5.1,4.8l5.1-4.8l5.9,3.9l1.1-1.7l-5.5-3.6l27.6-26v23.1h2V20.2H10.1v52.3h46.4v-2H12.1V70L41.1,50.9z    M12.1,67.7V23.5l27.6,26L12.1,67.7z M13.6,22.2h65.3L46.3,53L13.6,22.2z"></path></g></svg>