<?xml version="1.0" encoding="utf-8"?>
<!-- Generator: Adobe Illustrator 26.2.1, SVG Export Plug-In . SVG Version: 6.00 Build 0)  -->
<svg version="1.1" id="Layer_1" xmlns="http://www.w3.org/2000/svg" xmlns:xlink="http://www.w3.org/1999/xlink" x="0px" y="0px"
	 viewBox="0 0 752 752" style="enable-background:new 0 0 752 752;" xml:space="preserve">
<path d="M685.1,66.9c-5.4-5.4-13.5-7.2-20.7-4.5L74,278.9c-6.3,2.4-11,7.7-12.4,14.3c-1.5,6.6,0.6,13.4,5.3,18.1l373.9,373.9
	c3.6,3.6,8.7,5.7,13.9,5.7c1.4,0,2.9-0.2,4.2-0.5c6.6-1.5,11.9-6.1,14.3-12.4L689.7,87.6C692.3,80.4,690.5,72.3,685.1,66.9
	L685.1,66.9z M594.1,130L267.7,456.4L116.5,305.1L594.1,130z M446.8,635.4L295.6,484.2L622,157.8L446.8,635.4z"/>
</svg>
