<?xml version="1.0" encoding="UTF-8"?>
<svg width="752pt" height="752pt" version="1.1" viewBox="0 0 752 752" xmlns="http://www.w3.org/2000/svg">
 <path d="m376 153.42c-122.82 0-222.58 99.766-222.58 222.58 0 122.82 99.766 222.59 222.58 222.59 122.82 0 222.59-99.766 222.59-222.59 0-122.82-99.766-222.58-222.59-222.58zm0 18.945c112.58 0 203.64 91.059 203.64 203.64 0 112.58-91.059 203.64-203.64 203.64-112.58 0-203.64-91.059-203.64-203.64 0-112.58 91.059-203.64 203.64-203.64zm0 47.355c-86.199 0-156.28 70.082-156.28 156.28 0 86.203 70.082 156.28 156.28 156.28 34.199 0 65.863-11.07 91.609-29.746 2.418-1.2773 4.168-3.543 4.793-6.207s0.066406-5.4688-1.5312-7.6914c-1.5977-2.2227-4.0742-3.6445-6.8008-3.9023-2.7227-0.25781-5.4258 0.67578-7.4141 2.5586-22.633 16.418-50.516 26.047-80.656 26.047-75.961 0-137.34-61.375-137.34-137.34 0-75.961 61.375-137.34 137.34-137.34 75.965 0 137.34 61.375 137.34 137.34 0 13.473-3.9961 24.066-10.359 31.227-6.3633 7.1641-15.141 11.398-27.527 11.398-21.035 0-37.887-16.852-37.887-37.887v-61.566c0.15234-2.6055-0.78125-5.1602-2.5703-7.0586-1.793-1.8984-4.2891-2.9766-6.9023-2.9766-2.6094 0-5.1055 1.0781-6.8984 2.9766-1.793 1.8984-2.7227 4.4531-2.5703 7.0586v9.0273c-11.004-11.41-25.977-18.5-42.625-18.5-34.352 0-61.562 30.223-61.562 66.301s27.211 66.305 61.562 66.305c21.965 0 40.93-12.449 51.801-30.785 10.148 15.613 27.727 26.047 47.652 26.047 16.996 0 31.91-6.5352 41.883-17.758 9.9727-11.223 14.945-26.633 14.945-43.809 0-86.199-70.078-156.28-156.28-156.28zm0 108.93c21.887 0 40.426 18.387 42.477 42.918 0.035157 0.29688 0.082032 0.59375 0.14844 0.88672v7.5469c-0.14844 0.53516-0.24609 1.0781-0.29688 1.6289-2.5664 23.918-20.809 41.734-42.328 41.734-23.184 0-42.621-20.664-42.621-47.359 0-26.691 19.438-47.355 42.621-47.355z" fill="#9b9b9b"/>
</svg>
