<svg height='300px' width='300px'  fill="#000000" xmlns="http://www.w3.org/2000/svg" xmlns:xlink="http://www.w3.org/1999/xlink" version="1.1" x="0px" y="0px" viewBox="0 0 60 60" style="enable-background:new 0 0 60 60;" xml:space="preserve"><path d="M52,31.7460938h-7.5053711c-1.1044922,0-2,0.8955078-2,2s0.8955078,2,2,2H50V50H10V35.7460938h5.5053711  c1.1044922,0,2-0.8955078,2-2s-0.8955078-2-2-2H8c-1.1044922,0-2,0.8955078-2,2V52c0,1.1044922,0.8955078,2,2,2h44  c1.1044922,0,2-0.8955078,2-2V33.7460938C54,32.6416016,53.1044922,31.7460938,52,31.7460938z"></path><path d="M30,6c-1.1044922,0-2,0.8955078-2,2v24.6834717l-4.9584961-4.9588623c-0.7802734-0.78125-2.0478516-0.78125-2.828125,0  c-0.78125,0.78125-0.78125,2.046875,0,2.828125l8.3712769,8.3717651c0.0924072,0.0925903,0.1941528,0.1757813,0.3032227,0.2489014  c0.0267334,0.0178833,0.0568237,0.0292358,0.0842896,0.0457153c0.0838013,0.0505371,0.1681519,0.1004639,0.2593384,0.1384888  c0.038208,0.0158691,0.0792236,0.0232544,0.1183472,0.0368042c0.0836792,0.0288696,0.1664429,0.0596924,0.2547607,0.0774536  c0.1292725,0.026123,0.2615967,0.039856,0.3953857,0.039856s0.2661133-0.0137329,0.3953857-0.039856  c0.0883179-0.0177612,0.1710815-0.048584,0.2547607-0.0774536c0.0391235-0.0135498,0.0801392-0.0209351,0.1183472-0.0368042  c0.0911865-0.0380249,0.1755371-0.0879517,0.2593384-0.1384888c0.0274658-0.0164795,0.0575562-0.027832,0.0842896-0.0457153  c0.1090698-0.0731201,0.2108154-0.156311,0.3032227-0.2489014l8.3712769-8.3717651c0.78125-0.78125,0.78125-2.046875,0-2.828125  s-2.0478516-0.78125-2.828125,0L32,32.6834717V8C32,6.8955078,31.1044922,6,30,6z"></path></svg>