<?xml version="1.0" encoding="utf-8"?>
<!-- Generator: Adobe Illustrator 26.1.0, SVG Export Plug-In . SVG Version: 6.00 Build 0)  -->
<svg version="1.1" id="Layer_1" xmlns="http://www.w3.org/2000/svg" xmlns:xlink="http://www.w3.org/1999/xlink" x="0px" y="0px"
	 viewBox="0 0 752 752" style="enable-background:new 0 0 752 752;" xml:space="preserve">
<style type="text/css">
	.st0{fill:#666666;}
</style>
<path class="st0" d="M259.1,437.5c-110.2,0-199.9-89.7-199.9-199.9S148.9,37.7,259.1,37.7S459,127.4,459,237.6
	c0,8.5,6.9,15.4,15.4,15.4s15.4-6.9,15.4-15.4C489.7,110.5,386.2,7,259.1,7C131.9,7,28.5,110.5,28.5,237.6S132,468.2,259.1,468.2
	c8.5,0,15.4-6.9,15.4-15.4C274.4,444.4,267.5,437.5,259.1,437.5L259.1,437.5z M259,114.6c-34.8,0-72.1,23.3-76.9,75.5l30.5,2.8
	c4.1-45.2,39-47.5,46-47.5c10.8,0,45.6,2.8,45.6,39.4c0,19.3-11.3,28.7-28,42.4c-15.3,12.5-36.3,28.1-36.3,56.6v15.4h30.7v-15.4
	c0-13.3,10.3-20.8,25-32.8c17.1-13.9,40.3-31.3,40.3-66.2C335.9,142.8,305,114.6,259,114.6L259,114.6z M270.6,329.9h-30.7v30.7h30.7
	V329.9z M658.8,299.1H382.1c-33.9,0-65.3,27.6-65.3,61.5V622c0,33.9,31.4,61.5,65.3,61.5h84.6l41.5,55.3c2.9,3.9,7.5,6.2,12.3,6.2
	c4.8,0,9.4-2.3,12.3-6.2l41.5-55.3h84.6c33.9,0,57.7-27.6,57.7-61.5V360.6C716.5,326.7,692.7,299.1,658.8,299.1L658.8,299.1z
	 M685.7,622c0,16.9-10,30.7-26.9,30.7h-92.2c-4.8,0-9.4,2.3-12.3,6.2L520.4,704l-33.8-45.1c-2.9-3.9-7.5-6.2-12.3-6.2h-92.2
	c-17,0-34.6-13.8-34.6-30.7V360.6c0-17,17.6-30.7,34.6-30.7h276.7c16.9,0,26.9,13.8,26.9,30.7L685.7,622z M503.8,537.5L439,472.8
	l-21.7,21.7l76.9,76.9c2.9,2.9,6.8,4.5,10.9,4.5c0.3,0,0.6,0,0.9,0c4.3-0.2,8.4-2.3,11.2-5.7l123-153.7l-24-19.2L503.8,537.5z"/>
</svg>
