<?xml version="1.0" encoding="utf-8"?>
<!-- Generator: Adobe Illustrator 26.1.0, SVG Export Plug-In . SVG Version: 6.00 Build 0)  -->
<svg version="1.1" id="Layer_1" xmlns="http://www.w3.org/2000/svg" xmlns:xlink="http://www.w3.org/1999/xlink" x="0px" y="0px"
	 viewBox="0 0 752 752" style="enable-background:new 0 0 752 752;" xml:space="preserve">
<path d="M646,56H106c-27.6,0-50,22.4-50,50v80c0,27.6,22.4,50,50,50h20c27.6,0,50-22.4,50-50c0-5.5,4.5-10,10-10h120
	c5.5,0,10,4.5,10,10v380c0,5.5-4.5,10-10,10c-27.6,0-50,22.4-50,50v20c0,27.6,22.4,50,50,50h140c27.6,0,50-22.4,50-50v-20
	c0-27.6-22.4-50-50-50c-5.5,0-10-4.5-10-10l0-380c0-5.5,4.5-10,10-10h120c5.5,0,10,4.5,10,10c0,27.6,22.4,50,50,50h20
	c27.6,0,50-22.4,50-50v-80C696,78.4,673.6,56,646,56L646,56z M656,186c0,5.5-4.5,10-10,10h-20c-5.5,0-10-4.5-10-10
	c0-27.6-22.4-50-50-50l-120,0c-27.6,0-50,22.4-50,50v380c0,27.6,22.4,50,50,50c5.5,0,10,4.5,10,10v20c0,5.5-4.5,10-10,10H306
	c-5.5,0-10-4.5-10-10v-20c0-5.5,4.5-10,10-10c27.6,0,50-22.4,50-50V186c0-27.6-22.4-50-50-50l-120,0c-27.6,0-50,22.4-50,50
	c0,5.5-4.5,10-10,10h-20c-5.5,0-10-4.5-10-10v-80c0-5.5,4.5-10,10-10h540c5.5,0,10,4.5,10,10L656,186z"/>
</svg>
