<?xml version="1.0" encoding="utf-8"?>
<!-- Generator: Adobe Illustrator 26.1.0, SVG Export Plug-In . SVG Version: 6.00 Build 0)  -->
<svg version="1.1" id="Layer_1" xmlns="http://www.w3.org/2000/svg" xmlns:xlink="http://www.w3.org/1999/xlink" x="0px" y="0px"
	 viewBox="0 0 300 300" style="enable-background:new 0 0 300 300;" xml:space="preserve">
<style type="text/css">
	.st0{fill:#6E7479;}
</style>
<g>
	<path class="st0" d="M149.6,237.5c-3.3,0-6,2.7-6,5.9v22.1c-3.2,3.1-10.8,9.2-20.3,9.2c-9.4,0-17.1-6.1-20.3-9.2V181
		c0-1.6-0.7-3.2-1.8-4.3l-75.3-71.6C19.3,97.7,15.5,87,15.5,75.8V52.6C39,65.6,91.8,69.4,123.3,69.4c31.5,0,84.4-3.9,107.8-16.8
		v23.2c0,11.2-3.8,21.9-10.4,29.4c-1.1,1.2-1.6,2.7-1.5,4.3c0.1,1.6,0.8,3,2,4.1c1.1,1,2.5,1.5,3.9,1.5v0c1.7,0,3.3-0.7,4.5-2
		c8.5-9.6,13.4-23.2,13.4-37.3V37.5c0-0.3,0-0.5-0.1-0.8c-1.6-24.6-78.7-31.1-119.7-31.1C82.3,5.6,5,12.2,3.6,36.9
		c0,0.2,0,0.4,0,0.6v38.2c0,14.1,5,27.8,13.6,37.6l73.8,70.3V268c0,1.4,0.5,2.8,1.4,3.9c0.5,0.6,12.8,14.8,30.8,14.8h0
		c17.3,0,29.5-13.3,30.8-14.8c0.9-1.1,1.4-2.5,1.4-3.9v-24.5C155.6,240.2,152.9,237.5,149.6,237.5z M15.5,37.5
		c0-2.2,7.2-7.4,26.6-12.1c14.9-3.6,41.1-7.9,81.2-7.9c40.1,0,66.3,4.3,81.2,7.9c19.4,4.7,26.6,9.9,26.6,12.1
		c0,2.2-7.2,7.4-26.6,12.1c-14.9,3.6-41.1,7.9-81.2,7.9c-40.1,0-66.3-4.3-81.2-7.9C22.7,44.9,15.5,39.7,15.5,37.5z"/>
	<path class="st0" d="M288,257.4l-48.6-48.6c-1.6-1.6-3.7-2.4-5.9-2.4c-0.9,0-1.8,0.2-2.7,0.4l-3.7-3.7
		c6.7-10.4,10.3-22.5,10.3-35.2c0-17.4-6.8-33.8-19.1-46.1c-12.3-12.3-28.7-19.1-46-19.1c-17.4,0-33.8,6.8-46.1,19.1
		c-12.3,12.3-19.1,28.7-19.1,46c0,17.4,6.8,33.8,19.1,46c12.3,12.3,28.7,19.1,46.1,19.1c12.7,0,24.8-3.6,35.2-10.3l3.7,3.7
		c-0.3,0.8-0.4,1.7-0.4,2.7c0,2.2,0.9,4.3,2.5,5.9l48.6,48.6c3.5,3.5,8.1,5.4,13.1,5.4c5,0,9.6-1.9,13.1-5.4
		C295.2,276.4,295.2,264.6,288,257.4z M233.5,219.8l46.1,46.1c1.2,1.2,1.9,2.9,1.9,4.7s-0.7,3.4-1.9,4.7c-1.2,1.2-2.9,1.9-4.7,1.9
		c-1.8,0-3.4-0.7-4.7-1.9l-46.1-46.1L233.5,219.8z M203.9,210.8C203.9,210.8,203.8,210.8,203.9,210.8c-9.2,6.8-20.1,10.4-31.6,10.4
		c-14.2,0-27.6-5.5-37.6-15.6c-10.1-10.1-15.6-23.4-15.6-37.6c0-14.2,5.5-27.6,15.6-37.6c10.1-10.1,23.4-15.6,37.6-15.6
		c14.2,0,27.6,5.5,37.6,15.6c10.1,10,15.6,23.4,15.6,37.6c0,11.5-3.6,22.4-10.3,31.5c0,0-0.1,0-0.1,0.1c-0.4,0.4-0.7,0.8-0.9,1.2
		c-1.3,1.7-2.7,3.3-4.3,4.8c-1.5,1.5-3.2,2.9-4.8,4.3C204.7,210.1,204.2,210.4,203.9,210.8z M218.3,214c0.5-0.5,0.9-1,1.4-1.4
		l2.1,2.1l-2.8,2.8l-2.1-2.1C217.4,214.9,217.9,214.5,218.3,214z"/>
</g>
</svg>
