<?xml version="1.0" encoding="UTF-8"?>
<svg width="752pt" height="752pt" version="1.1" viewBox="0 0 752 752" xmlns="http://www.w3.org/2000/svg">
 <path d="m528.46 331.28c-2.3711-4.1875-7.0195-6.5859-12.754-6.5859h-127.87c-2.5664 0-4.7344-2.168-4.7344-4.7344v-140.5c0-11.926-7.6953-12.531-9.2383-12.531-5.7305 0-8.9805 5.4102-10.043 7.1836l-139.37 232.27c-2.9492 4.9219-3.2852 10.145-0.91406 14.324 2.3711 4.1836 7.0195 6.5859 12.754 6.5859h127.87c2.5664 0 4.7344 2.168 4.7344 4.7344v140.5c0 11.926 7.6953 12.531 9.2383 12.531 5.7305 0 8.9805-5.4102 10.043-7.1875l139.37-232.28c2.9492-4.918 3.2812-10.137 0.91406-14.324z"/>
</svg>
