<svg height='300px' width='300px'  fill="#000000" xmlns="http://www.w3.org/2000/svg" xmlns:xlink="http://www.w3.org/1999/xlink" version="1.1" x="0px" y="0px" viewBox="0 0 100 100" enable-background="new 0 0 100 100" xml:space="preserve"><path d="M86.4,36.6l-28-28C57.8,8,57,7.8,56.2,8.2C55.5,8.5,55,9.2,55,10v13.6c-1.4-0.2-3.1-0.3-4.8-0.3C29.7,23.3,13,39.7,13,59.9  c0,13.5,7.5,25.5,20.1,31.9c0.3,0.2,0.6,0.2,0.9,0.2c0.6,0,1.2-0.3,1.6-0.8c0.6-0.7,0.6-1.8,0-2.5c-3.7-4.3-5.4-8.9-5.4-14  c0-12.6,10.4-22.9,23.2-22.9c0.6,0,1.2,0,1.7,0.1V66c0,0.8,0.5,1.5,1.2,1.8c0.8,0.3,1.6,0.1,2.2-0.4l28-28C86.8,39,87,38.5,87,38  C87,37.5,86.8,37,86.4,36.6z M59,61.2V50c0-1-0.7-1.8-1.7-2c-1.2-0.2-2.6-0.3-4-0.3c-15,0-27.2,12.1-27.2,26.9c0,3,0.5,5.9,1.6,8.6  C20.9,77.3,17,69,17,59.9c0-17.9,14.9-32.5,33.3-32.5c2.4,0,4.8,0.4,6.4,0.7c0.6,0.1,1.2,0,1.7-0.4c0.5-0.4,0.7-0.9,0.7-1.5V14.8  L82.2,38L59,61.2z"></path></svg>