<svg height='300px' width='300px'  fill="#000000" xmlns="http://www.w3.org/2000/svg" xmlns:xlink="http://www.w3.org/1999/xlink" version="1.1" x="0px" y="0px" viewBox="0 0 100 100" style="enable-background:new 0 0 100 100;" xml:space="preserve"><g><path d="M37.4,10.1H21c-6.1,0-11,4.9-11,11v16.4c0,6.1,4.9,11,11,11h16.4c6.1,0,11-4.9,11-11V21.1C48.4,15,43.4,10.1,37.4,10.1z    M42.4,37.4c0,2.8-2.2,5-5,5H21c-2.8,0-5-2.2-5-5V21.1c0-2.8,2.2-5,5-5h16.4c2.8,0,5,2.2,5,5V37.4z"></path><path d="M79,10.1H62.6c-6.1,0-11,4.9-11,11v16.4c0,6.1,4.9,11,11,11H79c6.1,0,11-4.9,11-11V21.1C90,15,85.1,10.1,79,10.1z M84,37.4   c0,2.8-2.2,5-5,5H62.6c-2.8,0-5-2.2-5-5V21.1c0-2.8,2.2-5,5-5H79c2.8,0,5,2.2,5,5V37.4z"></path><path d="M37.4,51.9H21c-6.1,0-11,4.9-11,11v16.4c0,6.1,4.9,11,11,11h16.4c6.1,0,11-4.9,11-11V62.9C48.4,56.8,43.4,51.9,37.4,51.9z    M42.4,79.3c0,2.8-2.2,5-5,5H21c-2.8,0-5-2.2-5-5V62.9c0-2.8,2.2-5,5-5h16.4c2.8,0,5,2.2,5,5V79.3z"></path><path d="M79,51.9H62.6c-6.1,0-11,4.9-11,11v16.4c0,6.1,4.9,11,11,11H79c6.1,0,11-4.9,11-11V62.9C90,56.8,85.1,51.9,79,51.9z    M84,79.3c0,2.8-2.2,5-5,5H62.6c-2.8,0-5-2.2-5-5V62.9c0-2.8,2.2-5,5-5H79c2.8,0,5,2.2,5,5V79.3z"></path></g></svg>