<svg height='300px' width='300px'  fill="#000000" xmlns="http://www.w3.org/2000/svg" xmlns:xlink="http://www.w3.org/1999/xlink" version="1.1" x="0px" y="0px" viewBox="0 0 52 52" enable-background="new 0 0 52 52" xml:space="preserve"><g><g><path d="M26,13.5c-3.0322266,0-5.5-2.4672852-5.5-5.5s2.4677734-5.5,5.5-5.5s5.5,2.4672852,5.5,5.5S29.0322266,13.5,26,13.5z     M26,3.5c-2.4814453,0-4.5,2.0185547-4.5,4.5s2.0185547,4.5,4.5,4.5s4.5-2.0185547,4.5-4.5S28.4814453,3.5,26,3.5z"></path></g><g><path d="M34.5,23.5h-17V19c0-3.5839844,2.9160156-6.5,6.5-6.5h4c3.5839844,0,6.5,2.9160156,6.5,6.5V23.5z M18.5,22.5h15V19    c0-3.0327148-2.4677734-5.5-5.5-5.5h-4c-3.0322266,0-5.5,2.4672852-5.5,5.5V22.5z"></path></g><g><path d="M11,39.5c-3.0322266,0-5.5-2.4672852-5.5-5.5s2.4677734-5.5,5.5-5.5s5.5,2.4672852,5.5,5.5S14.0322266,39.5,11,39.5z     M11,29.5c-2.4814453,0-4.5,2.0185547-4.5,4.5s2.0185547,4.5,4.5,4.5s4.5-2.0185547,4.5-4.5S13.4814453,29.5,11,29.5z"></path></g><g><path d="M19.5,49.5h-17V45c0-3.5839844,2.9160156-6.5,6.5-6.5h4c3.5839844,0,6.5,2.9160156,6.5,6.5V49.5z M3.5,48.5h15V45    c0-3.0327148-2.4677734-5.5-5.5-5.5H9c-3.0322266,0-5.5,2.4672852-5.5,5.5V48.5z"></path></g><g><path d="M41,39.5c-3.0322266,0-5.5-2.4672852-5.5-5.5s2.4677734-5.5,5.5-5.5s5.5,2.4672852,5.5,5.5S44.0322266,39.5,41,39.5z     M41,29.5c-2.4814453,0-4.5,2.0185547-4.5,4.5s2.0185547,4.5,4.5,4.5s4.5-2.0185547,4.5-4.5S43.4814453,29.5,41,29.5z"></path></g><g><path d="M49.5,49.5h-17V45c0-3.5839844,2.9160156-6.5,6.5-6.5h4c3.5839844,0,6.5,2.9160156,6.5,6.5V49.5z M33.5,48.5h15V45    c0-3.0327148-2.4677734-5.5-5.5-5.5h-4c-3.0322266,0-5.5,2.4672852-5.5,5.5V48.5z"></path></g><g><g><path d="M41.5,24h-1V14c0-0.8271484-0.6728516-1.5-1.5-1.5h-3v-1h3c1.3789063,0,2.5,1.121582,2.5,2.5V24z"></path></g><g><polygon points="41,24.7070313 37.8183594,21.5249023 38.5253906,20.8178711 41,23.2929688 43.4746094,20.8178711      44.1816406,21.5249023    "></polygon></g></g><g><g><path d="M11.5,24h-1V14c0-1.378418,1.1210938-2.5,2.5-2.5h3v1h-3c-0.8271484,0-1.5,0.6728516-1.5,1.5V24z"></path></g><g><polygon points="11,24.7070313 7.8183594,21.5249023 8.5253906,20.8178711 11,23.2929688 13.4746094,20.8178711      14.1816406,21.5249023    "></polygon></g></g></g></svg>