<?xml version="1.0" encoding="utf-8"?>
<!-- Generator: Adobe Illustrator 26.1.0, SVG Export Plug-In . SVG Version: 6.00 Build 0)  -->
<svg version="1.1" id="Layer_1" xmlns="http://www.w3.org/2000/svg" xmlns:xlink="http://www.w3.org/1999/xlink" x="0px" y="0px"
	 viewBox="0 0 752 752" style="enable-background:new 0 0 752 752;" xml:space="preserve">
<path d="M376,34C187.5,34,34,187.5,34,376c0,188.5,153.5,342,342,342s342-153.5,342-342C718,187.5,564.5,34,376,34z M376,675.2
	C211,675.2,76.8,541,76.8,376S211,76.8,376,76.8S675.2,211,675.2,376C675.2,541,541,675.2,376,675.2z M397.4,162.2V376
	c0,5.7-2.2,11.1-6.3,15.1L284.2,497.9c-4.2,4.2-9.6,6.3-15.1,6.3c-5.4,0-10.9-2.1-15.1-6.3c-8.3-8.3-8.3-21.9,0-30.2l100.6-100.6
	V162.2c0-11.8,9.5-21.4,21.4-21.4C387.9,140.9,397.4,150.5,397.4,162.2L397.4,162.2z"/>
</svg>
