<svg height='300px' width='300px'  fill="#474b52" xmlns="http://www.w3.org/2000/svg" viewBox="0 0 32 32" x="0px" y="0px"><title>Unread Close Message Letter Mail</title><g><path d="M29,14.63A2.63,2.63,0,0,0,26.37,12H8.63A2.63,2.63,0,0,0,6,14.63V25.37A2.63,2.63,0,0,0,8.63,28H26.37A2.63,2.63,0,0,0,29,25.37ZM27,16l-9.5,3L8,16V14l9.5,3L27,14Z"></path><path d="M23,9.2,13.5,5.69,4,9.2a1.55,1.55,0,0,0-1,1.46V19.6A2.4,2.4,0,0,0,5,22V12.71H5V11.15l8.5-3.09L21.58,11H24v-.34A1.55,1.55,0,0,0,23,9.2Z"></path></g></svg>