<svg height='300px' width='300px'  fill="#474b52" xmlns="http://www.w3.org/2000/svg" xmlns:xlink="http://www.w3.org/1999/xlink" version="1.1" x="0px" y="0px" viewBox="0 0 100 100" style="enable-background:new 0 0 100 100;" xml:space="preserve"><path d="M93.7,45.5c-2.1-9.2-10.4-15.9-19.9-15.9c-5.1,0-10,1.9-13.7,5.3c-3.2-0.9-6.6-1.4-10.1-1.4  c-3.6,0-7,0.5-10.1,1.4c-3.8-3.4-8.7-5.3-13.7-5.3c-9.5,0-17.8,6.6-19.9,15.9c-2.5,0-4.5,2-4.5,4.5c0,2.5,2,4.5,4.5,4.5  c2.1,9.2,10.3,15.9,19.9,15.9c11.2,0,20.4-9.1,20.4-20.4c0-2.4-0.4-4.7-1.2-7c3.4-0.6,6.7-0.5,9.4,0c-0.8,2.3-1.2,4.6-1.2,7  c0,11.2,9.1,20.4,20.4,20.4c9.5,0,17.8-6.6,19.9-15.9c2.5,0,4.5-2,4.5-4.5C98.1,47.5,96.1,45.5,93.7,45.5z M73.8,61.4  c-6.3,0-11.4-5.1-11.4-11.4s5.1-11.4,11.4-11.4c6.3,0,11.4,5.1,11.4,11.4S80.1,61.4,73.8,61.4z M26.2,38.6c6.3,0,11.4,5.1,11.4,11.4  s-5.1,11.4-11.4,11.4S14.8,56.3,14.8,50S19.9,38.6,26.2,38.6z"></path></svg>