<?xml version="1.0" encoding="UTF-8"?>
<svg width="752pt" height="752pt" version="1.1" viewBox="0 0 752 752" xmlns="http://www.w3.org/2000/svg">
 <defs>
  <clipPath id="a">
   <path d="m139.21 275h473.58v202h-473.58z"/>
  </clipPath>
 </defs>
 <g clip-path="url(#a)">
  <path d="m139.21 311.46c0-19.828 16.09-35.918 35.902-35.918h401.78c19.844 0 35.902 16.051 35.902 35.918v129.08c0 19.828-16.09 35.914-35.902 35.914h-401.78c-19.844 0-35.902-16.051-35.902-35.914zm14.352 0v129.08c0 11.938 9.6328 21.562 21.551 21.562h401.78c11.887 0 21.551-9.6602 21.551-21.562v-129.08c0-11.938-9.6328-21.566-21.551-21.566h-401.78c-11.887 0-21.551 9.6641-21.551 21.566zm64.742 28.664h-14.352c-3.9609 0-7.1758-3.2148-7.1758-7.1758 0-3.9648 3.2148-7.1758 7.1758-7.1758h42.891c3.9609 0 7.1758 3.2109 7.1758 7.1758 0 3.9609-3.2148 7.1758-7.1758 7.1758h-14.188l-0.16406 71.754h14.352c3.9609 0 7.1758 3.2109 7.1758 7.1758 0 3.9609-3.2148 7.1758-7.1758 7.1758h-42.891c-3.9609 0-7.1758-3.2148-7.1758-7.1758 0-3.9648 3.2148-7.1758 7.1758-7.1758h14.188z" fill-rule="evenodd"/>
 </g>
</svg>
