<?xml version="1.0" encoding="utf-8"?>
<!-- Generator: Adobe Illustrator 26.1.0, SVG Export Plug-In . SVG Version: 6.00 Build 0)  -->
<svg version="1.1" id="Layer_1" xmlns="http://www.w3.org/2000/svg" xmlns:xlink="http://www.w3.org/1999/xlink" x="0px" y="0px"
	 viewBox="0 0 752 752" style="enable-background:new 0 0 752 752;" xml:space="preserve">
<path d="M705.5,46.5c-183.4,0-292.8,59.2-329.5,83c-36.7-23.8-146.1-83-329.5-83c-12.1,0-22,9.8-22,22v527.2c0,12.2,9.9,22,22,22
	c207.4,0,313.9,81.6,315.8,83c4.1,3.2,8.9,4.8,13.7,4.8c4.8,0,9.7-1.5,13.7-4.7c1-0.9,107.5-83.1,315.8-83.1c12.1,0,22-9.8,22-22
	V68.5C727.5,56.4,717.6,46.5,705.5,46.5L705.5,46.5z M68.4,90.8c162.8,4.6,258.4,59.2,285.6,77v475.9
	c-47.4-26.1-142.3-65.9-285.6-69.6V90.8z M683.5,574c-143.2,3.7-238.1,43.5-285.6,69.6V167.8c27.1-17.9,122.9-72.5,285.6-77V574z"/>
</svg>
