<svg height='300px' width='300px'  fill="#000000" xmlns="http://www.w3.org/2000/svg" xmlns:xlink="http://www.w3.org/1999/xlink" version="1.1" x="0px" y="0px" viewBox="0 0 70 70" style="enable-background:new 0 0 70 70;" xml:space="preserve"><path d="M54.2800293,54.5L42.0599976,33.1600342c-0.539978-0.9400024-0.8200073-2.0100098-0.8200073-3.0900269V13h2.1099854  c0.5500488,0,1-0.4499512,1-1c0-0.5499878-0.4499512-1-1-1H26.6500244c-0.5500488,0-1,0.4500122-1,1c0,0.5500488,0.4499512,1,1,1  h2.1099854v17.0599976c0,1.0800171-0.2800293,2.1500244-0.8200073,3.0800171l-5.0499878,8.8400269L15.7199707,54.5  c-0.539978,0.9400024-0.539978,2.0599976,0.0100098,3C16.2700195,58.4400024,17.25,59,18.3300171,59h33.3399658  c1.0800171,0,2.0599976-0.5599976,2.6000366-1.5C54.8200073,56.5599976,54.8200073,55.4400024,54.2800293,54.5z   M25.4400024,41.5400391l4.2399902-7.4000244c0.710022-1.2399902,1.0800171-2.6500244,1.0800171-4.0800171v-2.5899658h1.7000122  c0.5599976,0,1-0.4500122,1-1c0-0.5599976-0.4400024-1-1-1h-1.7000122v-2.6799927h1.7000122c0.5599976,0,1-0.4500122,1-1  c0-0.5500488-0.4400024-1-1-1h-1.7000122v-2.6700439h1.7000122c0.5599976,0,1-0.4499512,1-1c0-0.5599976-0.4400024-1-1-1h-1.7000122  V13h8.4799805v17.0700073c0,1.4299927,0.3699951,2.8400269,1.0800171,4.0800171l4.2299805,7.3900146H25.4400024z"></path></svg>