<svg height='300px' width='300px'  fill="#000000" xmlns="http://www.w3.org/2000/svg" xmlns:xlink="http://www.w3.org/1999/xlink" version="1.1" x="0px" y="0px" viewBox="0 0 50 50" style="enable-background:new 0 0 50 50;" xml:space="preserve"><path d="M37.7,18.2H12.3c-1.1,0-2-0.9-2-2s0.9-2,2-2h25.4c1.1,0,2,0.9,2,2S38.8,18.2,37.7,18.2z M39.7,25.8c0-1.1-0.9-2-2-2H12.3  c-1.1,0-2,0.9-2,2s0.9,2,2,2h25.4C38.8,27.8,39.7,26.9,39.7,25.8z M39.7,35.5c0-1.1-0.9-2-2-2H12.3c-1.1,0-2,0.9-2,2s0.9,2,2,2h25.4  C38.8,37.5,39.7,36.6,39.7,35.5z"></path></svg>