<?xml version="1.0" encoding="utf-8"?>
<!-- Generator: Adobe Illustrator 26.1.0, SVG Export Plug-In . SVG Version: 6.00 Build 0)  -->
<svg version="1.1" id="Layer_1" xmlns="http://www.w3.org/2000/svg" xmlns:xlink="http://www.w3.org/1999/xlink" x="0px" y="0px"
	 viewBox="0 0 300 300" style="enable-background:new 0 0 300 300;" xml:space="preserve">
<style type="text/css">
	.st0{fill:#9B9B9B;}
</style>
<path class="st0" d="M150,4.8C69.3,4.8,3.7,70.3,3.7,151c0,80.7,65.5,146.2,146.2,146.2c80.7,0,146.2-65.5,146.2-146.2
	C296.2,70.3,230.7,4.8,150,4.8L150,4.8z M150,17.2c74,0,133.8,59.8,133.8,133.8c0,74-59.8,133.8-133.8,133.8
	C76,284.8,16.2,225,16.2,151C16.2,77.1,76,17.2,150,17.2L150,17.2z M150,48.4c-56.6,0-102.7,46-102.7,102.7
	c0,56.6,46,102.7,102.7,102.7c22.5,0,43.3-7.3,60.2-19.5c1.6-0.8,2.7-2.3,3.1-4.1c0.4-1.8,0-3.6-1-5.1c-1-1.5-2.7-2.4-4.5-2.6
	c-1.8-0.2-3.6,0.4-4.9,1.7c-14.9,10.8-33.2,17.1-53,17.1c-49.9,0-90.2-40.3-90.2-90.2c0-49.9,40.3-90.2,90.2-90.2
	s90.2,40.3,90.2,90.2c0,8.9-2.6,15.8-6.8,20.5c-4.2,4.7-9.9,7.5-18.1,7.5c-13.8,0-24.9-11.1-24.9-24.9v-40.5
	c0.1-1.7-0.5-3.4-1.7-4.6c-1.2-1.2-2.8-2-4.5-2c-1.7,0-3.4,0.7-4.5,2c-1.2,1.2-1.8,2.9-1.7,4.6v5.9c-7.2-7.5-17.1-12.2-28-12.2
	c-22.6,0-40.4,19.9-40.4,43.6s17.9,43.6,40.4,43.6c14.4,0,26.9-8.2,34-20.2c6.7,10.3,18.2,17.1,31.3,17.1c11.2,0,21-4.3,27.5-11.7
	c6.6-7.4,9.8-17.5,9.8-28.8C252.6,94.4,206.6,48.4,150,48.4L150,48.4z M150,119.9c14.4,0,26.6,12.1,27.9,28.2c0,0.2,0.1,0.4,0.1,0.6
	v5c-0.1,0.4-0.2,0.7-0.2,1.1c-1.7,15.7-13.7,27.4-27.8,27.4c-15.2,0-28-13.6-28-31.1C121.9,133.5,134.7,119.9,150,119.9L150,119.9z"
	/>
</svg>
