<?xml version="1.0" encoding="utf-8"?>
<!-- Generator: Adobe Illustrator 26.2.1, SVG Export Plug-In . SVG Version: 6.00 Build 0)  -->
<svg version="1.1" id="Layer_1" xmlns="http://www.w3.org/2000/svg" xmlns:xlink="http://www.w3.org/1999/xlink" x="0px" y="0px"
	 viewBox="0 0 300 300" style="enable-background:new 0 0 300 300;" xml:space="preserve">
<g>
	<path d="M112.3,67.7c0-8.5-3.1-16.7-8.9-23c-5.7-6.3-13.6-10.2-22.1-10.9c-8.5-0.7-16.9,1.8-23.6,7C50.9,46,46.4,53.6,45,62
		c-1.4,8.4,0.4,17,5.1,24.1c4.7,7.1,11.8,12.2,20.1,14.3v99.3c-10.7,2.8-19.4,10.6-23.3,21c-3.9,10.4-2.4,22,3.9,31.1
		c6.3,9.1,16.7,14.5,27.8,14.5c11.1,0,21.5-5.4,27.8-14.5c6.3-9.1,7.8-20.7,3.9-31.1c-3.9-10.4-12.6-18.2-23.3-21v-99.3
		c7.2-1.9,13.7-6.1,18.2-12C109.8,82.4,112.3,75.1,112.3,67.7L112.3,67.7z M61.4,67.7c0.1-4.4,1.9-8.7,5-11.8
		c3.2-3.1,7.5-4.8,11.9-4.8c4.4,0,8.7,1.8,11.8,5c3.1,3.2,4.9,7.4,4.9,11.9c0,4.4-1.8,8.7-4.9,11.8c-3.2,3.1-7.4,4.9-11.9,4.9
		c-4.5-0.1-8.7-1.9-11.8-5.1C63.2,76.4,61.5,72.1,61.4,67.7L61.4,67.7z M78.2,249.4L78.2,249.4c-4.4-0.1-8.7-1.9-11.8-5
		c-3.1-3.2-4.8-7.5-4.8-11.9c0-4.4,1.8-8.7,5-11.8c3.2-3.1,7.4-4.9,11.9-4.9c4.4,0,8.7,1.8,11.9,4.9c3.1,3.2,4.9,7.4,4.9,11.9
		c-0.1,4.4-1.8,8.6-4.9,11.7c-3.1,3.1-7.3,4.9-11.7,5.1L78.2,249.4z"/>
	<path d="M230,199.7V97.9c0-8.9-3.5-17.5-9.8-23.8c-6.3-6.3-14.9-9.9-23.8-9.9h-35.7l15.6-15.6c3-3.3,2.9-8.4-0.3-11.6
		c-3.2-3.2-8.3-3.3-11.6-0.3l-29.9,30c-3.3,3.3-3.3,8.6,0,11.9l30,30c3.3,3,8.4,2.9,11.6-0.3c3.2-3.2,3.3-8.3,0.3-11.6l-15.6-15.6
		h35.6c4.5,0,8.7,1.8,11.9,4.9c3.2,3.2,4.9,7.4,4.9,11.9v101.8c-10.7,2.8-19.4,10.6-23.3,21c-3.9,10.4-2.4,22,3.9,31.1
		c6.3,9.1,16.7,14.5,27.8,14.5c11.1,0,21.5-5.4,27.8-14.5c6.3-9.1,7.8-20.7,3.9-31.1C249.4,210.3,240.7,202.4,230,199.7L230,199.7z
		 M221.6,249.4c-4.5,0-8.7-1.8-11.9-4.9c-3.2-3.2-4.9-7.4-4.9-11.9c0-4.5,1.8-8.7,4.9-11.9c3.2-3.2,7.4-4.9,11.9-4.9
		c4.5,0,8.7,1.8,11.9,4.9c3.2,3.2,4.9,7.4,4.9,11.9c-0.1,4.4-1.9,8.7-5,11.8C230.3,247.6,226,249.4,221.6,249.4L221.6,249.4z"/>
</g>
</svg>
