<?xml version="1.0" encoding="UTF-8"?>
<svg width="752pt" height="752pt" version="1.1" viewBox="0 0 752 752" xmlns="http://www.w3.org/2000/svg">
 <g fill-rule="evenodd">
  <path d="m242.89 258.33c0 29.27 23.762 53.031 53.031 53.031s53.031-23.762 53.031-53.031-23.762-53.031-53.031-53.031-53.031 23.762-53.031 53.031zm13.027 0c0-22.082 17.926-40.008 40.008-40.008s40.008 17.926 40.008 40.008-17.926 40.008-40.008 40.008-40.008-17.926-40.008-40.008z"/>
  <path d="m295.93 543.96c29.27 0 53.031-23.762 53.031-53.031s-23.762-53.031-53.031-53.031-53.031 23.762-53.031 53.031 23.762 53.031 53.031 53.031zm0-13.027c-22.082 0-40.008-17.926-40.008-40.008s17.926-40.008 40.008-40.008 40.008 17.926 40.008 40.008-17.926 40.008-40.008 40.008z"/>
  <path d="m457.81 461.27c29.27 0 53.031-23.762 53.031-53.031s-23.762-53.031-53.031-53.031c-29.27 0-53.031 23.762-53.031 53.031s23.762 53.031 53.031 53.031zm0-13.027c-22.082 0-40.008-17.926-40.008-40.008s17.926-40.008 40.008-40.008c22.082 0 40.008 17.926 40.008 40.008s-17.926 40.008-40.008 40.008z"/>
  <path d="m289.41 304.85c0 30.559 9.3516 53.621 24.59 70.613 22.496 25.086 58.227 36.922 96.898 39.266 3.5859 0.21875 6.6758-2.5195 6.8984-6.1055 0.21484-3.5859-2.5234-6.6758-6.1094-6.8984-57.879-3.5078-109.25-29.352-109.25-96.879 0-3.5977-2.9219-6.5117-6.5117-6.5117-3.5977 0-6.5117 2.918-6.5117 6.5117z"/>
  <path d="m289.41 304.85v139.55c0 3.5977 2.918 6.5117 6.5117 6.5117 3.5898 0 6.5117-2.918 6.5117-6.5117v-139.55c0-3.5977-2.9219-6.5117-6.5117-6.5117-3.5977 0-6.5117 2.918-6.5117 6.5117z"/>
 </g>
</svg>
