<?xml version="1.0" encoding="utf-8"?>
<!-- Generator: Adobe Illustrator 26.1.0, SVG Export Plug-In . SVG Version: 6.00 Build 0)  -->
<svg version="1.1" id="Layer_1" xmlns="http://www.w3.org/2000/svg" xmlns:xlink="http://www.w3.org/1999/xlink" x="0px" y="0px"
	 viewBox="0 0 300 300" style="enable-background:new 0 0 300 300;" xml:space="preserve">
<style type="text/css">
	.st0{fill:#FFFFFF;}
</style>
<g>
	<path class="st0" d="M219.6,176.9c0-5.2-4.1-9.3-9.3-9.3c-5.2,0-9.3,4.1-9.3,9.3c0,21.7,8.6,42.2,23.9,57.9c0.7,0.7,1.5,1.9,1.5,3
		c0,2.6-1.9,4.5-4.5,4.5l-175.1,0c-2.6,0-4.5-1.9-4.5-4.5c0-1.1,0.4-2.2,1.5-3c15.3-15.3,23.9-35.8,23.9-57.9v-55.6
		c0-26.1,15.7-50,39.9-60.1c4.9-1.9,7.1-7.5,4.9-12.3c-1.9-4.9-7.5-7.1-12.3-4.9C69.2,57,49,87.7,49,121.3v55.6
		c0,16.8-6.7,32.9-18.3,44.4c-4.5,4.5-6.7,10.1-6.7,16.4c0,12.7,10.5,23.1,23.1,23.1h48.5c1.9,19.8,18.7,35.5,39.2,35.5
		s37.3-15.7,39.2-35.5h48.5c12.7,0,23.1-10.5,23.1-23.1c0-6.3-2.2-11.9-6.7-16.4C226,209.7,219.6,193.7,219.6,176.9L219.6,176.9z
		 M134.1,278.1c-10.1,0-18.7-7.5-20.2-16.8h40.3C152.8,270.6,144.2,278.1,134.1,278.1z"/>
	<path class="st0" d="M199.5,3.7c-42.2,0-76.5,34.3-76.5,76.5c0,42.2,34.3,76.5,76.5,76.5c42.2,0,76.5-34.3,76.5-76.5
		C276,38,241.7,3.7,199.5,3.7L199.5,3.7z M199.5,138.1c-31.7,0-57.9-26.1-57.9-57.9c0-31.7,26.1-57.9,57.9-57.9s57.9,26.1,57.9,57.9
		C257.3,111.9,231.2,138.1,199.5,138.1z"/>
</g>
</svg>
