<svg height='300px' width='300px'  fill="#000000" xmlns="http://www.w3.org/2000/svg" data-name="Layer 1" viewBox="0 0 100 100" x="0px" y="0px"><title>02</title><path d="M80.48,37.9A30.5,30.5,0,0,0,50,7.41h0A30.5,30.5,0,0,0,19.48,37.93V58.62L7.61,79.43h29A13.43,13.43,0,0,0,50,92.59h0a13.41,13.41,0,0,0,13.4-13.18h29L80.49,58.59ZM53.84,83A5.39,5.39,0,0,1,50,84.59h0a5.43,5.43,0,0,1-5.41-5.17H55.4A5.37,5.37,0,0,1,53.84,83ZM21.39,71.43l6.1-10.69V37.92A22.5,22.5,0,0,1,50,15.41h0A22.53,22.53,0,0,1,72.48,37.9V60.71L78.6,71.4Z"></path><path d="M29.24,36.69l7.94,1A14.9,14.9,0,0,1,49.51,24.95L48.24,17A23,23,0,0,0,29.24,36.69Z"></path></svg>