<svg height='300px' width='300px'  fill="#ffffff" xmlns="http://www.w3.org/2000/svg" xmlns:xlink="http://www.w3.org/1999/xlink" version="1.0" x="0px" y="0px" viewBox="0 0 100 100" enable-background="new 0 0 100 100" xml:space="preserve"><path d="M66.667,10H20c-3.669,0-6.667,3.001-6.667,6.667v60c0,3.665,2.998,6.666,6.667,6.666h26.667V70h6.666V60  c0-9.189,7.478-16.667,16.667-16.667h3.333V16.667C73.333,13.001,70.332,10,66.667,10z M40,66.667H23.333V60H40V66.667z   M46.667,53.334H23.333v-6.667h23.334V53.334z M53.333,40h-30v-6.667h30V40z M63.333,26.667h-40V20h40V26.667z"></path><path d="M80,70V60c0-5.521-4.479-10-10-10s-10,4.479-10,10v10c0,3.685-2.988,6.667-6.667,6.667v6.666h10  C63.333,87.019,66.318,90,70,90c3.685,0,6.667-2.981,6.667-6.667h10v-6.666C82.985,76.667,80,73.679,80,70z M66.667,70V60  c0-1.843,1.494-3.333,3.333-3.333s3.333,1.49,3.333,3.333v10h0.004c0,2.441,0.703,4.697,1.849,6.667H64.817  C65.964,74.697,66.667,72.441,66.667,70z"></path></svg>