<?xml version="1.0" encoding="utf-8"?>
<!-- Generator: Adobe Illustrator 26.1.0, SVG Export Plug-In . SVG Version: 6.00 Build 0)  -->
<svg version="1.1" id="Layer_1" xmlns="http://www.w3.org/2000/svg" xmlns:xlink="http://www.w3.org/1999/xlink" x="0px" y="0px"
	 viewBox="0 0 752 752" style="enable-background:new 0 0 752 752;" xml:space="preserve">
<style type="text/css">
	.st0{clip-path:url(#SVGID_00000056393035305511148860000016217583463825428665_);}
	.st1{fill-rule:evenodd;clip-rule:evenodd;}
</style>
<g>
	<defs>
		<rect id="SVGID_1_" x="139.2" y="275" width="473.6" height="202"/>
	</defs>
	<clipPath id="SVGID_00000093176598240259502910000012152977239031661474_">
		<use xlink:href="#SVGID_1_"  style="overflow:visible;"/>
	</clipPath>
	<g style="clip-path:url(#SVGID_00000093176598240259502910000012152977239031661474_);">
		<path class="st1" d="M139.2,311.5c0-19.8,16.1-35.9,35.9-35.9h401.8c19.8,0,35.9,16.1,35.9,35.9v129.1c0,19.8-16.1,35.9-35.9,35.9
			H175.1c-19.8,0-35.9-16.1-35.9-35.9L139.2,311.5z M153.6,311.5v129.1c0,11.9,9.6,21.6,21.6,21.6h401.8c11.9,0,21.6-9.7,21.6-21.6
			V311.5c0-11.9-9.6-21.6-21.6-21.6H175.1C163.2,289.9,153.6,299.6,153.6,311.5L153.6,311.5z"/>
	</g>
</g>
<g>
	<path d="M224.6,421.4c-6.5,0-9.8-3.2-9.8-9.7c0-6.3,3.3-9.5,9.8-9.5h11.6v-45.9l-7.8,4.8c-2.2,1.4-4.3,1.9-6.3,1.6
		c-2-0.3-3.6-1.1-5-2.5c-1.4-1.4-2.3-3-2.7-5c-0.4-2-0.3-3.9,0.5-5.9c0.8-2,2.3-3.6,4.6-5l17.8-11.1c3.9-2.4,7.9-3.6,12.2-3.6
		c3.3,0,5.8,0.8,7.6,2.5c1.8,1.7,2.7,4.1,2.7,7.3v62.9H270c6.5,0,9.8,3.2,9.8,9.5c0,6.4-3.3,9.7-9.8,9.7H224.6z"/>
	<path d="M300.2,421.4c-3.8,0-6.5-0.9-8.2-2.6c-1.7-1.8-2.5-4.4-2.5-7.8c0-2.4,0.5-4.5,1.5-6.4c1-1.9,2.4-3.7,4.2-5.5l22.5-23.5
		c3.3-3.5,5.7-6.6,7.1-9.2c1.4-2.6,2.1-5.2,2.1-7.8c0-6.5-4.2-9.8-12.5-9.8c-2.1,0-4.3,0.3-6.6,0.8c-2.4,0.6-4.8,1.5-7.4,2.9
		c-2.3,1.1-4.4,1.4-6.3,1c-1.9-0.5-3.4-1.4-4.6-2.9c-1.2-1.5-2-3.1-2.3-5c-0.3-1.9,0-3.8,0.8-5.6c0.9-1.8,2.4-3.4,4.6-4.6
		c3.9-2.1,8-3.6,12.3-4.6c4.2-1,8.5-1.5,12.8-1.5c10.5,0,18.5,2.3,24,6.8c5.5,4.5,8.3,11.1,8.3,19.7c0,5.5-1.2,10.7-3.7,15.7
		c-2.5,5-6.6,10.3-12.5,16.1l-14.7,14.7h25.6c6.5,0,9.8,3.2,9.8,9.5c0,6.4-3.3,9.7-9.8,9.7H300.2z"/>
	<path d="M394.7,422.8c-4.5,0-8.9-0.4-13.2-1.3c-4.3-0.9-8.1-2.1-11.3-3.6c-2.7-1.3-4.5-2.9-5.7-4.8c-1.1-1.9-1.6-3.8-1.4-5.8
		c0.2-2,0.9-3.7,2.1-5.3c1.2-1.5,2.9-2.6,4.9-3.2c2-0.6,4.3-0.3,6.9,0.8c3.2,1.4,6.1,2.3,8.8,2.8c2.7,0.5,5.3,0.8,8,0.8
		c9.3,0,13.9-3.2,13.9-9.5c0-5.8-4.1-8.8-12.4-8.8h-6.9c-3.3,0-5.7-0.8-7.5-2.4c-1.7-1.6-2.6-3.9-2.6-6.9c0-3,0.9-5.3,2.6-6.9
		c1.7-1.6,4.2-2.4,7.5-2.4h4.6c3.7,0,6.6-0.8,8.7-2.3c2.1-1.5,3.2-3.8,3.2-6.7c0-5.7-4-8.6-12-8.6c-2.4,0-4.8,0.3-7.3,0.8
		c-2.5,0.5-5.1,1.4-8,2.7c-2.2,0.9-4.3,1.2-6.1,0.6c-1.8-0.5-3.4-1.5-4.6-3c-1.2-1.5-1.9-3.2-2.2-5.1c-0.3-1.9,0.1-3.8,1-5.5
		c0.9-1.8,2.6-3.2,4.9-4.4c7.4-3.7,15.6-5.5,24.6-5.5c10.1,0,18,2.2,23.7,6.6c5.7,4.4,8.5,10.5,8.5,18.3c0,4.6-1.2,8.7-3.5,12.2
		c-2.3,3.5-5.5,6.1-9.7,7.7c5.1,1.5,9,4.1,11.8,8c2.8,3.9,4.2,8.5,4.2,14c0,8.2-3.2,14.7-9.5,19.5
		C414.5,420.4,405.8,422.8,394.7,422.8z"/>
</g>
<path class="st1" d="M515.1,392.5l16.5,16.5l16.5-16.5c2.8-2.8,7.3-2.8,10.1,0c2.8,2.8,2.8,7.3,0,10.1l-21.5,21.5
	c-2.8,2.8-7.3,2.8-10.1,0l-21.5-21.5c-2.8-2.8-2.8-7.3,0-10.1C507.7,389.7,512.3,389.7,515.1,392.5L515.1,392.5z"/>
<path class="st1" d="M548,359.5l-16.5-16.5l-16.5,16.5c-2.8,2.8-7.3,2.8-10.1,0c-2.8-2.8-2.8-7.3,0-10.1l21.5-21.5
	c2.8-2.8,7.3-2.8,10.1,0l21.5,21.5c2.8,2.8,2.8,7.3,0,10.1C555.3,362.3,550.8,362.3,548,359.5L548,359.5z"/>
</svg>
