<svg height='300px' width='300px'  fill="#000000" xmlns="http://www.w3.org/2000/svg" viewBox="0 0 32 32" x="0px" y="0px"><title>Artboard 22</title><g data-name="Layer 2"><path d="M8,14.75A6.75,6.75,0,1,1,14.75,8,6.76,6.76,0,0,1,8,14.75Zm0-12A5.25,5.25,0,1,0,13.25,8,5.26,5.26,0,0,0,8,2.75Z"></path><path d="M24,14.75A6.75,6.75,0,1,1,30.75,8,6.76,6.76,0,0,1,24,14.75Zm0-12A5.25,5.25,0,1,0,29.25,8,5.26,5.26,0,0,0,24,2.75Z"></path><path d="M24,30.75A6.75,6.75,0,1,1,30.75,24,6.76,6.76,0,0,1,24,30.75Zm0-12A5.25,5.25,0,1,0,29.25,24,5.26,5.26,0,0,0,24,18.75Z"></path><path d="M8,30.75A6.75,6.75,0,1,1,14.75,24,6.76,6.76,0,0,1,8,30.75Zm0-12A5.25,5.25,0,1,0,13.25,24,5.26,5.26,0,0,0,8,18.75Z"></path><rect x="2" y="2" width="12" height="12" rx="6" ry="6"></rect><rect x="18" y="2" width="12" height="12" rx="6" ry="6"></rect><rect x="18" y="18" width="12" height="12" rx="6" ry="6"></rect><rect x="2" y="18" width="12" height="12" rx="6" ry="6"></rect></g></svg>