<svg height='300px' width='300px'  fill="#000000" xmlns="http://www.w3.org/2000/svg" viewBox="0 0 32 32" x="0px" y="0px"><title>Artboard 21</title><g data-name="Layer 2"><path d="M12.43,14.75H3.57a2.33,2.33,0,0,1-2.32-2.32V3.57A2.33,2.33,0,0,1,3.57,1.25h8.85a2.33,2.33,0,0,1,2.32,2.32v8.85A2.33,2.33,0,0,1,12.43,14.75Zm-8.85-12a.82.82,0,0,0-.82.82v8.85a.82.82,0,0,0,.82.82h8.85a.82.82,0,0,0,.82-.82V3.57a.82.82,0,0,0-.82-.82Z"></path><path d="M28.43,14.75H19.57a2.33,2.33,0,0,1-2.32-2.32V3.57a2.33,2.33,0,0,1,2.32-2.32h8.85a2.33,2.33,0,0,1,2.32,2.32v8.85A2.33,2.33,0,0,1,28.43,14.75Zm-8.85-12a.82.82,0,0,0-.82.82v8.85a.82.82,0,0,0,.82.82h8.85a.82.82,0,0,0,.82-.82V3.57a.82.82,0,0,0-.82-.82Z"></path><path d="M28.43,30.75H19.57a2.33,2.33,0,0,1-2.32-2.32V19.57a2.33,2.33,0,0,1,2.32-2.32h8.85a2.33,2.33,0,0,1,2.32,2.32v8.85A2.33,2.33,0,0,1,28.43,30.75Zm-8.85-12a.82.82,0,0,0-.82.82v8.85a.82.82,0,0,0,.82.82h8.85a.82.82,0,0,0,.82-.82V19.57a.82.82,0,0,0-.82-.82Z"></path><path d="M12.43,30.75A11.19,11.19,0,0,1,1.25,19.57a2.33,2.33,0,0,1,2.32-2.32h8.85a2.33,2.33,0,0,1,2.32,2.32v8.85A2.33,2.33,0,0,1,12.43,30.75Zm-8.85-12a.82.82,0,0,0-.82.82,9.69,9.69,0,0,0,9.68,9.68.82.82,0,0,0,.82-.82V19.57a.82.82,0,0,0-.82-.82Z"></path></g></svg>