<?xml version="1.0" encoding="utf-8"?>
<!-- Generator: Adobe Illustrator 26.1.0, SVG Export Plug-In . SVG Version: 6.00 Build 0)  -->
<svg version="1.1" id="Layer_1" xmlns="http://www.w3.org/2000/svg" xmlns:xlink="http://www.w3.org/1999/xlink" x="0px" y="0px"
	 viewBox="0 0 752 752" style="enable-background:new 0 0 752 752;" xml:space="preserve">
<path d="M376,193c-100.9,0-183,82.1-183,183s82.1,183,183,183s183-82.1,183-183S476.9,193,376,193z M376,513.3
	c-75.7,0-137.2-61.5-137.2-137.2c0-75.7,61.5-137.2,137.2-137.2c75.7,0,137.2,61.5,137.2,137.2C513.2,451.7,451.7,513.3,376,513.3z
	 M742,376c0-47.7-36.6-86.9-83.3-91.2c-4.9-15.3-11.1-30.2-18.4-44.4c13.7-16.4,21.2-36.9,21.2-58.6c0-24.5-9.5-47.5-26.8-64.7
	c-32.6-32.6-88.4-34.8-123.3-5.6c-14.2-7.3-29-13.5-44.4-18.4C462.9,46.6,423.7,10,376,10s-86.9,36.6-91.2,83.3
	c-15.3,4.9-30.2,11.1-44.4,18.4c-34.9-29.2-90.7-27-123.3,5.6c-17.3,17.3-26.8,40.3-26.8,64.7c0,21.6,7.4,42.2,21.2,58.6
	c-7.3,14.3-13.5,29-18.4,44.4C46.6,289.1,10,328.3,10,376c0,47.7,36.6,86.9,83.3,91.2c4.9,15.3,11.1,30.2,18.4,44.4
	c-13.7,16.4-21.2,36.9-21.2,58.6c0,24.5,9.5,47.5,26.8,64.7c32.6,32.6,88.4,34.8,123.3,5.6c14.2,7.3,29,13.5,44.4,18.4
	c4.1,46.6,43.3,83.2,91,83.2c47.7,0,86.9-36.6,91.2-83.3c15.3-4.9,30.2-11.1,44.4-18.4c34.9,29.2,90.6,27,123.3-5.6
	c17.3-17.3,26.8-40.3,26.8-64.7c0-21.6-7.4-42.2-21.2-58.6c7.3-14.3,13.5-29,18.4-44.4C705.4,462.9,742,423.7,742,376L742,376z
	 M641.5,421.7c-10.4,0-19.6,7.1-22.2,17.2c-5.8,22.8-14.9,44.6-26.8,64.7c-5.3,9-3.9,20.5,3.5,27.8l6.3,6.3
	c8.7,8.7,13.4,20.1,13.4,32.4c0,12.2-4.8,23.7-13.4,32.4c-17.3,17.3-47.3,17.3-64.7,0l-6.4-6.3c-7.3-7.3-18.9-8.8-27.8-3.4
	c-20.1,11.9-41.9,20.9-64.6,26.8c-10,2.4-17,11.5-17,22v9c0,25.3-20.5,45.7-45.7,45.7c-25.3,0-45.7-20.5-45.7-45.7v-9
	c0-10.4-7.1-19.6-17.2-22.2c-22.8-5.8-44.6-14.9-64.6-26.8c-3.7-2.2-7.7-3.2-11.7-3.2c-5.9,0-11.8,2.3-16.1,6.6l-6.4,6.4
	c-17.3,17.3-47.3,17.3-64.7,0c-8.7-8.7-13.4-20.1-13.4-32.4c0-12.2,4.8-23.7,13.4-32.4l6.3-6.3c7.3-7.4,8.8-18.9,3.5-27.8
	c-11.9-20.1-20.9-41.9-26.8-64.7c-2.5-10-11.7-17-22.1-17h-9c-25.3,0-45.7-20.5-45.7-45.7c0-25.3,20.5-45.7,45.7-45.7h9
	c10.4,0,19.6-7.1,22.2-17.2c5.8-22.8,14.9-44.6,26.8-64.7c5.3-9,3.9-20.5-3.5-27.8l-6.3-6.3c-8.7-8.7-13.4-20.1-13.4-32.4
	c0-12.2,4.8-23.7,13.4-32.4c17.3-17.3,47.3-17.3,64.7,0l6.4,6.3c7.4,7.3,18.9,8.8,27.8,3.4c20.1-11.9,41.9-20.9,64.6-26.8
	c10.1-2.6,17.2-11.7,17.2-22.2l0-8.8c0-25.3,20.5-45.7,45.7-45.7c25.3,0,45.7,20.5,45.7,45.7v9c0,10.4,7.1,19.6,17.2,22.2
	c22.8,5.8,44.6,14.9,64.6,26.8c8.9,5.3,20.4,3.9,27.8-3.4l6.4-6.4c17.3-17.3,47.3-17.3,64.7,0c8.7,8.7,13.4,20.1,13.4,32.4
	c0,12.2-4.8,23.7-13.4,32.4l-6.3,6.3c-7.3,7.4-8.8,18.9-3.5,27.8c11.9,20.1,20.9,41.9,26.8,64.7c2.6,10.1,11.8,17.2,22.2,17.2l8.8,0
	c25.3,0,45.7,20.5,45.7,45.7c0,25.3-20.5,45.7-45.7,45.7l-9,0L641.5,421.7z"/>
</svg>
