<?xml version="1.0" encoding="utf-8"?>
<!-- Generator: Adobe Illustrator 26.1.0, SVG Export Plug-In . SVG Version: 6.00 Build 0)  -->
<svg version="1.1" id="Layer_1" xmlns="http://www.w3.org/2000/svg" xmlns:xlink="http://www.w3.org/1999/xlink" x="0px" y="0px"
	 viewBox="0 0 752 752" style="enable-background:new 0 0 752 752;" xml:space="preserve">
<g>
	<path d="M541.7,273.5v-91.1c0-91.4-74.3-165.6-165.6-165.6l-0.2,0c-91.4,0-165.6,74.3-165.6,165.6v91.1
		C130.4,297.3,72,371.3,72,458.8v82.8c0,106.7,86.9,193.6,193.6,193.6h220.9c106.7,0,193.6-86.9,193.6-193.6v-82.8
		C680,371.3,621.6,297.3,541.7,273.5z M375.9,71.9h0.2c61.7,0,110.4,48.9,110.4,110.6v83c0,0,0,0,0,0l-220.9,0v-83
		C265.6,120.7,314.2,71.9,375.9,71.9z M624.7,541.6c0,77-61.3,138.3-138.3,138.3H265.5c-77,0-138.3-61.3-138.3-138.3l0-82.8
		c0-77,61.3-138.1,138.3-138.1l0,0h220.9c77,0,138.3,61.1,138.3,138.1V541.6z"/>
	<path d="M403.6,393.2v-17.4c0.1-7.5-2.9-14.7-8.2-19.9c-5.3-5.3-12.5-8.2-20-8l0,0c-15.2,0.3-27.3,12.8-27.1,27.9v17.4
		c-47.5,12.4-82.8,55.8-82.8,107c0,51.2,35.3,94.7,82.8,107v17.4c0,15.3,12.4,27.6,27.6,27.6c15.3,0,27.6-12.4,27.6-27.6v-17.4
		c47.5-12.4,82.8-55.8,82.8-107C486.5,449.1,451.1,405.6,403.6,393.2z M379.8,555.4c-1.4-0.2-2.9-0.3-4.3-0.3l0,0
		c-1.1,0-2.3,0.1-3.4,0.3c-29-1.9-51.3-25.6-51.3-55.1c0-30.4,23.5-54.5,53.6-55.2c0.5,0,1,0,1.6,0c0.5,0,1,0,1.5,0
		c30.1,0.8,53.7,24.9,53.7,55.2C431.2,529.8,408.8,553.4,379.8,555.4z"/>
</g>
</svg>
