<svg height='300px' width='300px'  fill="#000000" xmlns="http://www.w3.org/2000/svg" xmlns:xlink="http://www.w3.org/1999/xlink" version="1.1" x="0px" y="0px" viewBox="0 0 100 100" style="enable-background:new 0 0 100 100;" xml:space="preserve"><path d="M81.5,32.7c-2,0-3.7,1.7-3.7,3.7v44c0,3.6-3,6.6-6.6,6.6H19.7c-3.6,0-6.6-3-6.6-6.6V28.9c0-3.6,3-6.6,6.6-6.6h43.1  c2,0,3.7-1.7,3.7-3.7s-1.7-3.7-3.7-3.7H19.7c-7.7,0-14,6.3-14,14v51.5c0,7.7,6.3,14,14,14h51.5c7.7,0,14-6.3,14-14v-44  C85.2,34.4,83.6,32.7,81.5,32.7z"></path><path d="M68.7,5.6c-2,0-3.7,1.7-3.7,3.7s1.7,3.7,3.7,3.7h12.6L46.8,47.5c-1.4,1.4-1.4,3.8,0,5.2c0.7,0.7,1.7,1.1,2.6,1.1  s1.9-0.4,2.6-1.1l34.9-34.9v12.6c0,2,1.7,3.7,3.7,3.7c2,0,3.7-1.7,3.7-3.7V5.6H68.7z"></path><path d="M18.6,58.8h7.7c1.1,0,2.1,0.1,3,0.3c1,0.2,1.8,0.5,2.5,1c0.7,0.5,1.3,1.1,1.7,1.9c0.4,0.8,0.6,1.8,0.6,3  c0,1.2-0.2,2.2-0.6,3c-0.4,0.8-0.9,1.5-1.6,2c-0.7,0.5-1.5,0.8-2.4,1c-0.9,0.2-1.9,0.3-3,0.3h-3.3v8h-4.5V58.8z M23.1,67.5h3  c0.4,0,0.8,0,1.2-0.1c0.4-0.1,0.7-0.2,1-0.4c0.3-0.2,0.5-0.4,0.7-0.8c0.2-0.3,0.3-0.7,0.3-1.2c0-0.5-0.1-0.9-0.4-1.3  c-0.2-0.3-0.6-0.6-0.9-0.7c-0.4-0.2-0.8-0.3-1.3-0.3c-0.5,0-0.9-0.1-1.3-0.1h-2.3V67.5z"></path><path d="M36.9,58.8h6.8c1.6,0,3.2,0.2,4.7,0.6c1.5,0.4,2.8,1,3.9,1.8c1.1,0.8,2,1.9,2.6,3.2c0.7,1.3,1,2.9,1,4.8  c0,1.7-0.3,3.1-0.9,4.4c-0.6,1.3-1.5,2.3-2.5,3.2c-1.1,0.9-2.3,1.5-3.7,2c-1.4,0.4-2.9,0.7-4.4,0.7h-7.4V58.8z M41.4,75.2h2.4  c1,0,2-0.1,2.9-0.3c0.9-0.2,1.7-0.6,2.3-1.1c0.7-0.5,1.2-1.1,1.6-2c0.4-0.8,0.6-1.8,0.6-3c0-1-0.2-1.9-0.6-2.6  c-0.4-0.7-0.9-1.4-1.5-1.8c-0.6-0.5-1.4-0.8-2.3-1.1C46,63.1,45.1,63,44.1,63h-2.7V75.2z"></path><path d="M59.2,58.8H73V63h-9.3v4.2h8.6v4.2h-8.6v8h-4.5V58.8z"></path></svg>