<?xml version="1.0" encoding="utf-8"?>
<!-- Generator: Adobe Illustrator 26.1.0, SVG Export Plug-In . SVG Version: 6.00 Build 0)  -->
<svg version="1.1" id="Layer_1" xmlns="http://www.w3.org/2000/svg" xmlns:xlink="http://www.w3.org/1999/xlink" x="0px" y="0px"
	 viewBox="0 0 300 300" style="enable-background:new 0 0 300 300;" xml:space="preserve">
<style type="text/css">
	.st0{fill:#9B9B9B;}
</style>
<g>
	<path class="st0" d="M126.3,192.3c7.1,7.3,15.7,11.8,23.9,12.7c8.3,0.8,17.1-1.9,26.8-12.5c3-3.3,6.3-7.1,11.9-8.9
		c5.5-1.8,12.2-0.7,19.3,3c13.5,10,27.5,20.2,40.8,30.5c6.3,6.2,8,14.3,5.9,20.7c-2,6.4-6.4,11.3-10.5,15.3
		c-22.6,23-49.4,34.1-75.6,30.2c-25.4-4.3-49.9-21.6-77.2-48.2l-32.4-31.6c-27.2-26.6-45-50.5-49.4-75.3
		c-5.2-30.6,11.5-55.6,31-73.8c4.2-4,9.1-8.2,15.7-10.2c6.6-2,14.9-0.4,21.3,5.8c10.6,13,21,26.6,31.2,39.8c3.8,6.9,5,13.4,3.1,18.8
		s-5.7,8.6-9.1,11.6c-10.8,9.5-13.6,18.1-12.8,26.2c0.9,7.9,5.5,16.3,13,23.3 M93.9,178.8c-8.8-8.3-15.7-18.9-16.8-31.1
		c-1.2-12.2,4-25.4,17.1-36.9c3.2-2.8,4.9-4.7,5.4-6.1c0.5-1.4,0.6-3.4-2.1-8.4L68.4,59.1c-3.7-3.7-5.3-3.5-8.1-2.7
		c-2.8,0.9-6.8,3.7-10.4,7.2c-23.4,22.9-30.8,42.2-27.2,62.5c3.6,20.3,19.3,42.7,45.7,68.4c10.8,10.6,22.8,22.2,32.4,31.6
		c26.4,25.8,49.3,41.1,70.1,44.6c20.8,3.5,40.6-3.7,64.1-26.5c3.6-3.6,6.5-7.4,7.4-10.2c0.9-2.8,1-4.2-2.7-7.9l-38-28.4
		c-5.1-2.6-7.2-2.5-8.6-2c-1.4,0.5-3.4,2.2-6.3,5.3c-11.8,12.8-25.3,17.9-37.8,16.7c-12.5-1.2-23.4-7.9-31.9-16.4"/>
	<path class="st0" d="M132.8,22.7c0.2,3.3,3.5,6.2,6.9,6c76,0,137.4,60,137.4,134.1c0,3.4,3.1,6.5,6.5,6.5c3.5,0,6.6-3.1,6.5-6.5
		c0-81-67.5-146.9-150.5-146.9C135.8,15.9,132.7,19.4,132.8,22.7L132.8,22.7z M132.8,61c0.2,3.3,3.5,6.2,6.9,6
		c54.3,0,98.2,42.8,98.2,95.8c0,3.4,3.1,6.5,6.5,6.5c3.5,0,6.6-3.1,6.5-6.5c0-59.9-49.9-108.6-111.3-108.6
		C135.6,54.3,132.7,57.9,132.8,61L132.8,61z"/>
</g>
</svg>
