<?xml version="1.0" encoding="utf-8"?>
<!-- Generator: Adobe Illustrator 26.1.0, SVG Export Plug-In . SVG Version: 6.00 Build 0)  -->
<svg version="1.1" id="Layer_1" xmlns="http://www.w3.org/2000/svg" xmlns:xlink="http://www.w3.org/1999/xlink" x="0px" y="0px"
	 viewBox="0 0 300 300" style="enable-background:new 0 0 300 300;" xml:space="preserve">
<style type="text/css">
	.st0{fill:#9B9B9B;}
</style>
<g>
	<path class="st0" d="M227.6,54.6c-42.5-42.9-112.4-42.9-155.3,0s-42.9,112.4,0,155.3l73,73c1.3,1.3,2.9,1.9,4.4,1.9
		c1.6,0,3.2-0.6,4.4-1.9l73-73C270.5,167,270.5,97.5,227.6,54.6L227.6,54.6z M218.7,201l-68.6,68.6L81.5,201
		c-37.8-37.8-37.8-99.4,0-137.2s99.4-37.8,137.2,0C256.5,101.3,256.8,162.9,218.7,201L218.7,201z"/>
	<path class="st0" d="M150.1,71.8c-32.7,0-59.4,26.7-59.4,59.4c0,32.7,26.7,59.4,59.4,59.4s59.4-26.7,59.4-59.4
		C209.5,98.5,182.8,71.8,150.1,71.8L150.1,71.8z M150.1,177.8c-25.7,0-46.7-21-46.7-46.7c0-25.7,21-46.7,46.7-46.7
		s46.7,21,46.7,46.7S175.9,177.8,150.1,177.8z"/>
</g>
</svg>
