<svg height='300px' width='300px'  fill="#6d7479" xmlns="http://www.w3.org/2000/svg" viewBox="0 0 64 64" x="0px" y="0px"><title>Preview-website-view-eye-prototype-ui</title><g><rect x="6.43" y="8.67" width="1.83" height="2"></rect><rect x="10.08" y="8.67" width="1.83" height="2"></rect><rect x="13.73" y="8.67" width="1.83" height="2"></rect><rect x="7.34" y="31.49" width="17.35" height="2"></rect><rect x="7.34" y="35.15" width="10.96" height="2"></rect><rect x="7.34" y="38.8" width="17.35" height="2"></rect><rect x="7.34" y="42.45" width="17.35" height="2"></rect><path d="M34.19,22a3.5,3.5,0,1,0-3.5-3.5A3.51,3.51,0,0,0,34.19,22Zm0-5a1.5,1.5,0,1,1-1.5,1.5A1.5,1.5,0,0,1,34.19,17Z"></path><rect x="6.69" y="17.02" width="15" height="2"></rect><path d="M7.69,26h17a1,1,0,0,0,1-1V21a1,1,0,0,0-1-1h-17a1,1,0,0,0-1,1v4A1,1,0,0,0,7.69,26Zm1-4h15v2h-15Z"></path><path d="M61.19,47.53a19.71,19.71,0,0,0-3.54-4.67V6a1,1,0,0,0-1-1h-53a1,1,0,0,0-1,1V48a1,1,0,0,0,1,1H26.13a20.14,20.14,0,0,0,35.06-.54A1,1,0,0,0,61.19,47.53ZM55.65,19.42l-8.84,4.41-4.5-3.6a1,1,0,0,0-1-.12L29.69,25.45V14.32h26Zm-28,8.42h-23V14.32h23Zm2-.18,11.86-5.48,4.52,3.62a1,1,0,0,0,1.07.11l8.51-4.26v6.19h-26ZM55.65,7v5.3h-51V7Zm-51,22.82h51V41.1c-.41-.31-.83-.6-1.26-.88l-.07,0c-.5-.32-1-.61-1.54-.88L52.27,39c-.36-.18-.73-.35-1.1-.5l-.62-.24c-.35-.13-.7-.25-1.06-.36l-.66-.2c-.36-.1-.73-.18-1.09-.26l-.66-.14c-.4-.07-.8-.12-1.2-.17l-.58-.07c-.59-.05-1.19-.08-1.8-.08-.45,0-.91,0-1.36,0l-.45,0-.89.09c-.18,0-.35.06-.53.09l-.79.13-.56.13c-.24.06-.49.11-.73.18l-.57.17-.69.22-.57.22-.67.25-.56.26-.63.29-.55.3c-.21.11-.41.21-.61.33l-.53.33-.58.37c-.18.12-.34.24-.51.37l-.56.41-.49.39-.53.45-.46.43-.5.48c-.15.15-.29.31-.43.46s-.32.34-.47.52l-.4.48c-.15.19-.3.37-.44.56l-.37.51c-.14.2-.28.39-.41.59s-.23.36-.34.54-.15.23-.22.36H4.69ZM43.5,57a18.13,18.13,0,0,1-15.65-9l.22-.38c.11-.16.21-.33.31-.49s.24-.35.37-.52.21-.31.33-.46l.4-.5c.12-.14.23-.29.36-.43l.42-.46.39-.41.46-.44.4-.37.49-.41.43-.35c.16-.13.33-.25.51-.37a5.15,5.15,0,0,1,.45-.32c.17-.12.35-.22.53-.33l.47-.3.55-.3.49-.26.57-.26.5-.23.6-.23.51-.19.62-.19.51-.16.66-.16.5-.11c.23-.05.47-.08.7-.12l.48-.08c.27,0,.53-.06.8-.08l.4,0c.41,0,.81,0,1.22,0a16.88,16.88,0,0,1,1.74.08A18.2,18.2,0,0,1,59.16,48,18.12,18.12,0,0,1,43.5,57Z"></path><path d="M43.69,41a7,7,0,1,0,7,7A7,7,0,0,0,43.69,41Zm0,12a5,5,0,1,1,5-5A5,5,0,0,1,43.69,53Z"></path></g></svg>