<svg height='300px' width='300px'  fill="#000000" xmlns="http://www.w3.org/2000/svg" data-name="Layer 1" viewBox="0 0 100 100" x="0px" y="0px"><title>117all</title><path d="M70.45,11H29.55A18.55,18.55,0,0,0,11,29.55v40.9A18.54,18.54,0,0,0,29.55,89h40.9A18.54,18.54,0,0,0,89,70.45V29.55A18.55,18.55,0,0,0,70.45,11ZM81,70.45A10.54,10.54,0,0,1,70.45,81H29.55A10.54,10.54,0,0,1,19,70.45V29.55A10.54,10.54,0,0,1,29.55,19h40.9A10.54,10.54,0,0,1,81,29.55Z"></path><rect x="46" y="29.61" width="8" height="25.05"></rect><rect x="46" y="59.5" width="8" height="10.89"></rect></svg>