<?xml version="1.0" encoding="utf-8"?>
<!-- Generator: Adobe Illustrator 26.1.0, SVG Export Plug-In . SVG Version: 6.00 Build 0)  -->
<svg version="1.1" id="Layer_1" xmlns="http://www.w3.org/2000/svg" xmlns:xlink="http://www.w3.org/1999/xlink" x="0px" y="0px"
	 viewBox="0 0 300 300" style="enable-background:new 0 0 300 300;" xml:space="preserve">
<style type="text/css">
	.st0{fill:#9B9B9B;}
</style>
<path class="st0" d="M234.6,133.3h-3.5V94.6c0-44.7-36.4-81.1-81.1-81.1c-44.7,0-81.1,36.4-81.1,81.1v38.7h-3.5c-11,0-20,9-20,20
	v113.1c0,11,9,20,20,20h169.2c11,0,20-9,20-20V153.4C254.6,142.3,245.6,133.3,234.6,133.3z M84.7,94.6c0-36,29.3-65.3,65.3-65.3
	c36,0,65.3,29.3,65.3,65.3v38.7H84.7V94.6z M238.8,266.5c0,2.3-1.9,4.2-4.2,4.2H65.4c-2.3,0-4.2-1.9-4.2-4.2V153.4
	c0-2.3,1.9-4.2,4.2-4.2h169.2c2.3,0,4.2,1.9,4.2,4.2V266.5z"/>
</svg>
