<?xml version="1.0" encoding="utf-8"?>
<!-- Generator: Adobe Illustrator 26.1.0, SVG Export Plug-In . SVG Version: 6.00 Build 0)  -->
<svg version="1.1" id="Layer_1" xmlns="http://www.w3.org/2000/svg" xmlns:xlink="http://www.w3.org/1999/xlink" x="0px" y="0px"
	 viewBox="0 0 752 752" style="enable-background:new 0 0 752 752;" xml:space="preserve">
<path d="M689.2,315.1L641.4,363c-3.1-58.9-25.6-115.1-64.1-159.8s-90.6-75.5-148.4-87.4l-83.4-83.4c-8.7-6.5-20.8-5.6-28.4,2
	s-8.5,19.8-2,28.4l47.9,47.9c-59,2.9-115.4,25.4-160.3,63.9C157.8,213,127,265.2,115,323.1l-82.6,82.6c-6.5,8.7-5.6,20.8,2,28.4
	s19.8,8.5,28.4,2l47.1-47.1c3.1,58.9,25.6,115.1,64.1,159.8s90.6,75.5,148.4,87.4l83.4,83.4c8.7,6.5,20.8,5.6,28.4-2
	c7.7-7.7,8.5-19.8,2-28.4l-47.9-47.9c58.9-2.9,115.2-25.3,160.1-63.6c44.9-38.3,75.8-90.4,87.9-148.1l83.4-83.4
	c6.5-8.7,5.6-20.8-2-28.4c-7.7-7.7-19.8-8.5-28.4-2L689.2,315.1z M381.8,598.6l55.1-55.1c6.5-8.7,5.6-20.8-2-28.4
	c-7.6-7.7-19.8-8.5-28.4-2l-79.7,79.7c-48.2-10.9-91.4-37.6-122.8-75.8c-31.4-38.2-49.1-85.8-50.5-135.2l55.1,55.1
	c8.7,6.5,20.8,5.6,28.4-2c7.7-7.6,8.5-19.8,2-28.4L159.2,326c11.1-48.1,37.8-91.1,76-122.3c38.2-31.2,85.7-48.9,135-50.2l-55.1,55.1
	c-6.5,8.7-5.6,20.8,2,28.4c7.7,7.7,19.8,8.5,28.4,2l79.7-79.7c48.1,11.1,91.1,37.8,122.3,76c31.2,38.2,48.9,85.7,50.2,135
	l-54.4-54.4v0c-8.7-6.5-20.8-5.6-28.4,2c-7.7,7.6-8.5,19.8-2,28.4l79.7,79.7c-11.1,48.1-37.8,91.1-76,122.3
	C478.6,579.6,431.1,597.3,381.8,598.6L381.8,598.6z"/>
</svg>
