<?xml version="1.0" encoding="UTF-8"?>
<svg width="752pt" height="752pt" version="1.1" viewBox="0 0 752 752" xmlns="http://www.w3.org/2000/svg">
 <defs>
  <clipPath id="a">
   <path d="m139.21 218h473.58v316h-473.58z"/>
  </clipPath>
 </defs>
 <g clip-path="url(#a)">
  <path d="m268.37 469.28c0 35.645-28.957 64.582-64.582 64.582-35.645 0-64.578-28.957-64.578-64.582 0-35.645 28.957-64.578 64.578-64.578 35.645 0 64.582 28.957 64.582 64.578zm-14.352 0c0-27.699-22.512-50.227-50.23-50.227-27.699 0-50.227 22.512-50.227 50.227 0 27.699 22.512 50.23 50.227 50.23 27.699 0 50.23-22.512 50.23-50.23zm14.352-186.56c0 35.648-28.957 64.582-64.582 64.582-35.645 0-64.578-28.957-64.578-64.582 0-35.645 28.957-64.578 64.578-64.578 35.645 0 64.582 28.957 64.582 64.578zm-14.352 0c0-27.699-22.512-50.227-50.23-50.227-27.699 0-50.227 22.512-50.227 50.227 0 27.699 22.512 50.23 50.227 50.23 27.699 0 50.23-22.512 50.23-50.23zm-28.703 0c0 11.891-9.6602 21.527-21.527 21.527-11.887 0-21.523-9.6602-21.523-21.527 0-11.887 9.6602-21.523 21.523-21.523 11.891 0 21.527 9.6602 21.527 21.523zm107.63 7.1758c-3.9648 0-7.1758-3.2109-7.1758-7.1758 0-3.9609 3.2109-7.1758 7.1758-7.1758h272.67c3.9609 0 7.1758 3.2148 7.1758 7.1758 0 3.9648-3.2148 7.1758-7.1758 7.1758zm0 186.56c-3.9648 0-7.1758-3.2109-7.1758-7.1758 0-3.9609 3.2109-7.1758 7.1758-7.1758h200.91c3.9609 0 7.1758 3.2148 7.1758 7.1758 0 3.9648-3.2148 7.1758-7.1758 7.1758z" fill-rule="evenodd"/>
 </g>
</svg>
