<svg height='300px' width='300px'  fill="#474b52" xmlns="http://www.w3.org/2000/svg" xmlns:xlink="http://www.w3.org/1999/xlink" version="1.1" x="0px" y="0px" viewBox="0 0 100 100" enable-background="new 0 0 100 100" xml:space="preserve"><g><path fill="#474b52" d="M6.7,50.9c0-0.3,0-0.6,0-0.9C6.7,26.1,26.1,6.7,50,6.7c1.4,0,2.7,0.1,4.1,0.2c0.5,0,1,0.1,1.5,0.2   c0.8,0.1,1.6,0.2,2.5,0.4c0.6,0.1,1.2,0.3,1.8,0.4c0.6,0.1,1.3,0.3,1.9,0.5c0.7,0.2,1.4,0.4,2.1,0.6c0.5,0.2,0.9,0.3,1.4,0.5   c0.8,0.3,1.6,0.6,2.4,0.9c0,0,0.1,0,0.1,0c3.2,1.4,6.2,3.2,8.9,5.3l3.3-5.9c0,0,0,0,0,0C75.9,7,71.6,4.7,66.9,3   c-0.4-0.1-0.8-0.3-1.2-0.4c-0.8-0.3-1.6-0.5-2.4-0.7c-0.7-0.2-1.4-0.4-2.1-0.5c-0.7-0.2-1.4-0.3-2.1-0.4c-0.9-0.2-1.9-0.3-2.8-0.4   c-0.6-0.1-1.1-0.2-1.7-0.2C53.1,0.1,51.6,0,50,0C39.6,0,30,3.1,22,8.5c-2,1.3-3.9,2.8-5.7,4.4c-1.8,1.6-3.4,3.4-5,5.2   c-3.1,3.7-5.6,7.9-7.5,12.3c-1.3,3-2.2,6.1-2.9,9.4C0.3,43.2,0,46.5,0,50c0,1.5,0.1,3,0.2,4.5c0,0.3,0.1,0.7,0.1,1   C0.5,57,0.7,58.4,1,59.8c0.1,0.3,0.1,0.6,0.2,0.9c0.3,1.2,0.5,2.3,0.9,3.4c0.1,0.4,0.2,0.8,0.3,1.2c0.4,1.2,0.9,2.5,1.3,3.7   c0.2,0.4,0.4,0.9,0.6,1.3c0.4,0.9,0.9,1.8,1.3,2.7c0.2,0.4,0.4,0.7,0.6,1.1c0,0,0,0,0,0l4.1-6.8l9.9-16.4H6.7z"></path><path fill="#474b52" d="M99.8,45.5c0-0.3-0.1-0.7-0.1-1c-0.2-1.4-0.4-2.9-0.6-4.2c-0.1-0.3-0.1-0.6-0.2-0.9   c-0.3-1.2-0.5-2.3-0.9-3.4c-0.1-0.4-0.2-0.8-0.3-1.2c-0.4-1.2-0.9-2.5-1.3-3.7c-0.2-0.4-0.4-0.9-0.6-1.3c-0.4-0.9-0.9-1.8-1.3-2.7   c-0.2-0.4-0.4-0.7-0.6-1.1c0,0,0,0,0,0l-4.1,6.8l-9.9,16.4h13.5c0,0.3,0,0.6,0,0.9c0,23.9-19.4,43.3-43.3,43.3   c-1.4,0-2.7-0.1-4.1-0.2c-0.5,0-1-0.1-1.5-0.2c-0.8-0.1-1.6-0.2-2.5-0.4c-0.6-0.1-1.2-0.3-1.8-0.4c-0.6-0.1-1.3-0.3-1.9-0.5   c-0.7-0.2-1.4-0.4-2.1-0.6c-0.5-0.2-0.9-0.3-1.4-0.5c-0.8-0.3-1.6-0.6-2.4-0.9c0,0-0.1,0-0.1,0c-3.2-1.4-6.2-3.2-8.9-5.3l-3.3,5.9   c0,0,0,0,0,0c3.9,2.9,8.2,5.2,12.9,6.9c0.4,0.1,0.8,0.3,1.2,0.4c0.8,0.3,1.6,0.5,2.4,0.7c0.7,0.2,1.4,0.4,2.1,0.5   c0.7,0.2,1.4,0.3,2.1,0.4c0.9,0.2,1.9,0.3,2.8,0.4c0.6,0.1,1.1,0.2,1.7,0.2c1.5,0.1,3.1,0.2,4.7,0.2c10.4,0,20-3.1,28-8.5   c4-2.7,7.6-6,10.6-9.7c3.1-3.7,5.6-7.9,7.5-12.3c1.3-3,2.2-6.1,2.9-9.4c0.7-3.3,1-6.6,1-10.1C100,48.5,99.9,47,99.8,45.5z"></path></g></svg>