<svg height='300px' width='300px'  fill="#000000" xmlns="http://www.w3.org/2000/svg" xmlns:xlink="http://www.w3.org/1999/xlink" version="1.1" x="0px" y="0px" viewBox="1 -1 100 100" style="enable-background:new 1 -1 100 100;" xml:space="preserve"><g><path d="M80.9,80.8V21.9H88v-6H69.2v-2.8c0-5-4-9-9-9H41.8c-5,0-9,4-9,9v2.8H14v6h7.1v59c0,7.2,5.8,13,13,13h33.8   C75,93.8,80.9,88,80.9,80.8z M38.8,13.1c0-1.7,1.3-3,3-3h18.3c1.7,0,3,1.3,3,3v2.8H38.8V13.1z M27.1,80.8V21.9h47.8v59   c0,3.9-3.1,7-7,7H34.1C30.3,87.8,27.1,84.7,27.1,80.8z"></path><rect x="48" y="31.4" width="6" height="46.2"></rect><rect x="59" y="31.4" width="6" height="46.2"></rect><rect x="37" y="31.4" width="6" height="46.2"></rect></g></svg>