<?xml version="1.0" encoding="utf-8"?>
<!-- Generator: Adobe Illustrator 26.1.0, SVG Export Plug-In . SVG Version: 6.00 Build 0)  -->
<svg version="1.1" id="Layer_1" xmlns="http://www.w3.org/2000/svg" xmlns:xlink="http://www.w3.org/1999/xlink" x="0px" y="0px"
	 viewBox="0 0 300 300" style="enable-background:new 0 0 300 300;" xml:space="preserve">
<style type="text/css">
	.st0{fill:#9B9B9B;}
</style>
<g>
	<path class="st0" d="M252.7,59c-16-16-35.9-27.5-57.7-33.3c-21.8-5.9-44.8-5.9-66.6,0C106.6,31.5,86.6,43,70.7,59c-3,3-3,8,0,11
		c3,3,8,3,11,0c21.2-21.2,50-33.1,80-33.1c30,0,58.8,11.9,80,33.1c21.2,21.2,33.1,50,33.1,80s-11.9,58.8-33.1,80s-50,33.1-80,33.1
		s-58.8-11.9-80-33.1c-3-3-8-3-11,0c-3,3-3,8,0,11c24.1,24.1,56.9,37.7,91,37.7c34.1,0,66.9-13.6,91-37.7
		c24.1-24.1,37.7-56.9,37.7-91C290.5,115.9,276.9,83.1,252.7,59L252.7,59z"/>
	<path class="st0" d="M161.7,56.8c-4.3,0-7.8,3.5-7.8,7.8V150c0,2.1,0.8,4.1,2.3,5.5l42.7,42.7c3,3,8,3,11,0c3-3,3-8,0-11
		l-40.4-40.4V64.6C169.5,60.3,166,56.8,161.7,56.8L161.7,56.8z"/>
	<path class="st0" d="M111,150c0-2.1-0.8-4.1-2.3-5.5c-1.5-1.5-3.4-2.3-5.5-2.3H17.4c-4.3,0-7.8,3.5-7.8,7.8c0,4.3,3.5,7.8,7.8,7.8
		h85.8c2.1,0,4.1-0.8,5.5-2.3C110.2,154.1,111,152.1,111,150L111,150z"/>
	<path class="st0" d="M48.6,111h54.6c4.3,0,7.8-3.5,7.8-7.8c0-4.3-3.5-7.8-7.8-7.8H48.6c-4.3,0-7.8,3.5-7.8,7.8
		C40.8,107.5,44.3,111,48.6,111L48.6,111z"/>
	<path class="st0" d="M111,196.8c0-2.1-0.8-4.1-2.3-5.5c-1.5-1.5-3.4-2.3-5.5-2.3H48.6c-4.3,0-7.8,3.5-7.8,7.8
		c0,4.3,3.5,7.8,7.8,7.8h54.6c2.1,0,4.1-0.8,5.5-2.3C110.2,200.9,111,198.9,111,196.8L111,196.8z"/>
</g>
</svg>
