<?xml version="1.0" encoding="utf-8"?>
<!-- Generator: Adobe Illustrator 26.1.0, SVG Export Plug-In . SVG Version: 6.00 Build 0)  -->
<svg version="1.1" id="Layer_1" xmlns="http://www.w3.org/2000/svg" xmlns:xlink="http://www.w3.org/1999/xlink" x="0px" y="0px"
	 viewBox="0 0 300 300" style="enable-background:new 0 0 300 300;" xml:space="preserve">
<style type="text/css">
	.st0{fill:#6E7479;}
</style>
<g>
<path class="st0" d="M95,159.7c3,2.5,4.4,6.5,3.7,10.3c-0.7,3.9-3.4,7.1-7.1,8.4c-3.7,1.3-7.8,0.6-10.8-1.9l-57.9-48.4
	c-2.5-2.1-3.9-5.2-3.9-8.4c0-3.2,1.4-6.3,3.9-8.4l57.9-49c3-2.5,7.1-3.3,10.8-1.9c3.7,1.3,6.4,4.5,7.1,8.4c0.7,3.9-0.7,7.8-3.7,10.3
	l-48,40.2L95,159.7z M151.1,108.4h-36.3l35-29.4c2.6-2.6,3.8-6.4,3-10c-0.8-3.6-3.3-6.6-6.8-8c-3.5-1.3-7.4-0.8-10.4,1.3l-57.9,48.6
	c-2.5,2.1-3.9,5.2-3.9,8.4c0,3.2,1.4,6.3,3.9,8.4l57.9,48.8c2,1.7,4.4,2.6,7,2.6c3,0,6-1.2,8.1-3.4c2.1-2.2,3.2-5.2,3-8.2
	c-0.2-3-1.6-5.9-4-7.8l-35-29.4h36.3c26.3,0,51.5,10.5,70.1,29.1c18.6,18.6,29.1,43.8,29.1,70.1c0,3.9,2.1,7.5,5.5,9.5s7.6,2,11,0
	c3.4-2,5.5-5.6,5.5-9.5c-0.1-32.1-12.8-62.9-35.6-85.6C214,121.2,183.2,108.4,151.1,108.4L151.1,108.4z"/>
</g>
</svg>