<?xml version="1.0" encoding="utf-8"?>
<!-- Generator: Adobe Illustrator 26.1.0, SVG Export Plug-In . SVG Version: 6.00 Build 0)  -->
<svg version="1.1" id="Layer_1" xmlns="http://www.w3.org/2000/svg" xmlns:xlink="http://www.w3.org/1999/xlink" x="0px" y="0px"
	 viewBox="0 0 752 752" style="enable-background:new 0 0 752 752;" xml:space="preserve">
<style type="text/css">
	.st0{fill:#424242;}
</style>
<path class="st0" d="M468.1,411.3L408,376.6l60.1-34.7c7.4-4.3,10-13.8,5.7-21.4c-4.3-7.4-13.8-10-21.4-5.7l-60.1,34.7v-70.8
	c0-8.6-6.9-15.7-15.7-15.7c-8.6,0-15.7,6.9-15.7,15.7v70.8l-61.3-35.4c-7.4-4.3-17.1-1.7-21.4,5.7c-4.3,7.4-1.7,17.1,5.7,21.4
	l61.3,35.4L284.2,412c-7.4,4.3-10,13.8-5.7,21.4c2.9,5,8.1,7.8,13.5,7.8c2.6,0,5.2-0.7,7.8-2.1l61.3-35.4v69.6
	c0,8.6,6.9,15.7,15.7,15.7c8.6,0,15.7-6.9,15.7-15.7v-69.6l60.1,34.7c2.4,1.4,5.2,2.1,7.8,2.1c5.5,0,10.7-2.9,13.5-7.8
	C478.1,425.3,475.7,415.6,468.1,411.3L468.1,411.3z"/>
</svg>
