<?xml version="1.0" encoding="utf-8"?>
<!-- Generator: Adobe Illustrator 26.1.0, SVG Export Plug-In . SVG Version: 6.00 Build 0)  -->
<svg version="1.1" id="Layer_1" xmlns="http://www.w3.org/2000/svg" xmlns:xlink="http://www.w3.org/1999/xlink" x="0px" y="0px"
	 viewBox="0 0 300 300" style="enable-background:new 0 0 300 300;" xml:space="preserve">
<style type="text/css">
	.st0{fill:#6E7479;}
</style>
<g>
	<path class="st0" d="M134.6,277.1c-1.3-0.7-2.8-0.9-4.2-0.5c-2.3,0.7-4.6,1-6.8,1c-9.8,0-17.8-6.5-21-9.6v-85.5c0-1.5-0.6-3-1.7-4
		l-75.8-72.3c-6.7-7.6-10.6-18.6-10.6-30V52.1c7.1,4.1,17.6,7.5,31.4,10.4c21.2,4.3,50.2,6.9,77.7,6.9c27.4,0,56.5-2.6,77.7-6.9
		c13.9-2.8,24.4-6.3,31.4-10.4v24.2c0,11.4-3.8,22.3-10.3,29.7l-46.1,44c-2.2,2.1-2.3,5.6-0.2,7.8c1,1.1,2.5,1.7,4,1.7v0
		c1.4,0,2.7-0.5,3.8-1.5l46.4-44.3c8.5-9.6,13.3-23.2,13.3-37.3V37.7c0-0.3,0-0.6-0.1-0.8c-0.7-10.3-14.9-18.4-42.4-24
		C180.1,8.6,151.1,6,123.7,6C96.2,6,67.2,8.6,46,12.9C18.4,18.6,4.1,26.7,3.6,37.1c0,0.2,0,0.4,0,0.6v38.6c0,14.1,5,27.8,13.7,37.7
		l74.4,71v85.4c0,1.3,0.5,2.6,1.3,3.6c0.5,0.6,12.7,14.8,30.6,14.8l0.7,0l0,0c3.1-0.1,6.2-0.5,9.2-1.4c2.9-0.9,4.6-3.9,3.7-6.8
		C136.8,279,135.9,277.9,134.6,277.1z M14.6,37.7C14.6,32,48.1,17,123.7,17c65.1,0,100.7,11.4,107.8,18.5c0.8,0.8,1.3,1.6,1.3,2.2
		c0,5.7-33.5,20.7-109.1,20.7C48.1,58.4,14.6,43.4,14.6,37.7z"/>
	<path class="st0" d="M187.1,163.6c-35.9,0-65.2,29.3-65.2,65.3s29.2,65.3,65.2,65.3c35.9,0,65.2-29.3,65.2-65.3
		S223,163.6,187.1,163.6z M241.3,228.9c0,30-24.3,54.3-54.2,54.3c-29.9,0-54.2-24.4-54.2-54.3c0-30,24.3-54.3,54.2-54.3
		C217,174.6,241.3,199,241.3,228.9z"/>
	<path class="st0" d="M213.2,202.8c-1-1-2.4-1.6-3.9-1.6c0,0,0,0,0,0c-1.5,0-2.8,0.6-3.9,1.6l-18.4,18.4l-18.4-18.4
		c-1-1-2.4-1.6-3.9-1.6c0,0,0,0,0,0c-1.5,0-2.8,0.6-3.9,1.6c-2.1,2.1-2.1,5.6,0,7.8l18.4,18.4L161,247.4c-2.1,2.1-2.1,5.6,0,7.8
		c1,1,2.4,1.6,3.9,1.6c1.5,0,2.8-0.6,3.9-1.6l18.4-18.4l18.4,18.4c1,1,2.4,1.6,3.9,1.6c1.5,0,2.8-0.6,3.9-1.6c2.1-2.1,2.1-5.6,0-7.8
		L194.8,229l18.4-18.4C215.3,208.4,215.3,204.9,213.2,202.8z"/>
</g>
</svg>
