<?xml version="1.0" encoding="utf-8"?>
<!-- Generator: Adobe Illustrator 26.1.0, SVG Export Plug-In . SVG Version: 6.00 Build 0)  -->
<svg version="1.1" id="Layer_1" xmlns="http://www.w3.org/2000/svg" xmlns:xlink="http://www.w3.org/1999/xlink" x="0px" y="0px"
	 viewBox="0 0 300 300" style="enable-background:new 0 0 300 300;" xml:space="preserve">
<style type="text/css">
	.st0{fill:#898989;}
</style>
<g>
	<path class="st0" d="M280.2,221.3l-45.8-45.8c11.7-15,18.7-33.9,18.7-54.4c0-48.8-39.7-88.5-88.5-88.5c-48.8,0-88.5,39.7-88.5,88.5
		s39.7,88.5,88.5,88.5c20.7,0,39.7-7.1,54.7-19l45.7,45.7c2.1,2.1,4.8,3.1,7.5,3.1c2.7,0,5.4-1,7.5-3.1
		C284.4,232.2,284.4,225.4,280.2,221.3z M235.8,121.1c0,39.2-31.9,71.1-71.1,71.1c-39.2,0-71.1-31.9-71.1-71.1
		c0-39.2,31.9-71.1,71.1-71.1c19.2,0,37.3,7.5,50.7,21C228.7,84.4,235.9,102.2,235.8,121.1z"/>
	<path class="st0" d="M35.7,197.1H66c4.8,0,8.7-3.9,8.7-8.7s-3.9-8.7-8.7-8.7H35.7c-5,0-8.7,3.7-8.7,8.7
		C27,193.2,30.9,197.1,35.7,197.1z"/>
	<path class="st0" d="M35.7,228.9h57c4.8,0,8.7-3.9,8.7-8.7s-3.9-8.7-8.7-8.7h-57c-5,0-8.7,3.7-8.7,8.7
		C27,225,30.9,228.9,35.7,228.9z"/>
	<path class="st0" d="M115.5,243.3H35.7c-5,0-8.7,3.7-8.7,8.7c0,4.8,3.9,8.7,8.7,8.7h79.8c4.8,0,8.7-3.9,8.7-8.7
		S120.3,243.3,115.5,243.3z"/>
</g>
</svg>
