<svg height='300px' width='300px'  fill="#000000" xmlns="http://www.w3.org/2000/svg" data-name="Layer 1" viewBox="0 0 512 512" x="0px" y="0px"><title>Security Shield</title><path d="M383.184,285.7a6,6,0,0,0,5.279,3.149H434.33a188.8,188.8,0,0,1-64.314,117.64c-33.183,28.453-74.868,44.771-114.366,44.771-25.76,0-52.694-6.944-77.89-20.081a193.577,193.577,0,0,1-66.346-56.909,6,6,0,0,0-9.682,7.091,205.629,205.629,0,0,0,70.48,60.458c26.9,14.027,55.754,21.441,83.438,21.441,42.321,0,86.852-17.372,122.176-47.661a200.771,200.771,0,0,0,68.606-126.75H496a6,6,0,0,0,5.018-9.29l-53.769-81.983a6,6,0,0,0-10.035,0l-53.769,81.983A6,6,0,0,0,383.184,285.7ZM442.231,211.8l42.659,65.042H399.573Z"></path><path d="M64.751,314.428a6,6,0,0,0,10.035,0l53.769-81.983a6,6,0,0,0-5.018-9.29H77.67a188.8,188.8,0,0,1,64.314-117.64c33.183-28.453,74.868-44.771,114.366-44.771,25.76,0,52.694,6.944,77.89,20.081a193.577,193.577,0,0,1,66.346,56.909,6,6,0,0,0,9.682-7.091,205.629,205.629,0,0,0-70.48-60.458c-26.9-14.027-55.754-21.441-83.438-21.441-42.321,0-86.852,17.372-122.176,47.661a200.771,200.771,0,0,0-68.606,126.75H16a6,6,0,0,0-5.018,9.29Zm47.676-79.273L69.769,300.2,27.11,235.155Z"></path><path d="M252.619,394.524a6,6,0,0,0,6.762,0l70.9-48.354c21.348-14.555,38.071-46.181,38.071-72v-99.5A6,6,0,0,0,365,169.282L258.646,117.048a6,6,0,0,0-5.285,0L147.012,169.13a6,6,0,0,0-3.362,5.389V274.17c0,25.819,16.723,57.445,38.07,72ZM155.65,274.17V178.261L256,129.116,356.35,178.405V274.17c0,21.892-14.728,49.743-32.831,62.086L256,382.3l-67.52-46.049C170.685,324.122,155.65,295.69,155.65,274.17Z"></path><path d="M238.933,288.545a6,6,0,0,0,8.382,0l57.876-56.5a6,6,0,1,0-8.382-8.586l-53.685,52.412L215.191,248.6a6,6,0,0,0-8.382,8.586Z"></path></svg>