<?xml version="1.0" encoding="UTF-8"?>
<svg width="752pt" height="752pt" version="1.1" viewBox="0 0 752 752" xmlns="http://www.w3.org/2000/svg">
 <defs>
  <clipPath id="a">
   <path d="m139.21 275h473.58v202h-473.58z"/>
  </clipPath>
 </defs>
 <g clip-path="url(#a)">
  <path d="m576.85 275.54c19.863 0 35.945 16.051 35.945 35.918v129.08c0 19.824-16.121 35.914-35.945 35.914h-401.7c-19.859 0-35.934-16.047-35.934-35.914v-129.08c0-19.844 16.074-35.918 35.934-35.918zm-401.7 14.352c-11.934 0-21.582 9.6484-21.582 21.566v129.08c0 11.934 9.6445 21.562 21.582 21.562h265.44v-172.21zm279.79 0v172.21h121.92c11.902 0 21.594-9.668 21.594-21.562v-129.08c0-11.938-9.6484-21.566-21.594-21.566zm-251.14 93.281c-3.9609 0-7.1758-3.2109-7.1758-7.1758 0-3.9609 3.2148-7.1758 7.1758-7.1758h129.32c3.9609 0 7.1719 3.2148 7.1719 7.1758 0 3.9648-3.2109 7.1758-7.1719 7.1758zm306.45 9.2773 16.453 16.453 16.453-16.453c2.8008-2.8008 7.3438-2.8008 10.145 0 2.8047 2.8047 2.8047 7.3477 0 10.148l-21.523 21.527c-2.8047 2.8008-7.3477 2.8008-10.148 0l-21.527-21.527c-2.8008-2.8008-2.8008-7.3438 0-10.148 2.8008-2.8008 7.3438-2.8008 10.148 0zm32.906-32.902-16.453-16.453-16.453 16.453c-2.8047 2.8008-7.3477 2.8008-10.148 0-2.8008-2.8047-2.8008-7.3477 0-10.148l21.527-21.527c2.8008-2.8008 7.3438-2.8008 10.148 0l21.523 21.527c2.8047 2.8008 2.8047 7.3438 0 10.148-2.8008 2.8008-7.3438 2.8008-10.145 0z" fill-rule="evenodd"/>
 </g>
</svg>
