<svg height='300px' width='300px'  fill="#000000" xmlns="http://www.w3.org/2000/svg" viewBox="0 0 64 64" x="0px" y="0px"><title>problem solving-resolve-fix-problem-report</title><g data-name="problem solving-resolve-fix-problem-report"><rect x="24.82" y="43.25" width="2" height="1.93"></rect><path d="M60.38,13.1h-4l2.82-2.81a1.62,1.62,0,0,0,0-2.29L56,4.78a1.62,1.62,0,0,0-2.29,0L50.9,7.6v-4A1.63,1.63,0,0,0,49.28,2H44.72A1.63,1.63,0,0,0,43.1,3.62v4L40.29,4.78a1.62,1.62,0,0,0-2.29,0L34.78,8a1.62,1.62,0,0,0,0,2.28A23.19,23.19,0,0,0,10.24,48.85C8.43,52.13,6.46,54,4.77,54a1,1,0,1,0,0,2,59,59,0,0,0,15.34-1.85A23.22,23.22,0,0,0,37.33,51.8h0a1.37,1.37,0,0,0,1,.47h1.47l-1,1a1.4,1.4,0,0,0-.4,1,1.34,1.34,0,0,0,.4,1l1.94,1.93a1.33,1.33,0,0,0,1,.43,1.51,1.51,0,0,0,1-.4l1-1v1.47A1.37,1.37,0,0,0,45.12,59h2.76a1.37,1.37,0,0,0,1.38-1.37V56.16l1,1a1.41,1.41,0,0,0,1,.4,1.34,1.34,0,0,0,1-.4l1.93-1.94a1.33,1.33,0,0,0,.43-1,1.4,1.4,0,0,0-.4-1l-1-1h1.47A1.37,1.37,0,0,0,56,50.88V48.12a1.37,1.37,0,0,0-1.37-1.38H53.16l1-1a1.4,1.4,0,0,0,.4-1,1.34,1.34,0,0,0-.4-1l-1.94-1.93a1.33,1.33,0,0,0-1-.43,1.34,1.34,0,0,0-1,.4l-1,1V41.37A1.37,1.37,0,0,0,47.88,40h-.42A23,23,0,0,0,49,32h.29a1.63,1.63,0,0,0,1.62-1.62v-4l2.81,2.82a1.62,1.62,0,0,0,2.29,0L59.22,26a1.62,1.62,0,0,0,0-2.29L56.4,20.9h4A1.63,1.63,0,0,0,62,19.28V14.72A1.63,1.63,0,0,0,60.38,13.1ZM48.1,45.61a1.39,1.39,0,0,0,1.51-.28l1.66-1.67,1.07,1.07-1.68,1.68a1.38,1.38,0,0,0,1,2.33H54v1.52H51.65a1.36,1.36,0,0,0-1.26.84,1.39,1.39,0,0,0,.28,1.51l1.67,1.66-1.07,1.07-1.68-1.68a1.38,1.38,0,0,0-2.33,1V57H45.74V54.65a1.36,1.36,0,0,0-.84-1.26,1.39,1.39,0,0,0-1.51.28l-1.66,1.67-1.07-1.07,1.68-1.68a1.38,1.38,0,0,0-1-2.33H39V48.74h2.35A1.38,1.38,0,0,0,42.56,48a1.36,1.36,0,0,0-.05-1.39,1.66,1.66,0,0,0-.18-.24l-1.67-1.66,1.07-1.07,1.68,1.68a1.38,1.38,0,0,0,2.33-1V42h1.52v2.35A1.36,1.36,0,0,0,48.1,45.61ZM45.3,40h-.18a1.37,1.37,0,0,0-1.38,1.37v1.47l-1-1a1.42,1.42,0,0,0-1-.4,1.34,1.34,0,0,0-1,.4l-1.93,1.94a1.33,1.33,0,0,0-.43,1,1.4,1.4,0,0,0,.4,1l1,1H38.37A1.37,1.37,0,0,0,37,48.12v1.54l-.67.4a21,21,0,0,1-10.51,2.8,20.79,20.79,0,0,1-5.47-.72,1.14,1.14,0,0,0-.55,0A50.12,50.12,0,0,1,9.09,53.86a19.78,19.78,0,0,0,3.29-4.78,1,1,0,0,0-.24-1.22A21.19,21.19,0,0,1,36,13.1h-2.4A1.63,1.63,0,0,0,32,14.72v4.56a1.63,1.63,0,0,0,1.62,1.62h4l-2.82,2.81a1.62,1.62,0,0,0,0,2.29L38,29.22a1.62,1.62,0,0,0,2.29,0L43.1,26.4v4A1.63,1.63,0,0,0,44.72,32H47A20.79,20.79,0,0,1,45.3,40ZM60,18.9H55.48a1.61,1.61,0,0,0-1.49,1,1.64,1.64,0,0,0,.34,1.77l3.2,3.19-2.68,2.68-3.2-3.21A1.63,1.63,0,0,0,49.89,24a1.61,1.61,0,0,0-1,1.49V30H45.1V25.48a1.61,1.61,0,0,0-1-1.49,1.64,1.64,0,0,0-1.77.34l-3.19,3.2-2.68-2.68,3.21-3.2A1.63,1.63,0,0,0,40,19.89a1.61,1.61,0,0,0-1.49-1H34V15.1h4.52a1.62,1.62,0,0,0,1.31-.66h0a1.62,1.62,0,0,0-.17-2.08l-3.2-3.19,2.68-2.68,3.2,3.21a1.63,1.63,0,0,0,1.76.33,1.61,1.61,0,0,0,1-1.49V4h3.8V8.52a1.61,1.61,0,0,0,1,1.49,1.64,1.64,0,0,0,1.77-.34l3.19-3.2,2.68,2.68-3.21,3.2A1.63,1.63,0,0,0,54,14.11a1.61,1.61,0,0,0,1.49,1H60Z"></path><path d="M47,12.62A4.38,4.38,0,1,0,51.38,17,4.38,4.38,0,0,0,47,12.62Zm0,6.76A2.38,2.38,0,1,1,49.38,17,2.39,2.39,0,0,1,47,19.38Z"></path><path d="M43.45,49.5a3,3,0,1,0,3-3A3.06,3.06,0,0,0,43.45,49.5Zm4.1,0a1,1,0,1,1-1-1A1,1,0,0,1,47.55,49.5Z"></path><rect x="25" y="20.38" width="2" height="20.6"></rect></g></svg>