<svg height='300px' width='300px'  fill="#000000" xmlns="http://www.w3.org/2000/svg" viewBox="0 0 100 100" x="0px" y="0px"><title>•SET16-v3</title><path d="M40.754,18.879H54.708a1.851,1.851,0,0,0,1.851-1.851V12.1a1.851,1.851,0,0,0-1.851-1.851H40.754A1.85,1.85,0,0,0,38.9,12.1v4.929A1.851,1.851,0,0,0,40.754,18.879Zm-.389,3.88H29.911a1.5,1.5,0,0,0,0,3H40.365a1.5,1.5,0,0,0,0-3Zm0,62.221H29.911a1.5,1.5,0,0,0,0,3H40.365a1.5,1.5,0,0,0,0-3Zm0-10.37H18.8a1.5,1.5,0,1,0,0,3H40.365a1.5,1.5,0,0,0,0-3Zm0-10.371h-26.9a1.5,1.5,0,0,0,0,3h26.9a1.5,1.5,0,1,0,0-3Zm0-31.11H18.2a1.5,1.5,0,1,0,0,3H40.365a1.5,1.5,0,0,0,0-3Zm0,10.37h-26.9a1.5,1.5,0,1,0,0,3h26.9a1.5,1.5,0,0,0,0-3Zm0,10.37H12.439a1.5,1.5,0,1,0,0,3H40.365a1.5,1.5,0,1,0,0-3Zm9.228,5.94a3.519,3.519,0,1,0-3.518-3.519A3.518,3.518,0,0,0,49.593,59.809Zm39.726-15-2.821-7.3a1.61,1.61,0,0,0-2.072-.926l-4.471,1.691a36.182,36.182,0,0,1,3.839,10.357L88.386,46.9a1.61,1.61,0,0,0,.933-2.088ZM67.832,36.2a1.365,1.365,0,0,1,.228-.151,26.654,26.654,0,0,0-18.45-7.407H46.373V51.227a5.972,5.972,0,0,1,6.393-.029L63.238,40.781a1.421,1.421,0,0,1,2,2.016L54.753,53.23a6,6,0,0,1-8.38,8.123v20.8H49.61a26.634,26.634,0,0,0,17.484-6.528l-1.159-1.159a1.421,1.421,0,0,1,2.009-2.01l1.173,1.173c.01.009.012.022.021.032a26.668,26.668,0,0,0,7.109-15.777H74.7a1.421,1.421,0,1,1,0-2.842h1.655a26.624,26.624,0,0,0-6.406-17,1.384,1.384,0,0,1-.109.165l-1.174,1.173a1.421,1.421,0,0,1-2.01-2.01ZM49.6,22.8a3.289,3.289,0,0,0-.388.037V20.816H46.373v4.952H46.4c0,.013-.005.024-.006.037H49.61A29.6,29.6,0,1,1,49.61,85H46.373v2.99H49.6a32.6,32.6,0,1,0,0-65.192Z"></path></svg>