<?xml version="1.0" encoding="utf-8"?>
<!-- Generator: Adobe Illustrator 23.0.1, SVG Export Plug-In . SVG Version: 6.00 Build 0)  -->
<svg version="1.2" baseProfile="tiny" id="Layer_1" xmlns="http://www.w3.org/2000/svg" xmlns:xlink="http://www.w3.org/1999/xlink"
	 x="0px" y="0px" viewBox="0 0 300 300" xml:space="preserve">
<g display="none">
	<rect x="-1863" y="-1011" display="inline" width="4164" height="4296"/>
</g>
<g>
	<path d="M134.6,253c-0.1,0.8,0.1,1.6,0.6,2.2c0.5,0.6,1.2,1,2,1.1c4,0.5,8.1,0.7,12.1,0.7c24,0,46.6-7.9,65.5-23
		c22-17.5,35.9-42.6,39.1-70.7c6.5-57.8-35.2-110.1-93-116.7c-28-3.2-55.6,4.7-77.6,22.3c-22,17.5-35.9,42.6-39.1,70.7
		c-0.1,0.8,0.1,1.6,0.6,2.2c0.5,0.6,1.2,1,2,1.1c1.6,0.2,3.1-1,3.3-2.6c3-26.4,16.1-50.1,36.8-66.7c20.8-16.5,46.8-24,73.2-21
		c26.4,3,50,16.1,66.6,36.9c16.6,20.8,24.1,46.8,21.1,73.1c-3,26.4-16.1,50.1-36.8,66.7c-20.8,16.5-46.8,24-73.2,21
		C136.3,250.2,134.8,251.4,134.6,253z"/>
	<path d="M250.5,70.6c-21.5-27.1-52.4-44.3-86.8-48.3c-34.6-3.9-68.5,5.9-95.6,27.5c-27.1,21.6-44.1,52.5-48,87
		c-1.2,8.4-1,16.1-0.7,22.5c0.1,1.6,1.5,3,3.1,2.9c0.8,0,1.5-0.4,2.1-1s0.8-1.4,0.8-2.2c-0.3-6.2-0.4-13.5,0.7-21.5
		c3.7-32.9,19.9-62.4,45.8-83c25.8-20.6,58.2-29.9,91.2-26.2c32.8,3.8,62.2,20.2,82.7,46.1c20.6,25.9,29.9,58.3,26.2,91.2
		c-7.6,67.6-69,116.5-136.9,108.9c-0.8-0.1-1.6,0.1-2.2,0.6c-0.6,0.5-1,1.2-1.1,2c-0.1,0.8,0.1,1.6,0.6,2.2c0.5,0.6,1.2,1,2,1.1
		c4.8,0.5,9.7,0.8,14.6,0.8c31.7,0,62.3-11.6,86.2-32.7c24-21.3,39.3-50.5,42.8-82.3C281.8,131.7,272.1,97.7,250.5,70.6z"/>
	<path d="M149.9,170.2L149.9,170.2c0.1,0,0.3,0,0.4,0c0.7,0,1.4-0.3,2-0.7l55.6-48.9c1.2-1.1,1.4-3,0.3-4.2c-1.1-1.2-3-1.4-4.2-0.3
		l-53,46.5l-21.9-34.9c-0.4-0.7-1.1-1.2-1.9-1.3c-0.8-0.2-1.6,0-2.3,0.4c-0.7,0.4-1.2,1.1-1.3,1.9c-0.2,0.8,0,1.6,0.4,2.3l23.7,37.9
		C148.2,169.6,149,170.1,149.9,170.2z"/>
	<path d="M148.4,63.1v26.6c0,1.7,1.3,3,3,3s3-1.3,3-3V63.1c0-1.7-1.3-3-3-3S148.4,61.5,148.4,63.1z"/>
	<path d="M242.4,160.3c1.7,0,3-1.3,3-3s-1.3-3-3-3h-22.7c-1.7,0-3,1.3-3,3s1.3,3,3,3H242.4z"/>
	<path d="M153.3,245.5v-24.1c0-1.7-1.3-3-3-3s-3,1.3-3,3v24.1c0,1.7,1.3,3,3,3S153.3,247.2,153.3,245.5z"/>
	<path d="M108.4,234.4H108c-6.2-6.1-14.9-9.6-23.9-9.6H49.7c-8.9,0-18,3.7-24.7,10l-0.9,0.9v0.4c-5.9,6.3-9.2,15-9.2,23.9v21.2
		l0.5,0c1.7-0.1,3.4-0.1,4.9,0l0.5,0v-21.2c0-7.8,3-15.3,8.3-20.5l0.9-0.9v-0.3c5.5-4.8,12.7-7.5,19.7-7.5h34.4
		c7.9,0,15.3,3.1,20.5,8.6l0.9,0.9h0.4c4.8,5.2,7.5,12.4,7.5,19.7v21.2l0.5,0c0.2,0,0.4,0,0.6,0c0.2,0,0.3,0,0.5,0
		c0.6,0,1.2,0,1.8,0c0.4,0,0.8,0,1.2,0c0.3,0,0.6,0,0.9-0.1l0.1,0l0.5-0.1v-21.1c0-9.3-3.7-18.4-10.1-24.8L108.4,234.4z"/>
	<path d="M37.5,194.5c0,16.3,13.3,29.6,29.6,29.6s29.6-13.3,29.6-29.6v-11.7c0-16.3-13.3-29.6-29.6-29.6s-29.6,13.3-29.6,29.6V194.5
		z M67.1,159.3c12.8,0,23.6,10.8,23.6,23.6v11.7c0,12.8-10.8,23.6-23.6,23.6c-13,0-23.6-10.6-23.6-23.6v-11.7
		C43.5,169.9,54.1,159.3,67.1,159.3z"/>
</g>
</svg>
