<?xml version="1.0" encoding="utf-8"?>
<!-- Generator: Adobe Illustrator 26.1.0, SVG Export Plug-In . SVG Version: 6.00 Build 0)  -->
<svg version="1.1" id="Layer_1" xmlns="http://www.w3.org/2000/svg" xmlns:xlink="http://www.w3.org/1999/xlink" x="0px" y="0px"
	 viewBox="0 0 300 300" style="enable-background:new 0 0 300 300;" xml:space="preserve">
<style type="text/css">
	.st0{fill:#6E7479;}
</style>
<g>
	<path class="st0" d="M262.1,64.2c-0.4-0.5-1-0.7-1.6-0.7l0,0c-8.7-2.2-17.5-4.3-26.1-6.8c-15.7-4.7-30.9-11-45.5-18.6
		c-7.3-3.8-14.6-7.6-22.1-11l0,0c-3.7-1.5-7.5-2.8-11.4-3.8h-11c0,0.1,0,0.2,0,0.2c-8.5,2-16.7,5.3-24.3,9.8
		C106.4,41,91.8,47.7,76.7,52.9c-12.2,4-24.7,7.1-37.2,10.5c-0.6,0-1.2,0.4-1.6,0.9c-0.4,0.5-0.5,1.2-0.4,1.8c0.4,7.5,0.6,15,1,22.4
		c0.4,6.5,0.6,13,1.6,19.4c1.5,9.6,3.3,19.3,5.4,28.7c3.4,15.5,8.6,30.6,15.5,45c3.9,8.1,8.3,16,12.9,23.8h0
		c6.9,11.7,15.1,22.5,24.5,32.3c3.8,4,7.6,7.9,11.7,11.7v0c3.7,3.8,7.7,7.3,11.9,10.5c7.8,5.5,16.1,10.4,24,15.8h0
		c1.1,0.9,2.3,1.3,3.6,1.3h0.3c1.3,0,2.6-0.5,3.6-1.3c11.6-6.8,22.5-14.9,32.4-24c9.7-8.8,18.6-18.5,26.6-28.8
		c8-10.5,15.2-21.5,21.3-33.2c6.9-12.8,12.4-26.3,16.4-40.3c2.7-9.8,5.6-19.7,7.3-29.7c2-11.1,3-22.5,4.1-33.8
		c0.6-6.6,0.4-13.2,0.6-19.8v0C262.6,65.3,262.4,64.7,262.1,64.2z M251.6,74.4c-0.5,7.5-0.9,15.1-1.5,22.8l0,0
		c-0.9,12.7-3.1,25.2-6.6,37.4c-3.2,11-6.8,22-11,32.7c-5.7,14.3-13.1,27.9-22.2,40.3c-4.5,6.2-9.3,12.2-14.2,18.1
		c-3.3,4-6.8,7.8-10.5,11.5c-10.4,10.3-21.9,19.5-34.2,27.3c-1,0.7-2.4,0.6-3.3-0.3c-6.8-4.7-13.8-9.2-20.6-13.9
		c-2.4-1.8-4.8-3.8-6.9-5.9c-4.5-4.2-9.1-8.3-13.2-12.7v0c-9.9-10.7-18.6-22.3-26.1-34.8c-9.2-15.2-16.4-31.4-21.4-48.4
		c-2.8-9.9-5.3-19.9-7.4-30c-1.4-6.8-1.9-13.7-2.5-20.6c-0.7-6.9-1.2-13.2-1.5-17c0-8.6,0-8.4,6-9.9h0c13.5-3.2,26.7-7.5,39.4-13
		c12.7-5.7,24.8-12.2,37.4-18c4.9-2.2,9.8-4.1,14.9-5.7c5-1.2,10.2-0.5,14.7,2c8.9,4.1,17.5,8.6,26.3,13v0
		c12.3,6.3,25,11.6,38.2,15.9c8,2.5,16.2,4.7,24.3,6.8c0.6,0,1.2,0.3,1.6,0.8C251.6,73.1,251.7,73.8,251.6,74.4z"/>
	<path class="st0" d="M151.2,86.6h-2.5c-3.2,0-5.7,2.6-5.7,5.7v77.1c0,2.6,2.6,5.7,5.7,5.7h2.5c3.2,0,5.7-2.6,5.7-5.7V92.3
		C157,89.8,154.4,86.6,151.2,86.6z"/>
	<path class="st0" d="M151.1,193.8h-2.3c-3.2,0-5.8,2.6-5.8,5.8v7.9c0,2.6,2.6,5.8,5.8,5.8h2.3c3.2,0,5.8-2.6,5.8-5.8v-7.9
		C157,197,154.4,193.8,151.1,193.8z"/>
</g>
</svg>
