<?xml version="1.0" encoding="utf-8"?>
<!-- Generator: Adobe Illustrator 26.2.1, SVG Export Plug-In . SVG Version: 6.00 Build 0)  -->
<svg version="1.1" id="Layer_1" xmlns="http://www.w3.org/2000/svg" xmlns:xlink="http://www.w3.org/1999/xlink" x="0px" y="0px"
	 viewBox="0 0 300 300" style="enable-background:new 0 0 300 300;" xml:space="preserve">
<g>
	<path d="M150.3,15c-74.7,0-135,60.3-135,135s60.3,135,135,135s135-60.3,135-135S224.7,15,150.3,15z M150.3,270
		c-29.5,0-56.5-10.6-77.4-28.3l-10.4,10.4l-11-13l9.3-9.3c-18.9-21.2-30.4-49.2-30.4-79.9c0-66.3,53.7-120,120-120
		c30.7,0,58.6,11.5,79.8,30.4l8.9-8.9l13.3,10.8L242,72.6c17.6,20.9,28.3,47.9,28.3,77.4C270.3,216.3,216.6,270,150.3,270z"/>
	<path d="M239.1,51.4L51.5,239.1c3.8,4.2,6.7,9.3,11,13L252.4,62.2C248.7,57.9,243.3,55.2,239.1,51.4z"/>
</g>
</svg>
