<?xml version="1.0" encoding="utf-8"?>
<!-- Generator: Adobe Illustrator 23.0.1, SVG Export Plug-In . SVG Version: 6.00 Build 0)  -->
<svg version="1.1" id="Layer_1" xmlns="http://www.w3.org/2000/svg" xmlns:xlink="http://www.w3.org/1999/xlink" x="0px" y="0px"
	 viewBox="0 0 300 300" style="enable-background:new 0 0 300 300;" xml:space="preserve">
<style type="text/css">
	.st0{fill:#9E9E9E;}
</style>
<path class="st0" d="M208.1,164.5c-7.6,0-14.8,1.9-21,5.3c-9.5-7.4-20.6-12.9-32.6-15.8c20.4-8.1,34.8-28,34.8-51.3
	c0-30.4-24.8-55.2-55.2-55.2c-30.4,0-55.2,24.8-55.2,55.2c0,23.4,14.6,43.4,35.2,51.4c-37.3,9.2-65,43.1-65,83.3h6.2
	c0-43.9,35.5-79.6,79.2-79.6c17.5,0,33.7,5.8,46.9,15.5c-11,8.2-18.2,21.2-18.2,36c0,24.7,20.1,44.8,44.8,44.8
	c24.7,0,44.8-20.1,44.8-44.8C252.9,184.7,232.8,164.5,208.1,164.5z M134.1,151.7c-27,0-48.9-21.9-48.9-48.9s21.9-48.9,48.9-48.9
	S183,75.8,183,102.8S161.1,151.7,134.1,151.7z M208.1,248c-21.3,0-38.6-17.3-38.6-38.6c0-21.3,17.3-38.6,38.6-38.6
	s38.6,17.3,38.6,38.6C246.7,230.7,229.4,248,208.1,248z"/>
<polygon class="st0" points="211.2,186.5 205,186.5 205,214.8 221.9,231.7 226.3,227.3 211.2,212.3 "/>
</svg>
