<svg height='300px' width='300px'  fill="#000000" xmlns="http://www.w3.org/2000/svg" xmlns:xlink="http://www.w3.org/1999/xlink" xml:space="preserve" version="1.1" style="shape-rendering:geometricPrecision;text-rendering:geometricPrecision;image-rendering:optimizeQuality;" viewBox="0 0 50000 50000" x="0px" y="0px" fill-rule="evenodd" clip-rule="evenodd"><defs><style type="text/css">
   
    .fil0 {fill:#000000;fill-rule:nonzero}
   
  </style></defs><g><path class="fil0" d="M14885.71 26272.08l16619.66 0c1514.35,0 2751.93,1237.57 2751.93,2751.92l0 9725.91c0,2496.92 -1274.04,3104.7 -3308.58,3088.58l-16030.96 -24.17c-1965.17,-45.87 -2697.02,-1289.95 -2768.25,-3111.68l-3939.25 -19.13 3923.51 -4439.08 0 -5220.43c0,-1514.36 1237.59,-2751.92 2751.94,-2751.92zm11245.93 -6261.49c-328.84,0 -328.84,-500 0,-500l7871.94 0c328.84,0 328.84,500 0,500l-7871.94 0zm2.12 -3921.08c-328.84,0 -328.84,-500 0,-500l14603.76 0c328.84,0 328.84,500 0,500l-14603.76 0zm0 -3921.08c-328.84,0 -328.84,-500 0,-500l14603.76 0c328.84,0 328.84,500 0,500l-14603.76 0zm15752.55 11640.23l-16619.66 0c-1514.35,0 -2751.93,-1237.57 -2751.93,-2751.92l0 -9757.39c0,-2102.05 1171.29,-3141.15 3168.92,-3138.14l16170.62 24.37c1974.26,46.09 2698.19,1388.05 2768.27,3192.52l3939.22 19.13 -3923.51 4439.08 0 5220.43c0,1514.35 -1237.58,2751.92 -2751.93,2751.92zm-16619.66 -800l16619.66 0c1072.75,0 1951.93,-879.17 1951.93,-1951.92l-0.01 -5518.73 2963.08 -3352.44 -2974.28 -14.43c15.78,-1545.72 -57.36,-3143.63 -1988.39,-3188.68l-16128.52 -24.33c-1543.75,-2.33 -2395.4,639.88 -2395.4,2314.76l0 9783.85c0,1072.75 879.18,1951.92 1951.93,1951.92zm-16002.38 9178.96l0 1379.92c0,562.54 -653.52,851.33 -1072.14,505.4 -155.99,317.3 -362.98,605.01 -610.34,852.37 -506.56,506.54 -1182.22,843.97 -1935.03,920.32 -94.34,210.78 -305.89,357.64 -551.76,357.64 -333.71,0 -604.24,-270.52 -604.24,-604.24 0,-333.71 270.53,-604.23 604.24,-604.23 242.18,0 451.04,142.49 547.42,348.2 616.37,-73.33 1169.01,-354.37 1585.85,-771.21 354.59,-354.59 610.91,-807.46 724.71,-1314.22 0,-419.86 66.47,-1010.54 -60.1,-1410.01 -132.13,-416.89 -362.76,-789.95 -664.61,-1091.79 -1047.93,-1047.93 -2768.12,-1047.93 -3816.06,-0.01 -331.04,331.04 -576.43,747.75 -700.17,1214 24.24,68.25 37.49,141.58 37.49,217.86l0 1379.92c0,867.4 -1311.28,867.4 -1311.28,0l0 -1379.92c0,-454.2 453.59,-768.85 875.55,-617.42 161.3,-443.32 417.83,-840.9 744.89,-1167.96 1242.17,-1242.13 3280.94,-1242.15 4523.1,0.01 332.5,332.5 592.11,737.91 752.86,1190.14 421.28,-195.4 929.62,107.83 929.62,595.23zm6647.29 6361.24c-328.84,0 -328.84,-500 0,-500l7871.94 0c328.84,0 328.84,500 0,500l-7871.94 0zm2.12 -3921.09c-328.84,0 -328.84,-500 0,-500l14603.76 0c328.84,0 328.84,500 0,500l-14603.76 0zm0 -3921.08c-328.84,0 -328.84,-500 0,-500l14603.76 0c328.84,0 328.84,500 0,500l-14603.76 0zm15591.69 -3634.61l-16619.66 0c-1072.75,0 -1951.94,879.16 -1951.94,1951.92l0 5518.73 -2963.07 3352.44 2974.28 14.43c-15.55,1523.24 25.64,3062.04 1988.4,3107.84l16055.07 24.23c1420.65,2.14 2468.85,-265.52 2468.85,-2252.07l0 -9765.6c0,-1072.75 -879.18,-1951.92 -1951.93,-1951.92z"></path></g></svg>