<?xml version="1.0" encoding="utf-8"?>
<!-- Generator: Adobe Illustrator 26.2.1, SVG Export Plug-In . SVG Version: 6.00 Build 0)  -->
<svg version="1.1" id="Layer_1" xmlns="http://www.w3.org/2000/svg" xmlns:xlink="http://www.w3.org/1999/xlink" x="0px" y="0px"
	 viewBox="0 0 300 300" style="enable-background:new 0 0 300 300;" xml:space="preserve">
<style type="text/css">
	.st0{fill:#74787A;}
</style>
<g>
	<path class="st0" d="M111.4,110.2H13.4c-4.8,0-8.6-3.7-8.6-8.2s3.8-8.2,8.6-8.2h97.9c4.8,0,8.6,3.7,8.6,8.2
		C119.9,106.5,116.1,110.2,111.4,110.2z"/>
	<path class="st0" d="M82.7,142.9H13.4c-4.8,0-8.6-3.7-8.6-8.2s3.8-8.2,8.6-8.2h69.3c4.8,0,8.6,3.7,8.6,8.2
		C91.3,139.3,87.4,142.9,82.7,142.9z"/>
	<path class="st0" d="M82.7,175.7H13.4c-4.8,0-8.6-3.7-8.6-8.2s3.8-8.2,8.6-8.2h69.3c4.8,0,8.6,3.7,8.6,8.2
		C91.3,172.1,87.4,175.7,82.7,175.7z"/>
	<path class="st0" d="M106.4,208.5h-93c-4.8,0-8.6-3.7-8.6-8.2s3.8-8.2,8.6-8.2h93c4.8,0,8.6,3.7,8.6,8.2
		C115,204.8,111.2,208.5,106.4,208.5L106.4,208.5z"/>
	<path class="st0" d="M205.2,208.5c-50.3,0-87-51.8-88.6-54c-1.9-2.7-1.9-6.2-0.1-9c1.5-2.2,37.1-54.1,88.7-54.1
		c52.7,0,87.3,52,88.7,54.2c1.8,2.7,1.7,6.1-0.1,8.8C292.3,156.7,256.6,208.5,205.2,208.5L205.2,208.5z M134.3,149.9
		c9.5,11.7,37.5,42.2,70.8,42.2c34.3,0,61.8-30.6,70.9-42.2c-9-11.6-35.9-42-70.9-42C171,107.9,143.6,138.3,134.3,149.9L134.3,149.9
		z"/>
	<path class="st0" d="M204.1,180.1c-17.7,0-32-13.7-32-30.5c0-16.8,14.4-30.5,32-30.5c17.7,0,32,13.7,32,30.5
		C236.2,166.4,221.8,180.1,204.1,180.1z M204.1,135.4c-8.2,0-14.8,6.3-14.8,14.1c0,7.8,6.7,14.1,14.8,14.1c8.2,0,14.8-6.3,14.8-14.1
		C219,141.8,212.3,135.4,204.1,135.4z"/>
</g>
</svg>
