<?xml version="1.0" encoding="utf-8"?>
<!-- Generator: Adobe Illustrator 26.1.0, SVG Export Plug-In . SVG Version: 6.00 Build 0)  -->
<svg version="1.1" id="Layer_1" xmlns="http://www.w3.org/2000/svg" xmlns:xlink="http://www.w3.org/1999/xlink" x="0px" y="0px"
	 viewBox="0 0 752 752" style="enable-background:new 0 0 752 752;" xml:space="preserve">
<style type="text/css">
	.st0{clip-path:url(#SVGID_00000089541850154661833410000012114617571525577104_);}
	.st1{fill-rule:evenodd;clip-rule:evenodd;}
</style>
<g>
	<defs>
		<rect id="SVGID_1_" x="139.2" y="275" width="473.6" height="202"/>
	</defs>
	<clipPath id="SVGID_00000078021169831366498340000007302713862700089755_">
		<use xlink:href="#SVGID_1_"  style="overflow:visible;"/>
	</clipPath>
	<g style="clip-path:url(#SVGID_00000078021169831366498340000007302713862700089755_);">
		<path class="st1" d="M139.2,311.5c0-19.8,16.1-35.9,35.9-35.9h401.8c19.8,0,35.9,16.1,35.9,35.9v129.1c0,19.8-16.1,35.9-35.9,35.9
			H175.1c-19.8,0-35.9-16.1-35.9-35.9L139.2,311.5z M153.6,311.5v129.1c0,11.9,9.6,21.6,21.6,21.6h401.8c11.9,0,21.6-9.7,21.6-21.6
			V311.5c0-11.9-9.6-21.6-21.6-21.6H175.1C163.2,289.9,153.6,299.6,153.6,311.5L153.6,311.5z"/>
	</g>
</g>
</svg>
