<svg height='300px' width='300px'  fill="#000000" xmlns="http://www.w3.org/2000/svg" xmlns:xlink="http://www.w3.org/1999/xlink" version="1.1" x="0px" y="0px" viewBox="0 0 64 64" style="enable-background:new 0 0 64 64;" xml:space="preserve"><path d="M12.5,23c-0.276,0-0.5-0.224-0.5-0.5v-8.001C12,12.57,13.57,11,15.499,11H28.5c0.276,0,0.5,0.224,0.5,0.5S28.776,12,28.5,12  H15.499C14.121,12,13,13.121,13,14.499V22.5C13,22.776,12.776,23,12.5,23z"></path><path d="M48.501,63H15.499C13.57,63,12,61.43,12,59.501V35.5c0-0.276,0.224-0.5,0.5-0.5s0.5,0.224,0.5,0.5v24.001  C13,60.879,14.121,62,15.499,62h33.002C49.879,62,51,60.879,51,59.501V14.499C51,13.121,49.879,12,48.501,12H35.5  c-0.276,0-0.5-0.224-0.5-0.5s0.224-0.5,0.5-0.5h13.001C50.431,11,52,12.57,52,14.499v45.002C52,61.43,50.431,63,48.501,63z"></path><path d="M32,7c-1.103,0-2-0.897-2-2s0.897-2,2-2c1.103,0,2,0.897,2,2S33.103,7,32,7z M32,4c-0.551,0-1,0.449-1,1s0.449,1,1,1  s1-0.449,1-1S32.551,4,32,4z"></path><path d="M37.5,17h-11c-0.827,0-1.5-0.673-1.5-1.5s0.673-1.5,1.5-1.5h2c0.276,0,0.5,0.224,0.5,0.5S28.776,15,28.5,15h-2  c-0.276,0-0.5,0.224-0.5,0.5s0.224,0.5,0.5,0.5h11c0.275,0,0.5-0.224,0.5-0.5S37.775,15,37.5,15h-2c-0.276,0-0.5-0.224-0.5-0.5  s0.224-0.5,0.5-0.5h2c0.827,0,1.5,0.673,1.5,1.5S38.327,17,37.5,17z"></path><path d="M35.5,17h-7c-0.276,0-0.5-0.224-0.5-0.5V5c0-2.206,1.794-4,4-4c2.206,0,4,1.794,4,4v11.5C36,16.776,35.776,17,35.5,17z   M29,16h6V5c0-1.654-1.346-3-3-3s-3,1.346-3,3V16z"></path><path d="M32,36c-2.757,0-5-2.243-5-5s2.243-5,5-5s5,2.243,5,5S34.757,36,32,36z M32,27c-2.206,0-4,1.794-4,4s1.794,4,4,4  c2.206,0,4-1.794,4-4S34.206,27,32,27z"></path><path d="M39.5,51h-15c-0.276,0-0.5-0.224-0.5-0.5v-6.006C24,40.362,27.362,37,31.494,37h1.012C36.638,37,40,40.362,40,44.494V50.5  C40,50.776,39.776,51,39.5,51z M25,50h14v-5.506C39,40.913,36.087,38,32.506,38h-1.012C27.913,38,25,40.913,25,44.494V50z"></path><path d="M44.5,57h-25c-0.276,0-0.5-0.224-0.5-0.5v-3c0-0.276,0.224-0.5,0.5-0.5h25c0.276,0,0.5,0.224,0.5,0.5v3  C45,56.776,44.776,57,44.5,57z M20,56h24v-2H20V56z"></path><path d="M44.5,51h-25c-0.276,0-0.5-0.224-0.5-0.5v-28c0-0.276,0.224-0.5,0.5-0.5h25c0.276,0,0.5,0.224,0.5,0.5v28  C45,50.776,44.776,51,44.5,51z M20,50h24V23H20V50z"></path><path d="M12.5,31c-0.276,0-0.5-0.224-0.5-0.5v-5c0-0.276,0.224-0.5,0.5-0.5s0.5,0.224,0.5,0.5v5C13,30.776,12.776,31,12.5,31z"></path></svg>