<svg height='300px' width='300px'  fill="#000000" xmlns="http://www.w3.org/2000/svg" xmlns:xlink="http://www.w3.org/1999/xlink" version="1.1" x="0px" y="0px" viewBox="0 0 100 100" enable-background="new 0 0 100 100" xml:space="preserve"><path fill="#000000" d="M24.2,57.5c-1.1,0-2-0.9-2-2V37.8c0-1.1,0.9-2,2-2s2,0.9,2,2v17.7C26.2,56.6,25.3,57.5,24.2,57.5z"></path><path fill="#000000" d="M46.5,64.7H7.3c-1.1,0-2-0.9-2-2v-9.3c0-1.1,0.9-2,2-2c2.6,0,4.7-2.1,4.7-4.7s-2.1-4.7-4.7-4.7  c-1.1,0-2-0.9-2-2v-9.3c0-1.1,0.9-2,2-2H47c1.1,0,2,0.9,2,2s-0.9,2-2,2H9.3v5.5c3.9,0.9,6.7,4.4,6.7,8.5c0,4.1-2.9,7.6-6.7,8.5v5.5  h37.2c1.1,0,2,0.9,2,2S47.6,64.7,46.5,64.7z"></path><path fill="#000000" d="M70.3,68.3c-11.9,0-21.6-9.7-21.6-21.6S58.4,25,70.3,25s21.6,9.7,21.6,21.6S82.2,68.3,70.3,68.3z M70.3,29  c-9.7,0-17.6,7.9-17.6,17.6c0,9.7,7.9,17.6,17.6,17.6s17.6-7.9,17.6-17.6C87.9,36.9,80,29,70.3,29z"></path><path fill="#000000" d="M68.1,55.1c-0.6,0-1.2-0.3-1.6-0.8l-5.2-6.5c-0.7-0.9-0.6-2.1,0.3-2.8c0.9-0.7,2.1-0.6,2.8,0.3l3.6,4.5  L76.1,39c0.7-0.9,1.9-1.1,2.8-0.4c0.9,0.7,1.1,1.9,0.4,2.8l-9.7,13C69.3,54.8,68.7,55.1,68.1,55.1C68.1,55.1,68.1,55.1,68.1,55.1z"></path></svg>