<svg height='300px' width='300px'  fill="#000000" xmlns="http://www.w3.org/2000/svg" xmlns:xlink="http://www.w3.org/1999/xlink" version="1.1" x="0px" y="0px" viewBox="0 0 100 100" enable-background="new 0 0 100 100" xml:space="preserve"><path fill="#000000" d="M50.7,64.5H8.9c-1.1,0-2-0.9-2-2v-9.6c0-1.1,0.9-2,2-2c2.8,0,5-2.2,5-5c0-2.8-2.2-5-5-5c-1.1,0-2-0.9-2-2  v-9.6c0-1.1,0.9-2,2-2h66.5c1.1,0,2,0.9,2,2v14.2c0,1.1-0.9,2-2,2s-2-0.9-2-2V31.3H10.9v5.8c4,0.9,7,4.5,7,8.8c0,4.3-3,7.9-7,8.8  v5.8h39.8c1.1,0,2,0.9,2,2S51.8,64.5,50.7,64.5z"></path><path fill="#000000" d="M75.3,72.7c-1,0-1.9-0.1-3.1-0.3c-1-0.2-2-0.4-3.2-0.9c-1-0.4-1.9-0.8-3-1.4c-1.1-0.6-2.1-1.2-3-2  c-0.8-0.6-1.7-1.4-2.5-2.1c0,0-0.1-0.1-0.1-0.1c-0.7-0.7-1.5-1.5-2.1-2.2c-0.1-0.1-0.2-0.2-0.2-0.3c-0.6-0.6-0.7-1.6-0.3-2.4  l0.3-0.6c0.1-0.1,0.2-0.3,0.3-0.4c0.6-0.8,1.4-1.5,2.1-2.2c0.9-0.9,1.8-1.6,2.7-2.2c1-0.7,1.9-1.4,2.9-1.9c1-0.5,2-1.1,3.2-1.5  c0.9-0.3,1.8-0.6,2.8-0.8c1-0.2,2.1-0.3,3-0.3c1.5,0,2.7,0.2,3.8,0.5c1,0.3,2.1,0.6,3.2,1.1c1,0.4,1.9,0.9,2.9,1.6  c0.9,0.5,1.6,1.1,2.3,1.6c0.8,0.6,1.6,1.3,2.4,2c0.8,0.6,1.6,1.4,2.4,2.3l0.5,0.6c0.6,0.8,0.6,1.9-0.1,2.7l-0.1,0.1  c-0.1,0.1-0.1,0.2-0.2,0.3c-0.7,0.8-1.4,1.5-2.3,2.3c-0.9,0.8-1.6,1.4-2.5,2.1c-1,0.8-2,1.4-3,2c-0.9,0.5-1.8,0.9-3,1.4  c0,0-0.1,0-0.1,0c-0.9,0.3-1.9,0.6-2.9,0.9C77.4,72.6,76.3,72.7,75.3,72.7z M63.3,63c0.8,0.7,1.5,1.3,2.2,1.9  c0.8,0.7,1.7,1.2,2.5,1.7c0.9,0.4,1.8,0.8,2.6,1.2c0.8,0.3,1.6,0.5,2.4,0.7c0.9,0.2,1.6,0.3,2.3,0.3c0.7,0,1.5-0.1,2.3-0.3  c0.8-0.2,1.6-0.5,2.4-0.7c1-0.4,1.8-0.8,2.5-1.2c0.8-0.4,1.6-1,2.4-1.6c0.8-0.6,1.5-1.2,2.3-1.9c0.4-0.4,0.8-0.7,1.2-1.1  c-0.4-0.4-0.8-0.7-1.1-1c0,0-0.1-0.1-0.1-0.1c-0.8-0.7-1.5-1.3-2.3-1.9c0,0-0.1,0-0.1-0.1c-0.5-0.4-1.2-0.9-1.9-1.3  c-0.8-0.5-1.6-0.9-2.4-1.3c-0.8-0.3-1.8-0.6-2.8-0.9c-0.7-0.2-1.6-0.3-2.6-0.3c-0.7,0-1.4,0.1-2.2,0.3c-0.8,0.2-1.6,0.5-2.5,0.7  c-0.9,0.3-1.6,0.7-2.5,1.2c-0.8,0.5-1.6,1-2.4,1.6c0,0-0.1,0.1-0.1,0.1c-0.7,0.5-1.4,1-2.1,1.7c-0.4,0.4-0.9,0.9-1.3,1.3  C62.5,62.3,62.9,62.6,63.3,63z"></path><path fill="#000000" d="M39.8,54.6c-0.6,0-1.2-0.3-1.6-0.7l-5.4-6.7c-0.7-0.9-0.6-2.1,0.3-2.8c0.9-0.7,2.1-0.6,2.8,0.3l3.8,4.7  L48.2,38c0.7-0.9,1.9-1.1,2.8-0.4c0.9,0.7,1.1,1.9,0.4,2.8l-10,13.4C41,54.3,40.5,54.6,39.8,54.6C39.8,54.6,39.8,54.6,39.8,54.6z"></path></svg>