<?xml version="1.0" encoding="utf-8"?>
<!-- Generator: Adobe Illustrator 26.1.0, SVG Export Plug-In . SVG Version: 6.00 Build 0)  -->
<svg version="1.1" id="Layer_1" xmlns="http://www.w3.org/2000/svg" xmlns:xlink="http://www.w3.org/1999/xlink" x="0px" y="0px"
	 viewBox="0 0 300 300" style="enable-background:new 0 0 300 300;" xml:space="preserve">
<style type="text/css">
	.st0{fill:#C1C1C1;}
</style>
<path class="st0" d="M149.9,168.4c28.2,0,51.1-22.9,51.1-51.1s-22.9-51.1-51.1-51.1s-51.1,22.9-51.1,51.1S121.8,168.4,149.9,168.4z
	 M122.6,153c0.3-11.8,8-22,19.4-25.4c1.2-0.4,2-1.4,2.1-2.6s-0.5-2.4-1.6-3c-5.4-2.9-8.7-8.6-8.7-14.7c0-9.2,7.5-16.7,16.7-16.7
	s16.7,7.5,16.7,16.7c0,6.3-3.5,12-9.2,14.9c-1.1,0.6-1.7,1.7-1.7,2.9c0.1,1.2,0.9,2.3,2.1,2.7c11,3.6,18.4,13.7,18.7,25.2
	c-7.6,5.8-17,9.3-27.3,9.3C139.7,162.3,130.2,158.8,122.6,153z M149.9,72.3c24.8,0,45,20.2,45,45c0,11.9-4.6,22.6-12.2,30.7
	c-1.8-10.1-8-18.8-17.1-23.7c4.8-4.3,7.6-10.4,7.6-17c0-12.6-10.2-22.8-22.8-22.8s-22.8,10.2-22.8,22.8c0,6.4,2.6,12.3,7.1,16.6
	c-9.5,4.7-16,13.6-17.8,24.1c-7.5-8-12.2-18.8-12.2-30.7C104.9,92.4,125.1,72.3,149.9,72.3z"/>
<path class="st0" d="M200.9,226h-102c-1.7,0-3,1.4-3,3c0,1.7,1.4,3,3,3h102c1.7,0,3-1.4,3-3C204,227.4,202.6,226,200.9,226z"/>
<path class="st0" d="M200.9,192.9h-102c-1.7,0-3,1.4-3,3s1.4,3,3,3h102c1.7,0,3-1.4,3-3S202.6,192.9,200.9,192.9z"/>
</svg>
