<svg height='300px' width='300px'  fill="#000000" xmlns="http://www.w3.org/2000/svg" xmlns:xlink="http://www.w3.org/1999/xlink" version="1.1" x="0px" y="0px" viewBox="0 0 100 100" enable-background="new 0 0 100 100" xml:space="preserve"><path fill="#000000" d="M33.2,62c-1.1,0-2-0.9-2-2V40c0-1.1,0.9-2,2-2s2,0.9,2,2v20C35.2,61.1,34.4,62,33.2,62z"></path><path fill="#000000" d="M86.2,70.1H13.8c-1.1,0-2-0.9-2-2V57.6c0-1.1,0.9-2,2-2c3.1,0,5.6-2.5,5.6-5.6s-2.5-5.6-5.6-5.6  c-1.1,0-2-0.9-2-2V31.9c0-1.1,0.9-2,2-2h72.5c1.1,0,2,0.9,2,2v36.2C88.2,69.2,87.4,70.1,86.2,70.1z M15.8,66.1h68.5V33.9H15.8v6.7  c4.4,0.9,7.6,4.8,7.6,9.4c0,4.6-3.3,8.5-7.6,9.4V66.1z"></path></svg>