<svg height='300px' width='300px'  fill="#64a530" xmlns="http://www.w3.org/2000/svg" xmlns:xlink="http://www.w3.org/1999/xlink" version="1.1" x="0px" y="0px" viewBox="0 0 512 512" style="enable-background:new 0 0 512 512;" xml:space="preserve"><g><g><g><g><path d="M378.5,488.75h-245c-17.369,0-31.5-14.131-31.5-31.5v-342.5c0-17.369,14.131-31.5,31.5-31.5H166c2.209,0,4,1.791,4,4      c0,14.336,11.664,26,26,26h120c14.337,0,26-11.664,26-26c0-2.209,1.791-4,4-4h32.5c17.369,0,31.5,14.131,31.5,31.5v342.5      C410,474.619,395.869,488.75,378.5,488.75z M133.5,91.25c-12.958,0-23.5,10.542-23.5,23.5v342.5c0,12.958,10.542,23.5,23.5,23.5      h245c12.958,0,23.5-10.542,23.5-23.5v-342.5c0-12.958-10.542-23.5-23.5-23.5h-28.734c-1.984,16.871-16.37,30-33.766,30H196      c-17.395,0-31.781-13.129-33.766-30H133.5z"></path></g><g><path d="M316,121.25H196c-18.748,0-34-15.252-34-34s15.252-34,34-34h26.234c1.985-16.871,16.371-30,33.766-30      c17.396,0,31.781,13.129,33.766,30H316c18.748,0,34,15.252,34,34S334.748,121.25,316,121.25z M196,61.25      c-14.336,0-26,11.664-26,26s11.664,26,26,26h120c14.337,0,26-11.664,26-26s-11.663-26-26-26h-30c-2.209,0-4-1.791-4-4      c0-14.336-11.663-26-26-26c-14.336,0-26,11.664-26,26c0,2.209-1.791,4-4,4H196z"></path></g><g><path d="M46,461.25c-13.234,0-24-10.767-24-24s10.766-24,24-24s24,10.767,24,24S59.234,461.25,46,461.25z M46,421.25      c-8.822,0-16,7.178-16,16s7.178,16,16,16s16-7.178,16-16S54.822,421.25,46,421.25z"></path></g><g><path d="M61,161.25c-10.477,0-19-8.523-19-19s8.523-19,19-19s19,8.523,19,19S71.477,161.25,61,161.25z M61,131.25      c-6.065,0-11,4.935-11,11s4.935,11,11,11s11-4.935,11-11S67.065,131.25,61,131.25z"></path></g><g><path d="M461,101.25c-15.99,0-29-13.009-29-29s13.01-29,29-29s29,13.009,29,29S476.99,101.25,461,101.25z M461,51.25      c-11.579,0-21,9.42-21,21s9.421,21,21,21s21-9.42,21-21S472.579,51.25,461,51.25z"></path></g><g><path d="M181,231.25c-21.505,0-39-17.495-39-39s17.495-39,39-39s39,17.495,39,39S202.505,231.25,181,231.25z M181,161.25      c-17.093,0-31,13.907-31,31s13.907,31,31,31s31-13.907,31-31S198.093,161.25,181,161.25z"></path></g><g><path d="M186.001,201.25c-1.03,0-2.054-0.396-2.83-1.171l-10-10c-1.562-1.563-1.562-4.095,0-5.657      c1.563-1.562,4.095-1.562,5.657,0l7.547,7.547L223.6,164.05c1.766-1.325,4.273-0.967,5.6,0.8c1.325,1.767,0.967,4.274-0.8,5.6      l-40,30C187.685,200.986,186.841,201.25,186.001,201.25z"></path></g><g><path d="M366,181.25h-80c-2.209,0-4-1.791-4-4s1.791-4,4-4h80c2.209,0,4,1.791,4,4S368.209,181.25,366,181.25z"></path></g><g><path d="M366,211.25H256c-2.209,0-4-1.791-4-4s1.791-4,4-4h110c2.209,0,4,1.791,4,4S368.209,211.25,366,211.25z"></path></g><g><path d="M181,341.25c-21.505,0-39-17.495-39-39s17.495-39,39-39s39,17.495,39,39S202.505,341.25,181,341.25z M181,271.25      c-17.093,0-31,13.906-31,31s13.907,31,31,31s31-13.906,31-31S198.093,271.25,181,271.25z"></path></g><g><path d="M186.001,311.25c-1.03,0-2.054-0.396-2.83-1.172l-10-10c-1.562-1.562-1.562-4.095,0-5.656      c1.563-1.563,4.095-1.563,5.657,0l7.547,7.547L223.6,274.05c1.766-1.323,4.273-0.969,5.6,0.8c1.325,1.768,0.967,4.275-0.8,5.601      l-40,30C187.685,310.986,186.841,311.25,186.001,311.25z"></path></g><g><path d="M366,291.25h-80c-2.209,0-4-1.791-4-4s1.791-4,4-4h80c2.209,0,4,1.791,4,4S368.209,291.25,366,291.25z"></path></g><g><path d="M366,321.25H256c-2.209,0-4-1.791-4-4s1.791-4,4-4h110c2.209,0,4,1.791,4,4S368.209,321.25,366,321.25z"></path></g><g><path d="M181,451.25c-21.505,0-39-17.495-39-39s17.495-39,39-39s39,17.495,39,39S202.505,451.25,181,451.25z M181,381.25      c-17.093,0-31,13.906-31,31s13.907,31,31,31s31-13.906,31-31S198.093,381.25,181,381.25z"></path></g><g><path d="M186.001,421.25c-1.03,0-2.054-0.396-2.83-1.172l-10-10c-1.562-1.562-1.562-4.095,0-5.656      c1.563-1.563,4.095-1.563,5.657,0l7.547,7.547L223.6,384.05c1.766-1.325,4.273-0.969,5.6,0.8c1.325,1.768,0.967,4.275-0.8,5.601      l-40,30C187.685,420.986,186.841,421.25,186.001,421.25z"></path></g><g><path d="M366,401.25h-80c-2.209,0-4-1.791-4-4s1.791-4,4-4h80c2.209,0,4,1.791,4,4S368.209,401.25,366,401.25z"></path></g><g><path d="M366,431.25H256c-2.209,0-4-1.791-4-4s1.791-4,4-4h110c2.209,0,4,1.791,4,4S368.209,431.25,366,431.25z"></path></g><g><path d="M476,421.25h-40c-2.209,0-4-1.791-4-4s1.791-4,4-4h40c2.209,0,4,1.791,4,4S478.209,421.25,476,421.25z"></path></g><g><path d="M476,391.25h-40c-2.209,0-4-1.791-4-4s1.791-4,4-4h40c2.209,0,4,1.791,4,4S478.209,391.25,476,391.25z"></path></g><g><path d="M476,361.25h-40c-2.209,0-4-1.791-4-4s1.791-4,4-4h40c2.209,0,4,1.791,4,4S478.209,361.25,476,361.25z"></path></g><g><path d="M476,331.25h-40c-2.209,0-4-1.791-4-4s1.791-4,4-4h40c2.209,0,4,1.791,4,4S478.209,331.25,476,331.25z"></path></g><g><path d="M476,301.25h-40c-2.209,0-4-1.791-4-4s1.791-4,4-4h40c2.209,0,4,1.791,4,4S478.209,301.25,476,301.25z"></path></g></g></g></g></svg>