<svg height='300px' width='300px'  fill="#7fc349" xmlns="http://www.w3.org/2000/svg" xmlns:xlink="http://www.w3.org/1999/xlink" version="1.1" x="0px" y="0px" viewBox="0 0 48 48" style="enable-background:new 0 0 48 48;" xml:space="preserve"><style type="text/css">
	.st0{fill:none;}
</style><path d="M29.6,18.6H19.5V16c0-2,1.6-3.7,3.7-3.7h1.3c1.5,0,2.8,0.9,3.4,2.2c0.2,0.5,0.8,0.7,1.3,0.5c0.5-0.2,0.7-0.8,0.5-1.3  c-0.9-2.1-2.9-3.5-5.2-3.5h-1.3c-3.1,0-5.7,2.5-5.7,5.7v2.7c-2.3,0.4-4.1,2.5-4.1,4.9v11.1c0,2.8,2.2,5,5,5h11.1c2.8,0,5-2.2,5-5  V23.6C34.6,20.8,32.3,18.6,29.6,18.6z M32.6,34.7c0,1.7-1.3,3-3,3H18.4c-1.7,0-3-1.3-3-3V23.6c0-1.7,1.3-3,3-3h11.1c1.7,0,3,1.3,3,3  V34.7z M25.5,27.5c0,0.4-0.2,0.8-0.5,1.1v2.3c0,0.6-0.4,1-1,1s-1-0.4-1-1v-2.3c-0.3-0.3-0.5-0.7-0.5-1.1c0-0.8,0.7-1.5,1.5-1.5  S25.5,26.7,25.5,27.5z"></path></svg>