<svg height='300px' width='300px'  fill="#6e7479" xmlns:dc="http://purl.org/dc/elements/1.1/" xmlns:cc="http://creativecommons.org/ns#" xmlns:rdf="http://www.w3.org/1999/02/22-rdf-syntax-ns#" xmlns:svg="http://www.w3.org/2000/svg" xmlns="http://www.w3.org/2000/svg" xmlns:sodipodi="http://sodipodi.sourceforge.net/DTD/sodipodi-0.dtd" xmlns:inkscape="http://www.inkscape.org/namespaces/inkscape" version="1.1" x="0px" y="0px" viewBox="0 0 100 100"><g transform="translate(0,-952.36218)"><path style="text-indent:0;text-transform:none;direction:ltr;block-progression:tb;baseline-shift:baseline;color:#000000;enable-background:accumulate;" d="m 47.000001,959.36218 c -22.0677,0 -40,17.9323 -40,40 0,22.06772 17.9323,40.00002 40,40.00002 5.51802,0 10.77629,-1.1292 15.5625,-3.1562 2.57436,5.4011 8.0737,9.1562 14.437498,9.1562 8.8129,0 16,-7.1871 16,-16 0,-6.3638 -3.75509,-11.8631 -9.15625,-14.4375 2.02707,-4.7862 3.15625,-10.0445 3.15625,-15.56252 0,-22.0677 -17.932298,-40 -39.999998,-40 z m 0,4 c 19.90594,0 35.999998,16.09406 35.999998,36 0,5.07362 -1.04473,9.90752 -2.9375,14.28122 -0.99192,-0.1936 -2.01534,-0.2812 -3.0625,-0.2812 -0.49802,0 -0.98212,0.049 -1.46875,0.094 -1.733348,-2.3473 -4.008068,-4.4501 -6.718748,-6.1875 -5.7583,-3.6907 -13.39754,-5.9062 -21.8125,-5.9062 -8.41496,0 -16.0542,2.2155 -21.8125,5.9062 -4.26467,2.7335 -7.55281,6.3252 -9.15625,10.4376 -3.18223,-5.3709 -5.03125,-11.6395 -5.03125,-18.34412 0,-19.90594 16.09406,-36 36,-36 z m 0,5 c -7.70832,0 -14,6.2917 -14,14 0,7.7083 6.29168,14 14,14 7.70832,0 14,-6.2917 14,-14 0,-7.7083 -6.29168,-14 -14,-14 z m 0,4 c 5.54656,0 10,4.45346 10,10 0,5.54654 -4.45344,10 -10,10 -5.54656,0 -10,-4.45346 -10,-10 0,-5.54654 4.45344,-10 10,-10 z m 0,33.00002 c 7.70246,0 14.64424,2.0688 19.65625,5.2812 1.78558,1.1445 3.29505,2.4402 4.53125,3.8125 -5.95189,2.3348 -10.1875,8.1432 -10.1875,14.9063 0,1.0366 0.0915,2.0487 0.28125,3.0312 -4.37274,1.9023 -9.19806,2.9688 -14.28125,2.9688 -11.29459,0 -21.34087,-5.1934 -27.9375,-13.3125 0.51141,-4.2334 3.45034,-8.3099 8.28125,-11.4063 5.012,-3.2124 11.9538,-5.2812 19.65625,-5.2812 z m 29.999998,12 c 6.6511,0 12,5.3489 12,12 0,6.6511 -5.3489,12 -12,12 -6.651098,0 -11.999998,-5.3489 -11.999998,-12 0,-6.6511 5.3489,-12 11.999998,-12 z m 0,3 c -1.1046,0 -2,0.8954 -2,2 l 0,5 -4.999998,0 c -1.10457,0 -2,0.8954 -2,2 0,1.1046 0.89543,2 2,2 l 4.999998,0 0,5 c 0,1.1046 0.8954,2 2,2 1.1046,0 2,-0.8954 2,-2 l 0,-5 5,0 c 1.10457,0 2,-0.8954 2,-2 0,-1.1046 -0.89543,-2 -2,-2 l -5,0 0,-5 c 0,-1.1046 -0.8954,-2 -2,-2 z" fill="#6e7479" fill-opacity="1" stroke="none" marker="none" visibility="visible" display="inline" overflow="visible"></path></g></svg>