<svg height='300px' width='300px'  fill="#000000" xmlns="http://www.w3.org/2000/svg" xmlns:xlink="http://www.w3.org/1999/xlink" version="1.1" x="0px" y="0px" viewBox="0 0 100 100" enable-background="new 0 0 100 100" xml:space="preserve"><path d="M50.1,10c22.1,0,40,17.9,40,40s-17.9,40-40,40s-40-17.9-40-40S28,10,50.1,10 M50.1,5c-24.9,0-45,20.1-45,45s20.1,45,45,45  s45-20.1,45-45S74.9,5,50.1,5L50.1,5z"></path><path fill-rule="evenodd" clip-rule="evenodd" d="M73.6,38.9L73.6,38.9L46.9,66.2l0,0c-0.6,0.6-1.5,1-2.5,1c-1,0-1.8-0.4-2.5-1l0,0  L26.8,50.8l0,0c-0.6-0.6-1-1.5-1-2.5c0-2,1.6-3.6,3.5-3.6c1,0,1.8,0.4,2.5,1l0,0l12.6,12.9l24.3-24.8l0,0c0.6-0.6,1.5-1,2.5-1  c1.9,0,3.5,1.6,3.5,3.6C74.6,37.4,74.2,38.3,73.6,38.9z"></path></svg>