<?xml version="1.0" encoding="utf-8"?>
<!-- Generator: Adobe Illustrator 23.1.1, SVG Export Plug-In . SVG Version: 6.00 Build 0)  -->
<svg version="1.1" id="Layer_1" xmlns="http://www.w3.org/2000/svg" xmlns:xlink="http://www.w3.org/1999/xlink" x="0px" y="0px"
	 viewBox="0 0 300 300" style="enable-background:new 0 0 300 300;" xml:space="preserve">
<style type="text/css">
	.st0{opacity:0.6;fill:#CC3742;}
</style>
<path class="st0" d="M222,84c-25.2,0-49.5-9.6-67.8-27c-2.4-2.1-6-2.1-8.1,0c-18.3,17.4-42.6,27-67.8,27c-3.3,0-6,2.7-6,6v93.6
	c0,0.9,0.3,1.5,0.6,2.4c12.3,27.9,36,48.6,65.4,56.7c0.6,0.2,12,3.3,12,3.3s11.2-3.1,12-3.3c29.4-8.1,53.1-28.8,65.4-56.7
	c0.3-0.9,0.6-1.5,0.6-2.4V90C228,86.7,225.3,84,222,84z M216,182.4c-10.8,24-31.5,41.7-57,48.9l-9,2.4l-9-2.4
	c-25.5-7.2-46.2-24.9-57-48.9V95.7c24.3-1.2,47.4-10.5,66-26.4c18.6,15.9,41.7,25.2,66,26.4V182.4z M146.4,141.9L114.6,174
	l16.2,16.2l8.4-8.4l-7.8-7.8l3.6-3.6l7.8,7.8l8.4-8.4l-7.8-7.8l11.4-11.4c3,1.5,6.3,2.4,9.9,2.4c11.7,0,21-9.3,21-21s-9.3-21-21-21
	c-11.7,0-21,9.3-21,21C144,135.6,144.9,138.9,146.4,141.9z M165,123c5.1,0,9,3.9,9,9s-3.9,9-9,9s-9-3.9-9-9S159.9,123,165,123z"/>
</svg>
