<?xml version="1.0" encoding="utf-8"?>
<!-- Generator: Adobe Illustrator 23.1.1, SVG Export Plug-In . SVG Version: 6.00 Build 0)  -->
<svg version="1.1" id="Layer_1" xmlns="http://www.w3.org/2000/svg" xmlns:xlink="http://www.w3.org/1999/xlink" x="0px" y="0px"
	 viewBox="0 0 300 300" style="enable-background:new 0 0 300 300;" xml:space="preserve">
<style type="text/css">
	.st0{fill:#C6CDC9;}
</style>
<path class="st0" d="M150,61.5C131.1,79.2,105.9,90,78,90v93.6c12.2,30.4,40.8,47.5,72,56.4c31.2-8.9,59.8-26,72-56.4V90
	C194.1,90,168.9,79.2,150,61.5z M150,227.4c-8.8-2.5-31.8-7.4-50.1-30.3c8.1-14.4,22.2-24.9,39-28.2c-12.6-4.2-21.9-16.5-21.9-30.9
	c0-18.3,14.7-33,33-33s33,14.7,33,33c0,14.4-9.3,26.7-21.9,31.2c16.8,3.3,30.9,13.8,39,28.2C185.7,215,169.7,222.7,150,227.4z"/>
</svg>
