<?xml version="1.0" encoding="utf-8"?>
<!-- Generator: Adobe Illustrator 23.1.1, SVG Export Plug-In . SVG Version: 6.00 Build 0)  -->
<svg version="1.1" id="Layer_1" xmlns="http://www.w3.org/2000/svg" xmlns:xlink="http://www.w3.org/1999/xlink" x="0px" y="0px"
	 viewBox="0 0 300 300" style="enable-background:new 0 0 300 300;" xml:space="preserve">
<style type="text/css">
	.st0{fill:#C6CDC9;}
</style>
<path class="st0" d="M219.3,81c-22.8-0.9-44.7-9.6-61.5-24.6c-4.5-3.9-11.4-4.2-16.2,0c-17.1,15.3-39,24-61.2,24.6
	c-6.6,0.3-11.7,5.4-11.7,12v90.3c0,1.8,0.3,3.3,0.9,4.8c12.6,28.2,36.9,49.2,66.9,57.6c15.6,4.2,10.8,4.5,26.7-0.3
	c30-8.1,54.3-29.1,66.9-57.6c0.6-1.5,0.9-3.3,0.9-4.8V93C231,86.4,225.9,81.3,219.3,81z M219,183c-11.1,25.2-32.7,43.8-59.1,51
	l-9.9,3l-9.9-2.7c-26.4-7.5-48-26.1-59.1-51V93c25.5-0.6,49.8-10.5,69-27.6c19.2,17.1,43.5,26.7,69,27.6V183z M144.6,118.2
	l-8.1,16.2l-17.7,2.7c-2.4,0.3-4.2,1.8-4.8,4.2c-0.6,2.1,0,4.5,1.5,6l12.9,12.6l-3,17.7c-0.3,2.1,0.6,4.5,2.4,6
	c1.2,1.2,3.3,1.5,6.3,0.6l15.9-8.4l15.9,8.4c3,0.9,5.1,0.6,6.3-0.6c1.8-1.5,2.7-3.9,2.4-6l-3-17.7l12.9-12.6c1.5-1.5,2.1-3.9,1.5-6
	c-0.6-2.4-2.4-3.9-4.8-4.2l-17.7-2.7l-8.1-16.2c-0.9-2.1-3-3.3-5.4-3.3C147.6,114.9,145.5,116.1,144.6,118.2z M159,140.1l21,3
	l-15,14.7l3.6,20.7l-18.6-9.9l-18.6,9.9l3.6-20.7l-15-14.7l21-3l9-19.2L159,140.1z"/>
</svg>
