<svg height='300px' width='300px'  fill="#6e7479" xmlns:rdf="http://www.w3.org/1999/02/22-rdf-syntax-ns#" xmlns="http://www.w3.org/2000/svg" xmlns:cc="http://creativecommons.org/ns#" xmlns:dc="http://purl.org/dc/elements/1.1/" version="1.1" x="0px" y="0px" viewBox="0 0 100 100"><g transform="translate(0,-952.36218)"><path style="baseline-shift:baseline;block-progression:tb;color:#000000;direction:ltr;text-indent:0;enable-background:accumulate;text-transform:none;" fill="#6e7479" d="m17.781,956.36c-4.4924,0-8.1875,3.6957-8.1875,8.1875v55.031c0,4.4918,3.6951,8.1875,8.1875,8.1875h3v2.4063c0,4.4918,3.7264,8.1875,8.2188,8.1875h5.375v1.8125c0,4.49,3.6975,8.1875,8.1875,8.1875h39.656c4.49,0,8.1875-3.6975,8.1875-8.1875v-55.031c0-4.49-3.6975-8.1875-8.1875-8.1875h-5.4062v-1.8125c0-4.4918-3.6951-8.1875-8.1875-8.1875h-3v-2.4062c0-4.4918-3.6951-8.1875-8.1875-8.1875h-39.656zm0,5,39.656,0c1.8125,0,3.1875,1.3827,3.1875,3.1875v2.4062h-31.625c-4.4924,0-8.2188,3.6957-8.2188,8.1875v47.625h-3c-1.8125,0-3.1875-1.3827-3.1875-3.1875v-55.031c0-1.8048,1.375-3.1875,3.1875-3.1875zm11.219,10.6h34.125,5.5c1.8125,0,3.1875,1.3827,3.1875,3.1875v1.8125h-29.25c-1.9644,0-3.7698,0.73407-5.1875,1.9062-0.20251,0.16646-0.40808,0.34655-0.59375,0.53125-0.1857,0.1857-0.3638,0.35997-0.53125,0.5625-0.005,0.006,0.005,0.0254,0,0.0312-0.16151,0.19655-0.32569,0.38278-0.46875,0.59375-0.89509,1.3062-1.4062,2.8691-1.4062,4.5625v48.219h-5.375c-1.8126,0-3.2188-1.3827-3.2188-3.1875v-4.7187a2.5002,2.5002,0,0,0,0,-0.1875v-50.125c0-0.22559,0.0205-0.44572,0.0625-0.65625,0.29394-1.4737,1.5703-2.5312,3.1562-2.5312zm45.812,10,7.4062,0c1.8065,0,3.1875,1.381,3.1875,3.1875v55.031c0,1.8065-1.381,3.1875-3.1875,3.1875h-39.656c-1.8065,0-3.1875-1.381-3.1875-3.1875v-4.125a2.5002,2.5002,0,0,0,0,-0.1875v-50.719c0-0.22581,0.0212-0.4456,0.0625-0.65625,0.12341-0.62903,0.41602-1.1712,0.84375-1.5938,0.57031-0.56347,1.375-0.90625,2.2812-0.90625h31.75a2.5002,2.5002,0,0,0,0.5,-0.0312z"></path></g></svg>