<svg height='300px' width='300px'  fill="#000000" xmlns="http://www.w3.org/2000/svg" xmlns:xlink="http://www.w3.org/1999/xlink" version="1.1" x="0px" y="0px" viewBox="0 0 100 100" style="enable-background:new 0 0 100 100;" xml:space="preserve"><g><path d="M66,31c-5.5133057,0-10.7610474,1.8624878-15,5.2756958v-18.84552C51,13.3330078,47.6669922,10,43.5703125,10h-17.140625   C22.3330078,10,19,13.3330078,19,17.4301758V45.416748C18.4993896,45.1593018,17.9405518,45,17.3398438,45h-3.6796875   C11.6416016,45,10,46.6420898,10,48.6601563v16.6796875C10,67.3579102,11.6416016,69,13.6601563,69H18h10v10h-4   c-0.0355835,0-0.0656738,0.0166626-0.1002808,0.0202637C23.7672119,79.0106812,23.6348877,79,23.5,79   c-3.0322266,0-5.5,2.4672852-5.5,5.5s2.4677734,5.5,5.5,5.5c2.8634644,0,5.2208252-2.2010498,5.4746704-5h12.0506592   c0.2538452,2.7989502,2.6112061,5,5.4746704,5c3.0322266,0,5.5-2.4672852,5.5-5.5S49.5322266,79,46.5,79   c-0.1348877,0-0.2672119,0.0106812-0.3997192,0.0202637C46.0656738,79.0166626,46.0355835,79,46,79h-5V69h5.5228882   C51.0275879,75.2681274,58.2633667,79,66,79c13.2333984,0,24-10.7666016,24-24S79.2333984,31,66,31z M23.5,88   c-1.9296875,0-3.5-1.5703125-3.5-3.5s1.5703125-3.5,3.5-3.5s3.5,1.5703125,3.5,3.5S25.4296875,88,23.5,88z M46.5,81   c1.9296875,0,3.5,1.5703125,3.5,3.5S48.4296875,88,46.5,88S43,86.4296875,43,84.5S44.5703125,81,46.5,81z M21,48.6601563   V17.4301758C21,14.4360352,23.4355469,12,26.4296875,12h17.140625C46.5644531,12,49,14.4360352,49,17.4301758v20.6376953   c-0.1422119,0.1409912-0.2797241,0.2918701-0.4194336,0.4384155c-0.0947266,0.0993652-0.1906738,0.1950684-0.2840576,0.296814   c-0.2856445,0.3109741-0.5661011,0.6300049-0.8365479,0.960083C43.9384766,44.0239258,42,49.4355469,42,55   c0,0.331543,0.0078125,0.6674805,0.0214844,1H22.4697266H21V48.6601563z M18.7645264,57.4517822   c-0.0963745,0.0887451-0.1918335,0.1779785-0.2810669,0.2728882c-0.0609131,0.0646973-0.1173096,0.1324463-0.1748047,0.1998901   c-0.0811768,0.0952759-0.1602173,0.1915894-0.234375,0.2918701c-0.0535889,0.0723877-0.1040649,0.1463013-0.1538696,0.2211914   c-0.0684814,0.1028442-0.1332397,0.2074585-0.194519,0.3146362c-0.0444946,0.0778198-0.0875854,0.1559448-0.1281738,0.2359009   c-0.0565186,0.1112671-0.1075439,0.2248535-0.156311,0.3398438c-0.0343628,0.0809326-0.0691528,0.1613159-0.0995483,0.2439575   c-0.0447998,0.1217651-0.0820923,0.2460938-0.1182251,0.3712158c-0.0231323,0.0801392-0.0488892,0.1590576-0.0684204,0.2404175   c-0.0334473,0.1395874-0.0570068,0.2816772-0.0795898,0.4244385c-0.0111084,0.0703125-0.0269165,0.1390991-0.0353394,0.210083   C17.0148315,61.0328979,17,61.250061,17,61.4697266V67h-3.3398438C12.7451172,67,12,66.2553711,12,65.3398438V48.6601563   C12,47.7446289,12.7451172,47,13.6601563,47h3.6796875C18.2548828,47,19,47.7446289,19,48.6601563V57v0.2363281   c-0.017395,0.0142212-0.0322266,0.0308228-0.0494385,0.0452271C18.8858032,57.3358765,18.8264771,57.3947754,18.7645264,57.4517822   z M42.2608032,81c-0.4786987,0.5787354-0.836792,1.258667-1.0475464,2H28.7867432   c-0.2107544-0.741333-0.5688477-1.4212646-1.0475464-2H29h11H42.2608032z M30,79v-9h9v9H30z M19,67v-5.5302734   c0-0.2927246,0.0362549-0.579834,0.105835-0.8560181c0.2086792-0.8284302,0.7171631-1.5575562,1.4459229-2.0394897   c0.0006104-0.0004272,0.0010376-0.0009766,0.0016479-0.0014038C21.1203613,58.1980591,21.7828369,58,22.4697266,58h19.7197266   c0.0153198,0.1229858,0.0379028,0.244751,0.0551147,0.3674316c0.020752,0.1478271,0.0429077,0.295105,0.0664063,0.4424438   c0.0532227,0.3336182,0.114502,0.6655273,0.1818237,0.9963379c0.0256958,0.1260986,0.048584,0.2526245,0.0762939,0.3782349   c0.0992432,0.4504395,0.2087402,0.8984985,0.3339233,1.3424072c0.0095215,0.0337524,0.0212402,0.0668335,0.0309448,0.1005859   c0.1168213,0.4071655,0.2457886,0.810791,0.3841553,1.2115479c0.0471191,0.1365356,0.0983887,0.2714844,0.1480103,0.4072266   c0.1109009,0.3032227,0.2272949,0.6044312,0.3505249,0.9033203c0.0593262,0.144043,0.1191406,0.2877197,0.1813354,0.4307251   c0.1368408,0.3143311,0.2817383,0.6253052,0.4321899,0.9341431c0.0532227,0.1092529,0.1029053,0.2197876,0.1578369,0.3283081   C44.7855225,66.2330322,44.9916382,66.6195679,45.2109375,67H19z M66,77c-7.2568359,0-14.0400391-3.5756836-18.1445313-9.5654297   c-0.0166016-0.0234375-0.0507813-0.065918-0.0683594-0.0883789l-0.0869141-0.1235352   c-2.0478516-3.0522461-3.2978516-6.6166992-3.6191406-10.3520508c-0.0166016-0.1279297-0.0244141-0.2646484-0.0332031-0.4013672   C44.0185547,55.9892578,44,55.4897461,44,55c0-5.1005859,1.7763672-10.0595703,5.0039063-13.9658203   c0.5341797-0.6513672,1.1015625-1.2636719,1.6923828-1.8266602C54.8183594,35.2045898,60.2529297,33,66,33   c12.1308594,0,22,9.8691406,22,22S78.1308594,77,66,77z"></path><path d="M66,36c-4.9628906,0-9.6572266,1.9042969-13.2109375,5.3549805   c-0.5117188,0.4873047-1.0058594,1.0205078-1.4667969,1.5820313C48.5351563,46.3110352,47,50.5947266,47,55   c0,0.4189453,0.0166016,0.8461914,0.0410156,1.2592773c0.0087891,0.1494141,0.0195313,0.2978516,0.0332031,0.3916016   c0.2734375,3.1894531,1.3535156,6.2700195,3.1630859,8.965332c0.0371094,0.0527344,0.0751953,0.1064453,0.1162109,0.1577148   C53.9003906,70.9257813,59.7460938,74,66,74c10.4765625,0,19-8.5234375,19-19S76.4765625,36,66,36z M66,72   c-5.6074219,0-10.8496094-2.7631836-14.0205078-7.3916016c-0.0126953-0.0180664-0.0488281-0.0634766-0.0625-0.0810547   l-0.0585938-0.0825195c-1.5810547-2.3574219-2.546875-5.1118164-2.796875-8.0112305   c-0.0126953-0.0952148-0.0175781-0.1967773-0.0244141-0.2963867C49.0146484,55.7661133,49,55.3789063,49,55   c0-3.9414063,1.3720703-7.7729492,3.8652344-10.7915039c0.4121094-0.5009766,0.8496094-0.9741211,1.3095703-1.4121094   C57.3613281,39.7036133,61.5605469,38,66,38c9.3740234,0,17,7.6259766,17,17S75.3740234,72,66,72z"></path><path d="M72.5039063,50.1318359L67,53.2768555V40c0-0.5522461-0.4472656-1-1-1s-1,0.4477539-1,1v15   c0,0.3564453,0.1894531,0.6860352,0.4980469,0.8647461C65.6533203,55.9550781,65.8261719,56,66,56   c0.1708984,0,0.3427734-0.0439453,0.4960938-0.1318359l7-4c0.4794922-0.2739258,0.6464844-0.8847656,0.3720703-1.3642578   S72.9824219,49.8569336,72.5039063,50.1318359z"></path><path d="M29.5,22h11c0.5527344,0,1-0.4477539,1-1s-0.4472656-1-1-1h-11c-0.5527344,0-1,0.4477539-1,1S28.9472656,22,29.5,22z"></path></g></svg>